<svg width="14" height="11" viewBox="0 0 14 11" fill="none" xmlns="http://www.w3.org/2000/svg">
<path d="M13.5004 7C13.4992 8.06051 13.0774 9.07726 12.3275 9.82715C11.5776 10.577 10.5609 10.9988 9.50039 11H4.00039C3.86779 11 3.74061 10.9473 3.64684 10.8536C3.55307 10.7598 3.50039 10.6326 3.50039 10.5C3.50039 10.3674 3.55307 10.2402 3.64684 10.1465C3.74061 10.0527 3.86779 10 4.00039 10H9.50039C10.296 10 11.0591 9.68393 11.6217 9.12132C12.1843 8.55872 12.5004 7.79565 12.5004 7C12.5004 6.20435 12.1843 5.44129 11.6217 4.87868C11.0591 4.31607 10.296 4 9.50039 4H2.20727L4.35414 6.14625C4.44796 6.24007 4.50067 6.36732 4.50067 6.5C4.50067 6.63269 4.44796 6.75993 4.35414 6.85375C4.26032 6.94757 4.13308 7.00028 4.00039 7.00028C3.86771 7.00028 3.74046 6.94757 3.64664 6.85375L0.646643 3.85375C0.600155 3.80732 0.563276 3.75217 0.538113 3.69147C0.512951 3.63077 0.5 3.56571 0.5 3.5C0.5 3.4343 0.512951 3.36923 0.538113 3.30853C0.563276 3.24783 0.600155 3.19269 0.646643 3.14625L3.64664 0.146253C3.74046 0.052433 3.86771 -0.00027466 4.00039 -0.000274658C4.13308 -0.000274656 4.26032 0.052433 4.35414 0.146253C4.44796 0.240074 4.50067 0.367321 4.50067 0.500003C4.50067 0.632685 4.44796 0.759933 4.35414 0.853753L2.20727 3H9.50039C10.5609 3.00116 11.5776 3.42296 12.3275 4.17286C13.0774 4.92275 13.4992 5.93949 13.5004 7Z" fill="#343330"/>
</svg>
