<svg width="22" height="21" viewBox="0 0 22 21" fill="none" xmlns="http://www.w3.org/2000/svg">
<path fill-rule="evenodd" clip-rule="evenodd" d="M3.56031 0.439998C3.27596 0.175038 2.89986 0.0307918 2.51126 0.0376482C2.12266 0.0445047 1.75189 0.201929 1.47706 0.476755C1.20224 0.751581 1.04481 1.12235 1.03796 1.51095C1.0311 1.89956 1.17535 2.27565 1.44031 2.56L8.88031 10L1.44031 17.44C1.29293 17.5773 1.17473 17.7429 1.09275 17.9269C1.01076 18.1109 0.966678 18.3095 0.963124 18.511C0.95957 18.7124 0.99662 18.9124 1.07206 19.0992C1.1475 19.286 1.25979 19.4556 1.40223 19.5981C1.54467 19.7405 1.71434 19.8528 1.90111 19.9282C2.08789 20.0037 2.28795 20.0407 2.48935 20.0372C2.69076 20.0336 2.88938 19.9895 3.07338 19.9076C3.25738 19.8256 3.42298 19.7074 3.56031 19.56L11.0003 12.12L18.4403 19.56C18.5776 19.7074 18.7432 19.8256 18.9272 19.9076C19.1112 19.9895 19.3099 20.0336 19.5113 20.0372C19.7127 20.0407 19.9127 20.0037 20.0995 19.9282C20.2863 19.8528 20.4559 19.7405 20.5984 19.5981C20.7408 19.4556 20.8531 19.286 20.9286 19.0992C21.004 18.9124 21.041 18.7124 21.0375 18.511C21.0339 18.3095 20.9899 18.1109 20.9079 17.9269C20.8259 17.7429 20.7077 17.5773 20.5603 17.44L13.1203 10L20.5603 2.56C20.8253 2.27565 20.9695 1.89956 20.9627 1.51095C20.9558 1.12235 20.7984 0.751581 20.5236 0.476755C20.2487 0.201929 19.878 0.0445047 19.4894 0.0376482C19.1007 0.0307918 18.7247 0.175038 18.4403 0.439998L11.0003 7.88L3.56031 0.439998Z" fill="#676666"/>
</svg>
