<svg width="48" height="48" viewBox="0 0 48 48" fill="none" xmlns="http://www.w3.org/2000/svg">
<path d="M24 4.5C20.1433 4.5 16.3731 5.64366 13.1664 7.78634C9.95963 9.92903 7.46027 12.9745 5.98436 16.5377C4.50845 20.1008 4.12228 24.0216 4.8747 27.8043C5.62711 31.5869 7.4843 35.0615 10.2114 37.7886C12.9386 40.5157 16.4131 42.3729 20.1957 43.1253C23.9784 43.8777 27.8992 43.4916 31.4623 42.0156C35.0255 40.5397 38.071 38.0404 40.2137 34.8336C42.3564 31.6269 43.5 27.8567 43.5 24C43.4945 18.83 41.4383 13.8732 37.7826 10.2174C34.1268 6.56167 29.1701 4.50546 24 4.5ZM24 40.5C20.7366 40.5 17.5465 39.5323 14.8331 37.7192C12.1197 35.9062 10.0048 33.3293 8.756 30.3143C7.50715 27.2993 7.1804 23.9817 7.81705 20.781C8.45371 17.5803 10.0252 14.6403 12.3327 12.3327C14.6403 10.0252 17.5803 8.4537 20.781 7.81704C23.9817 7.18039 27.2993 7.50714 30.3143 8.75599C33.3293 10.0048 35.9062 12.1197 37.7193 14.8331C39.5323 17.5465 40.5 20.7366 40.5 24C40.495 28.3745 38.7551 32.5685 35.6618 35.6618C32.5685 38.7551 28.3746 40.495 24 40.5ZM29.5613 22.9387C29.7007 23.0781 29.8114 23.2435 29.8868 23.4256C29.9623 23.6077 30.0012 23.8029 30.0012 24C30.0012 24.1971 29.9623 24.3923 29.8868 24.5744C29.8114 24.7565 29.7007 24.9219 29.5613 25.0613L22.0613 32.5613C21.9219 32.7006 21.7564 32.8112 21.5744 32.8866C21.3923 32.962 21.1971 33.0008 21 33.0008C20.8029 33.0008 20.6078 32.962 20.4257 32.8866C20.2436 32.8112 20.0781 32.7006 19.9388 32.5613C19.7994 32.4219 19.6888 32.2564 19.6134 32.0743C19.538 31.8923 19.4992 31.6971 19.4992 31.5C19.4992 31.3029 19.538 31.1077 19.6134 30.9257C19.6888 30.7436 19.7994 30.5781 19.9388 30.4387L26.3794 24L19.9388 17.5613C19.6573 17.2798 19.4992 16.898 19.4992 16.5C19.4992 16.102 19.6573 15.7202 19.9388 15.4387C20.2202 15.1573 20.602 14.9992 21 14.9992C21.3981 14.9992 21.7798 15.1573 22.0613 15.4387L29.5613 22.9387Z" fill="#8D8D8D"/>
</svg>
