<svg width="32" height="33" viewBox="0 0 32 33" fill="none" xmlns="http://www.w3.org/2000/svg">
<path d="M26.2071 15.7925C26.3 15.8854 26.3738 15.9957 26.4241 16.1171C26.4744 16.2385 26.5003 16.3686 26.5003 16.5C26.5003 16.6314 26.4744 16.7616 26.4241 16.883C26.3738 17.0044 26.3 17.1146 26.2071 17.2075L15.9508 27.4575C14.6378 28.7703 12.8571 29.5078 11.0004 29.5077C9.14363 29.5076 7.363 28.7699 6.05017 27.4569C4.73735 26.1439 3.99988 24.3632 4 22.5065C4.00012 20.6497 4.73781 18.8691 6.0508 17.5563L18.4583 4.96627C19.3957 4.0279 20.6674 3.50034 21.9938 3.49963C23.3201 3.49893 24.5924 4.02515 25.5308 4.96252C26.4692 5.8999 26.9967 7.17164 26.9974 8.498C26.9981 9.82435 26.4719 11.0967 25.5345 12.035L13.1245 24.625C12.561 25.1886 11.7966 25.5052 10.9995 25.5052C10.2025 25.5052 9.43813 25.1886 8.87455 24.625C8.31096 24.0614 7.99435 23.2971 7.99435 22.5C7.99435 21.703 8.31096 20.9386 8.87455 20.375L19.287 9.79752C19.3783 9.70022 19.488 9.62215 19.6099 9.56789C19.7317 9.51364 19.8632 9.48431 19.9965 9.48163C20.1298 9.47895 20.2624 9.50296 20.3863 9.55227C20.5102 9.60157 20.623 9.67516 20.7181 9.76872C20.8131 9.86227 20.8885 9.97389 20.9398 10.097C20.9911 10.2201 21.0172 10.3523 21.0166 10.4856C21.0161 10.619 20.9888 10.7509 20.9365 10.8736C20.8842 10.9963 20.8079 11.1073 20.712 11.2L10.2983 21.7888C10.2051 21.8813 10.131 21.9912 10.0802 22.1124C10.0295 22.2335 10.0031 22.3635 10.0026 22.4948C10.002 22.6261 10.0274 22.7563 10.0772 22.8778C10.1269 22.9994 10.2002 23.1099 10.2927 23.2031C10.3852 23.2964 10.4951 23.3705 10.6163 23.4212C10.7374 23.472 10.8674 23.4984 10.9987 23.4989C11.13 23.4994 11.2602 23.4741 11.3817 23.4243C11.5033 23.3745 11.6138 23.3013 11.707 23.2088L24.1158 10.625C24.6794 10.0626 24.9965 9.29932 24.9973 8.50312C24.9981 7.70691 24.6826 6.94298 24.1202 6.3794C23.5577 5.81581 22.7945 5.49873 21.9983 5.49791C21.2021 5.49709 20.4381 5.8126 19.8745 6.37502L7.46955 18.96C7.00483 19.424 6.63606 19.975 6.38427 20.5815C6.13249 21.188 6.00263 21.8381 6.0021 22.4948C6.00158 23.1515 6.13041 23.8018 6.38123 24.4087C6.63205 25.0156 6.99995 25.5672 7.46392 26.0319C7.9279 26.4966 8.47887 26.8654 9.08536 27.1172C9.69186 27.369 10.342 27.4988 10.9987 27.4993C11.6554 27.4999 12.3057 27.371 12.9126 27.1202C13.5195 26.8694 14.0711 26.5015 14.5358 26.0375L24.7933 15.7875C24.9815 15.6008 25.2361 15.4964 25.5012 15.4974C25.7663 15.4983 26.0202 15.6045 26.2071 15.7925Z" fill="#343330"/>
</svg>
