<svg width="24" height="18" viewBox="0 0 24 18" fill="none" xmlns="http://www.w3.org/2000/svg">
<path d="M23.2499 9C23.2546 10.7861 22.6752 12.5248 21.5999 13.9509C21.5407 14.0297 21.4665 14.0961 21.3817 14.1462C21.2968 14.1964 21.2029 14.2293 21.1053 14.2431C21.0077 14.257 20.9084 14.2514 20.8129 14.2269C20.7175 14.2023 20.6278 14.1592 20.549 14.1C20.4702 14.0408 20.4038 13.9666 20.3537 13.8818C20.3036 13.7969 20.2706 13.703 20.2568 13.6054C20.2429 13.5078 20.2485 13.4085 20.273 13.313C20.2976 13.2175 20.3407 13.1279 20.3999 13.0491C21.2801 11.883 21.7542 10.4609 21.7499 9C21.7499 7.20978 21.0388 5.4929 19.7729 4.22703C18.507 2.96115 16.7901 2.25 14.9999 2.25C13.2097 2.25 11.4928 2.96115 10.2269 4.22703C8.96107 5.4929 8.24991 7.20978 8.24991 9C8.24991 9.19891 8.1709 9.38967 8.03024 9.53033C7.88959 9.67098 7.69883 9.75 7.49991 9.75C7.301 9.75 7.11024 9.67098 6.96958 9.53033C6.82893 9.38967 6.74991 9.19891 6.74991 9C6.74955 8.24313 6.85333 7.48982 7.05835 6.76125C6.95616 6.75 6.85304 6.75 6.74991 6.75C5.55644 6.75 4.41185 7.2241 3.56793 8.06802C2.72402 8.91193 2.24991 10.0565 2.24991 11.25C2.24991 12.4435 2.72402 13.5881 3.56793 14.432C4.41185 15.2759 5.55644 15.75 6.74991 15.75H8.99991C9.19883 15.75 9.38959 15.829 9.53024 15.9697C9.6709 16.1103 9.74991 16.3011 9.74991 16.5C9.74991 16.6989 9.6709 16.8897 9.53024 17.0303C9.38959 17.171 9.19883 17.25 8.99991 17.25H6.74991C5.92508 17.2502 5.10906 17.0803 4.35283 16.751C3.5966 16.4216 2.91639 15.9399 2.3547 15.3359C1.79301 14.7318 1.36189 14.0185 1.08827 13.2403C0.814657 12.4622 0.704419 11.636 0.764444 10.8134C0.824469 9.99071 1.05347 9.18928 1.43714 8.45911C1.82081 7.72893 2.35091 7.08571 2.99434 6.56961C3.63776 6.05351 4.38069 5.67562 5.17672 5.45954C5.97275 5.24346 6.80478 5.19383 7.62085 5.31375C8.45185 3.65171 9.81961 2.31888 11.5026 1.53115C13.1856 0.743423 15.0852 0.546931 16.8938 0.973501C18.7024 1.40007 20.314 2.42472 21.4676 3.88148C22.6212 5.33824 23.2492 7.14179 23.2499 9ZM14.7805 8.46937C14.7109 8.39964 14.6282 8.34432 14.5371 8.30658C14.4461 8.26883 14.3485 8.24941 14.2499 8.24941C14.1514 8.24941 14.0538 8.26883 13.9627 8.30658C13.8717 8.34432 13.7889 8.39964 13.7193 8.46937L10.7193 11.4694C10.6496 11.5391 10.5943 11.6218 10.5566 11.7128C10.5189 11.8039 10.4995 11.9015 10.4995 12C10.4995 12.0985 10.5189 12.1961 10.5566 12.2872C10.5943 12.3782 10.6496 12.4609 10.7193 12.5306C10.86 12.6714 11.0509 12.7504 11.2499 12.7504C11.3485 12.7504 11.446 12.731 11.5371 12.6933C11.6281 12.6556 11.7109 12.6003 11.7805 12.5306L13.4999 10.8103V16.5C13.4999 16.6989 13.5789 16.8897 13.7196 17.0303C13.8602 17.171 14.051 17.25 14.2499 17.25C14.4488 17.25 14.6396 17.171 14.7802 17.0303C14.9209 16.8897 14.9999 16.6989 14.9999 16.5V10.8103L16.7193 12.5306C16.789 12.6003 16.8717 12.6556 16.9627 12.6933C17.0538 12.731 17.1514 12.7504 17.2499 12.7504C17.3485 12.7504 17.446 12.731 17.5371 12.6933C17.6281 12.6556 17.7109 12.6003 17.7805 12.5306C17.8502 12.4609 17.9055 12.3782 17.9432 12.2872C17.9809 12.1961 18.0003 12.0985 18.0003 12C18.0003 11.9015 17.9809 11.8039 17.9432 11.7128C17.9055 11.6218 17.8502 11.5391 17.7805 11.4694L14.7805 8.46937Z" fill="#343330"/>
</svg>
