<svg width="16" height="16" viewBox="0 0 16 16" fill="none" xmlns="http://www.w3.org/2000/svg">
<path d="M7.99995 10.8866C6.40661 10.8866 5.11328 9.59328 5.11328 7.99995C5.11328 6.40661 6.40661 5.11328 7.99995 5.11328C9.59328 5.11328 10.8866 6.40661 10.8866 7.99995C10.8866 9.59328 9.59328 10.8866 7.99995 10.8866ZM7.99995 6.11328C6.95995 6.11328 6.11328 6.95995 6.11328 7.99995C6.11328 9.03995 6.95995 9.88661 7.99995 9.88661C9.03995 9.88661 9.88661 9.03995 9.88661 7.99995C9.88661 6.95995 9.03995 6.11328 7.99995 6.11328Z" fill="#731054"/>
<path d="M7.99973 14.0135C5.49306 14.0135 3.12639 12.5468 1.49973 10.0002C0.79306 8.90015 0.79306 7.10682 1.49973 6.00015C3.13306 3.45348 5.49973 1.98682 7.99973 1.98682C10.4997 1.98682 12.8664 3.45348 14.4931 6.00015C15.1997 7.10015 15.1997 8.89348 14.4931 10.0002C12.8664 12.5468 10.4997 14.0135 7.99973 14.0135ZM7.99973 2.98682C5.84639 2.98682 3.78639 4.28015 2.34639 6.54015C1.84639 7.32015 1.84639 8.68015 2.34639 9.46015C3.78639 11.7201 5.84639 13.0135 7.99973 13.0135C10.1531 13.0135 12.2131 11.7201 13.6531 9.46015C14.1531 8.68015 14.1531 7.32015 13.6531 6.54015C12.2131 4.28015 10.1531 2.98682 7.99973 2.98682Z" fill="#731054"/>
</svg>
