<svg width="24" height="24" viewBox="0 0 24 24" fill="none" xmlns="http://www.w3.org/2000/svg">
<path d="M21 15H20.25V14.625C20.25 13.9288 19.9734 13.2611 19.4812 12.7688C18.9889 12.2766 18.3212 12 17.625 12C16.9288 12 16.2611 12.2766 15.7688 12.7688C15.2766 13.2611 15 13.9288 15 14.625V15H14.25C14.0511 15 13.8603 15.079 13.7197 15.2197C13.579 15.3603 13.5 15.5511 13.5 15.75V19.5C13.5 19.6989 13.579 19.8897 13.7197 20.0303C13.8603 20.171 14.0511 20.25 14.25 20.25H21C21.1989 20.25 21.3897 20.171 21.5303 20.0303C21.671 19.8897 21.75 19.6989 21.75 19.5V15.75C21.75 15.5511 21.671 15.3603 21.5303 15.2197C21.3897 15.079 21.1989 15 21 15ZM16.5 14.625C16.5 14.3266 16.6185 14.0405 16.8295 13.8295C17.0405 13.6185 17.3266 13.5 17.625 13.5C17.9234 13.5 18.2095 13.6185 18.4205 13.8295C18.6315 14.0405 18.75 14.3266 18.75 14.625V15H16.5V14.625ZM20.25 18.75H15V16.5H20.25V18.75ZM20.25 6.75H12.3103L9.75 4.18969C9.61122 4.04979 9.44601 3.93888 9.26398 3.8634C9.08196 3.78792 8.88674 3.74937 8.68969 3.75H3.75C3.35218 3.75 2.97064 3.90804 2.68934 4.18934C2.40804 4.47064 2.25 4.85218 2.25 5.25V18.8081C2.2505 19.1904 2.40257 19.5568 2.67286 19.8271C2.94316 20.0974 3.30962 20.2495 3.69188 20.25H10.5525C10.7514 20.25 10.9422 20.171 11.0828 20.0303C11.2235 19.8897 11.3025 19.6989 11.3025 19.5C11.3025 19.3011 11.2235 19.1103 11.0828 18.9697C10.9422 18.829 10.7514 18.75 10.5525 18.75H3.75V8.25H20.25V9.75C20.25 9.94891 20.329 10.1397 20.4697 10.2803C20.6103 10.421 20.8011 10.5 21 10.5C21.1989 10.5 21.3897 10.421 21.5303 10.2803C21.671 10.1397 21.75 9.94891 21.75 9.75V8.25C21.75 7.85218 21.592 7.47064 21.3107 7.18934C21.0294 6.90804 20.6478 6.75 20.25 6.75ZM8.68969 5.25L10.1897 6.75H3.75V5.25H8.68969Z" fill="#033A95"/>
</svg>
