<svg width="729" height="580" viewBox="0 0 729 580" fill="none" xmlns="http://www.w3.org/2000/svg">
<path d="M4.228 5.27C5.264 5.27 6.16933 5.47067 6.944 5.872C7.728 6.264 8.33 6.83333 8.75 7.58C9.17933 8.31733 9.394 9.18067 9.394 10.17C9.394 11.1593 9.17933 12.018 8.75 12.746C8.33 13.474 7.728 14.034 6.944 14.426C6.16933 14.8087 5.264 15 4.228 15H1.05V5.27H4.228ZM4.228 13.698C5.36667 13.698 6.23933 13.39 6.846 12.774C7.45267 12.158 7.756 11.29 7.756 10.17C7.756 9.04067 7.45267 8.15867 6.846 7.524C6.23933 6.88933 5.36667 6.572 4.228 6.572H2.646V13.698H4.228ZM18.0458 10.954C18.0458 11.2433 18.0271 11.5047 17.9898 11.738H12.0958C12.1424 12.354 12.3711 12.8487 12.7818 13.222C13.1924 13.5953 13.6964 13.782 14.2938 13.782C15.1524 13.782 15.7591 13.4227 16.1138 12.704H17.8358C17.6024 13.4133 17.1778 13.9967 16.5618 14.454C15.9551 14.902 15.1991 15.126 14.2938 15.126C13.5564 15.126 12.8938 14.9627 12.3058 14.636C11.7271 14.3 11.2698 13.8333 10.9338 13.236C10.6071 12.6293 10.4438 11.9293 10.4438 11.136C10.4438 10.3427 10.6024 9.64733 10.9198 9.05C11.2464 8.44333 11.6991 7.97667 12.2778 7.65C12.8658 7.32333 13.5378 7.16 14.2938 7.16C15.0218 7.16 15.6704 7.31867 16.2398 7.636C16.8091 7.95333 17.2524 8.40133 17.5698 8.98C17.8871 9.54933 18.0458 10.2073 18.0458 10.954ZM16.3798 10.45C16.3704 9.862 16.1604 9.39067 15.7498 9.036C15.3391 8.68133 14.8304 8.504 14.2238 8.504C13.6731 8.504 13.2018 8.68133 12.8098 9.036C12.4178 9.38133 12.1844 9.85267 12.1098 10.45H16.3798ZM22.7244 7.16C23.3217 7.16 23.8491 7.28133 24.3064 7.524C24.7731 7.75733 25.1371 8.05133 25.3984 8.406V7.286H27.0084V15.126C27.0084 15.8353 26.8591 16.4653 26.5604 17.016C26.2617 17.576 25.8277 18.0147 25.2584 18.332C24.6984 18.6493 24.0264 18.808 23.2424 18.808C22.1971 18.808 21.3291 18.5607 20.6384 18.066C19.9477 17.5807 19.5557 16.918 19.4624 16.078H21.0444C21.1657 16.4793 21.4224 16.8013 21.8144 17.044C22.2157 17.296 22.6917 17.422 23.2424 17.422C23.8864 17.422 24.4044 17.226 24.7964 16.834C25.1977 16.442 25.3984 15.8727 25.3984 15.126V13.838C25.1277 14.202 24.7591 14.51 24.2924 14.762C23.8351 15.0047 23.3124 15.126 22.7244 15.126C22.0524 15.126 21.4364 14.958 20.8764 14.622C20.3257 14.2767 19.8871 13.8007 19.5604 13.194C19.2431 12.578 19.0844 11.8827 19.0844 11.108C19.0844 10.3333 19.2431 9.64733 19.5604 9.05C19.8871 8.45267 20.3257 7.99067 20.8764 7.664C21.4364 7.328 22.0524 7.16 22.7244 7.16ZM25.3984 11.136C25.3984 10.604 25.2864 10.142 25.0624 9.75C24.8477 9.358 24.5631 9.05933 24.2084 8.854C23.8537 8.64867 23.4711 8.546 23.0604 8.546C22.6497 8.546 22.2671 8.64867 21.9124 8.854C21.5577 9.05 21.2684 9.344 21.0444 9.736C20.8297 10.1187 20.7224 10.576 20.7224 11.108C20.7224 11.64 20.8297 12.1067 21.0444 12.508C21.2684 12.9093 21.5577 13.2173 21.9124 13.432C22.2764 13.6373 22.6591 13.74 23.0604 13.74C23.4711 13.74 23.8537 13.6373 24.2084 13.432C24.5631 13.2267 24.8477 12.928 25.0624 12.536C25.2864 12.1347 25.3984 11.668 25.3984 11.136ZM30.7007 8.406C30.934 8.014 31.242 7.71067 31.6247 7.496C32.0167 7.272 32.4787 7.16 33.0107 7.16V8.812H32.6047C31.9794 8.812 31.5034 8.97067 31.1767 9.288C30.8594 9.60533 30.7007 10.156 30.7007 10.94V15H29.1047V7.286H30.7007V8.406ZM41.5477 10.954C41.5477 11.2433 41.5291 11.5047 41.4917 11.738H35.5977C35.6444 12.354 35.8731 12.8487 36.2837 13.222C36.6944 13.5953 37.1984 13.782 37.7957 13.782C38.6544 13.782 39.2611 13.4227 39.6157 12.704H41.3377C41.1044 13.4133 40.6797 13.9967 40.0637 14.454C39.4571 14.902 38.7011 15.126 37.7957 15.126C37.0584 15.126 36.3957 14.9627 35.8077 14.636C35.2291 14.3 34.7717 13.8333 34.4357 13.236C34.1091 12.6293 33.9457 11.9293 33.9457 11.136C33.9457 10.3427 34.1044 9.64733 34.4217 9.05C34.7484 8.44333 35.2011 7.97667 35.7797 7.65C36.3677 7.32333 37.0397 7.16 37.7957 7.16C38.5237 7.16 39.1724 7.31867 39.7417 7.636C40.3111 7.95333 40.7544 8.40133 41.0717 8.98C41.3891 9.54933 41.5477 10.2073 41.5477 10.954ZM39.8817 10.45C39.8724 9.862 39.6624 9.39067 39.2517 9.036C38.8411 8.68133 38.3324 8.504 37.7257 8.504C37.1751 8.504 36.7037 8.68133 36.3117 9.036C35.9197 9.38133 35.6864 9.85267 35.6117 10.45H39.8817ZM50.1884 10.954C50.1884 11.2433 50.1697 11.5047 50.1324 11.738H44.2384C44.285 12.354 44.5137 12.8487 44.9244 13.222C45.335 13.5953 45.839 13.782 46.4364 13.782C47.295 13.782 47.9017 13.4227 48.2564 12.704H49.9784C49.745 13.4133 49.3204 13.9967 48.7044 14.454C48.0977 14.902 47.3417 15.126 46.4364 15.126C45.699 15.126 45.0364 14.9627 44.4484 14.636C43.8697 14.3 43.4124 13.8333 43.0764 13.236C42.7497 12.6293 42.5864 11.9293 42.5864 11.136C42.5864 10.3427 42.745 9.64733 43.0624 9.05C43.389 8.44333 43.8417 7.97667 44.4204 7.65C45.0084 7.32333 45.6804 7.16 46.4364 7.16C47.1644 7.16 47.813 7.31867 48.3824 7.636C48.9517 7.95333 49.395 8.40133 49.7124 8.98C50.0297 9.54933 50.1884 10.2073 50.1884 10.954ZM48.5224 10.45C48.513 9.862 48.303 9.39067 47.8924 9.036C47.4817 8.68133 46.973 8.504 46.3664 8.504C45.8157 8.504 45.3444 8.68133 44.9524 9.036C44.5604 9.38133 44.327 9.85267 44.2524 10.45H48.5224ZM56.197 5.494L56.827 6.614L54.909 7.328L56.827 8.042L56.183 9.19L54.587 7.93L54.881 9.96H53.593L53.859 7.93L52.263 9.218L51.591 8.028L53.495 7.314L51.591 6.628L52.235 5.48L53.873 6.74L53.593 4.696H54.895L54.587 6.74L56.197 5.494Z" fill="black"/>
<rect x="1" y="25" width="726" height="46" rx="19" fill="white" stroke="#D3D3D3" stroke-width="2"/>
<path d="M11.298 101.27V111H9.702V104.336L6.734 111H5.628L2.646 104.336V111H1.05V101.27H2.772L6.188 108.9L9.59 101.27H11.298ZM12.8637 107.108C12.8637 106.333 13.0224 105.647 13.3397 105.05C13.6664 104.453 14.105 103.991 14.6557 103.664C15.2157 103.328 15.8317 103.16 16.5037 103.16C17.1104 103.16 17.6377 103.281 18.0857 103.524C18.543 103.757 18.907 104.051 19.1777 104.406V103.286H20.7877V111H19.1777V109.852C18.907 110.216 18.5384 110.519 18.0717 110.762C17.605 111.005 17.073 111.126 16.4757 111.126C15.813 111.126 15.2064 110.958 14.6557 110.622C14.105 110.277 13.6664 109.801 13.3397 109.194C13.0224 108.578 12.8637 107.883 12.8637 107.108ZM19.1777 107.136C19.1777 106.604 19.0657 106.142 18.8417 105.75C18.627 105.358 18.3424 105.059 17.9877 104.854C17.633 104.649 17.2504 104.546 16.8397 104.546C16.429 104.546 16.0464 104.649 15.6917 104.854C15.337 105.05 15.0477 105.344 14.8237 105.736C14.609 106.119 14.5017 106.576 14.5017 107.108C14.5017 107.64 14.609 108.107 14.8237 108.508C15.0477 108.909 15.337 109.217 15.6917 109.432C16.0557 109.637 16.4384 109.74 16.8397 109.74C17.2504 109.74 17.633 109.637 17.9877 109.432C18.3424 109.227 18.627 108.928 18.8417 108.536C19.0657 108.135 19.1777 107.668 19.1777 107.136ZM23.696 102.264C23.4067 102.264 23.164 102.166 22.968 101.97C22.772 101.774 22.674 101.531 22.674 101.242C22.674 100.953 22.772 100.71 22.968 100.514C23.164 100.318 23.4067 100.22 23.696 100.22C23.976 100.22 24.214 100.318 24.41 100.514C24.606 100.71 24.704 100.953 24.704 101.242C24.704 101.531 24.606 101.774 24.41 101.97C24.214 102.166 23.976 102.264 23.696 102.264ZM24.48 112.512C24.48 113.268 24.2887 113.814 23.906 114.15C23.5327 114.495 22.9867 114.668 22.268 114.668H21.442V113.324H21.988C22.3147 113.324 22.5433 113.259 22.674 113.128C22.814 113.007 22.884 112.801 22.884 112.512V103.286H24.48V112.512ZM29.9214 111.126C29.1934 111.126 28.5354 110.963 27.9474 110.636C27.3594 110.3 26.8974 109.833 26.5614 109.236C26.2254 108.629 26.0574 107.929 26.0574 107.136C26.0574 106.352 26.2301 105.657 26.5754 105.05C26.9207 104.443 27.3921 103.977 27.9894 103.65C28.5867 103.323 29.2541 103.16 29.9914 103.16C30.7287 103.16 31.3961 103.323 31.9934 103.65C32.5907 103.977 33.0621 104.443 33.4074 105.05C33.7527 105.657 33.9254 106.352 33.9254 107.136C33.9254 107.92 33.7481 108.615 33.3934 109.222C33.0387 109.829 32.5534 110.3 31.9374 110.636C31.3307 110.963 30.6587 111.126 29.9214 111.126ZM29.9214 109.74C30.3321 109.74 30.7147 109.642 31.0694 109.446C31.4334 109.25 31.7274 108.956 31.9514 108.564C32.1754 108.172 32.2874 107.696 32.2874 107.136C32.2874 106.576 32.1801 106.105 31.9654 105.722C31.7507 105.33 31.4661 105.036 31.1114 104.84C30.7567 104.644 30.3741 104.546 29.9634 104.546C29.5527 104.546 29.1701 104.644 28.8154 104.84C28.4701 105.036 28.1947 105.33 27.9894 105.722C27.7841 106.105 27.6814 106.576 27.6814 107.136C27.6814 107.967 27.8914 108.611 28.3114 109.068C28.7407 109.516 29.2774 109.74 29.9214 109.74ZM37.0991 104.406C37.3325 104.014 37.6405 103.711 38.0231 103.496C38.4151 103.272 38.8771 103.16 39.4091 103.16V104.812H39.0031C38.3778 104.812 37.9018 104.971 37.5751 105.288C37.2578 105.605 37.0991 106.156 37.0991 106.94V111H35.5031V103.286H37.0991V104.406ZM45.3142 101.494L45.9442 102.614L44.0262 103.328L45.9442 104.042L45.3002 105.19L43.7042 103.93L43.9982 105.96H42.7102L42.9762 103.93L41.3802 105.218L40.7082 104.028L42.6122 103.314L40.7082 102.628L41.3522 101.48L42.9902 102.74L42.7102 100.696H44.0122L43.7042 102.74L45.3142 101.494Z" fill="black"/>
<rect x="1" y="121" width="726" height="46" rx="19" fill="white" stroke="#D3D3D3" stroke-width="2"/>
<path d="M2.632 197.27V203.472C2.632 204.209 2.82333 204.765 3.206 205.138C3.598 205.511 4.13933 205.698 4.83 205.698C5.53 205.698 6.07133 205.511 6.454 205.138C6.846 204.765 7.042 204.209 7.042 203.472V197.27H8.638V203.444C8.638 204.237 8.46533 204.909 8.12 205.46C7.77467 206.011 7.31267 206.421 6.734 206.692C6.15533 206.963 5.516 207.098 4.816 207.098C4.116 207.098 3.47667 206.963 2.898 206.692C2.32867 206.421 1.876 206.011 1.54 205.46C1.204 204.909 1.036 204.237 1.036 203.444V197.27H2.632ZM14.608 199.16C15.2147 199.16 15.756 199.286 16.232 199.538C16.7173 199.79 17.0953 200.163 17.366 200.658C17.6367 201.153 17.772 201.75 17.772 202.45V207H16.19V202.688C16.19 201.997 16.0173 201.47 15.672 201.106C15.3267 200.733 14.8553 200.546 14.258 200.546C13.6607 200.546 13.1847 200.733 12.83 201.106C12.4847 201.47 12.312 201.997 12.312 202.688V207H10.716V199.286H12.312V200.168C12.5733 199.851 12.9047 199.603 13.306 199.426C13.7167 199.249 14.1507 199.16 14.608 199.16ZM20.6198 198.264C20.3305 198.264 20.0878 198.166 19.8918 197.97C19.6958 197.774 19.5978 197.531 19.5978 197.242C19.5978 196.953 19.6958 196.71 19.8918 196.514C20.0878 196.318 20.3305 196.22 20.6198 196.22C20.8998 196.22 21.1378 196.318 21.3338 196.514C21.5298 196.71 21.6278 196.953 21.6278 197.242C21.6278 197.531 21.5298 197.774 21.3338 197.97C21.1378 198.166 20.8998 198.264 20.6198 198.264ZM21.4038 199.286V207H19.8078V199.286H21.4038ZM26.4812 205.572L28.6652 199.286H30.3592L27.4192 207H25.5152L22.5892 199.286H24.2972L26.4812 205.572ZM38.6356 202.954C38.6356 203.243 38.617 203.505 38.5796 203.738H32.6856C32.7323 204.354 32.961 204.849 33.3716 205.222C33.7823 205.595 34.2863 205.782 34.8836 205.782C35.7423 205.782 36.349 205.423 36.7036 204.704H38.4256C38.1923 205.413 37.7676 205.997 37.1516 206.454C36.545 206.902 35.789 207.126 34.8836 207.126C34.1463 207.126 33.4836 206.963 32.8956 206.636C32.317 206.3 31.8596 205.833 31.5236 205.236C31.197 204.629 31.0336 203.929 31.0336 203.136C31.0336 202.343 31.1923 201.647 31.5096 201.05C31.8363 200.443 32.289 199.977 32.8676 199.65C33.4556 199.323 34.1276 199.16 34.8836 199.16C35.6116 199.16 36.2603 199.319 36.8296 199.636C37.399 199.953 37.8423 200.401 38.1596 200.98C38.477 201.549 38.6356 202.207 38.6356 202.954ZM36.9696 202.45C36.9603 201.862 36.7503 201.391 36.3396 201.036C35.929 200.681 35.4203 200.504 34.8136 200.504C34.263 200.504 33.7916 200.681 33.3996 201.036C33.0076 201.381 32.7743 201.853 32.6996 202.45H36.9696ZM41.8023 200.406C42.0356 200.014 42.3436 199.711 42.7263 199.496C43.1183 199.272 43.5803 199.16 44.1123 199.16V200.812H43.7063C43.0809 200.812 42.6049 200.971 42.2783 201.288C41.9609 201.605 41.8023 202.156 41.8023 202.94V207H40.2063V199.286H41.8023V200.406ZM48.3793 207.126C47.7726 207.126 47.2266 207.019 46.7413 206.804C46.2653 206.58 45.8873 206.281 45.6073 205.908C45.3273 205.525 45.178 205.101 45.1593 204.634H46.8113C46.8393 204.961 46.9933 205.236 47.2733 205.46C47.5626 205.675 47.922 205.782 48.3513 205.782C48.7993 205.782 49.1446 205.698 49.3873 205.53C49.6393 205.353 49.7653 205.129 49.7653 204.858C49.7653 204.569 49.6253 204.354 49.3453 204.214C49.0746 204.074 48.6406 203.92 48.0433 203.752C47.4646 203.593 46.9933 203.439 46.6293 203.29C46.2653 203.141 45.948 202.912 45.6773 202.604C45.416 202.296 45.2853 201.89 45.2853 201.386C45.2853 200.975 45.4066 200.602 45.6493 200.266C45.892 199.921 46.2373 199.65 46.6853 199.454C47.1426 199.258 47.6653 199.16 48.2533 199.16C49.1306 199.16 49.8353 199.384 50.3673 199.832C50.9086 200.271 51.198 200.873 51.2353 201.638H49.6393C49.6113 201.293 49.4713 201.017 49.2193 200.812C48.9673 200.607 48.6266 200.504 48.1973 200.504C47.7773 200.504 47.4553 200.583 47.2313 200.742C47.0073 200.901 46.8953 201.111 46.8953 201.372C46.8953 201.577 46.97 201.75 47.1193 201.89C47.2686 202.03 47.4506 202.142 47.6653 202.226C47.88 202.301 48.1973 202.399 48.6173 202.52C49.1773 202.669 49.6346 202.823 49.9893 202.982C50.3533 203.131 50.666 203.355 50.9273 203.654C51.1886 203.953 51.324 204.349 51.3333 204.844C51.3333 205.283 51.212 205.675 50.9693 206.02C50.7266 206.365 50.3813 206.636 49.9333 206.832C49.4946 207.028 48.9766 207.126 48.3793 207.126ZM53.8698 198.264C53.5805 198.264 53.3378 198.166 53.1418 197.97C52.9458 197.774 52.8478 197.531 52.8478 197.242C52.8478 196.953 52.9458 196.71 53.1418 196.514C53.3378 196.318 53.5805 196.22 53.8698 196.22C54.1498 196.22 54.3878 196.318 54.5838 196.514C54.7798 196.71 54.8778 196.953 54.8778 197.242C54.8778 197.531 54.7798 197.774 54.5838 197.97C54.3878 198.166 54.1498 198.264 53.8698 198.264ZM54.6538 199.286V207H53.0578V199.286H54.6538ZM58.6112 200.588V204.858C58.6112 205.147 58.6766 205.357 58.8072 205.488C58.9472 205.609 59.1806 205.67 59.5072 205.67H60.4872V207H59.2272C58.5086 207 57.9579 206.832 57.5752 206.496C57.1926 206.16 57.0012 205.614 57.0012 204.858V200.588H56.0912V199.286H57.0012V197.368H58.6112V199.286H60.4872V200.588H58.6112ZM68.9022 199.286L64.1702 210.626H62.5182L64.0862 206.874L61.0482 199.286H62.8262L64.9962 205.166L67.2502 199.286H68.9022ZM74.5446 197.494L75.1746 198.614L73.2566 199.328L75.1746 200.042L74.5306 201.19L72.9346 199.93L73.2286 201.96H71.9406L72.2066 199.93L70.6106 201.218L69.9386 200.028L71.8426 199.314L69.9386 198.628L70.5826 197.48L72.2206 198.74L71.9406 196.696H73.2426L72.9346 198.74L74.5446 197.494Z" fill="black"/>
<rect x="1" y="217" width="726" height="46" rx="19" fill="white" stroke="#D3D3D3" stroke-width="2"/>
<path d="M4.228 293.27C5.264 293.27 6.16933 293.471 6.944 293.872C7.728 294.264 8.33 294.833 8.75 295.58C9.17933 296.317 9.394 297.181 9.394 298.17C9.394 299.159 9.17933 300.018 8.75 300.746C8.33 301.474 7.728 302.034 6.944 302.426C6.16933 302.809 5.264 303 4.228 303H1.05V293.27H4.228ZM4.228 301.698C5.36667 301.698 6.23933 301.39 6.846 300.774C7.45267 300.158 7.756 299.29 7.756 298.17C7.756 297.041 7.45267 296.159 6.846 295.524C6.23933 294.889 5.36667 294.572 4.228 294.572H2.646V301.698H4.228ZM10.4438 299.108C10.4438 298.333 10.6024 297.647 10.9198 297.05C11.2464 296.453 11.6851 295.991 12.2358 295.664C12.7958 295.328 13.4118 295.16 14.0838 295.16C14.6904 295.16 15.2178 295.281 15.6658 295.524C16.1231 295.757 16.4871 296.051 16.7578 296.406V295.286H18.3678V303H16.7578V301.852C16.4871 302.216 16.1184 302.519 15.6518 302.762C15.1851 303.005 14.6531 303.126 14.0558 303.126C13.3931 303.126 12.7864 302.958 12.2358 302.622C11.6851 302.277 11.2464 301.801 10.9198 301.194C10.6024 300.578 10.4438 299.883 10.4438 299.108ZM16.7578 299.136C16.7578 298.604 16.6458 298.142 16.4218 297.75C16.2071 297.358 15.9224 297.059 15.5678 296.854C15.2131 296.649 14.8304 296.546 14.4198 296.546C14.0091 296.546 13.6264 296.649 13.2718 296.854C12.9171 297.05 12.6278 297.344 12.4038 297.736C12.1891 298.119 12.0818 298.576 12.0818 299.108C12.0818 299.64 12.1891 300.107 12.4038 300.508C12.6278 300.909 12.9171 301.217 13.2718 301.432C13.6358 301.637 14.0184 301.74 14.4198 301.74C14.8304 301.74 15.2131 301.637 15.5678 301.432C15.9224 301.227 16.2071 300.928 16.4218 300.536C16.6458 300.135 16.7578 299.668 16.7578 299.136ZM22.3261 296.588V300.858C22.3261 301.147 22.3914 301.357 22.5221 301.488C22.6621 301.609 22.8954 301.67 23.2221 301.67H24.2021V303H22.9421C22.2234 303 21.6727 302.832 21.2901 302.496C20.9074 302.16 20.7161 301.614 20.7161 300.858V296.588H19.8061V295.286H20.7161V293.368H22.3261V295.286H24.2021V296.588H22.3261ZM32.743 298.954C32.743 299.243 32.7244 299.505 32.687 299.738H26.793C26.8397 300.354 27.0684 300.849 27.479 301.222C27.8897 301.595 28.3937 301.782 28.991 301.782C29.8497 301.782 30.4564 301.423 30.811 300.704H32.533C32.2997 301.413 31.875 301.997 31.259 302.454C30.6524 302.902 29.8964 303.126 28.991 303.126C28.2537 303.126 27.591 302.963 27.003 302.636C26.4244 302.3 25.967 301.833 25.631 301.236C25.3044 300.629 25.141 299.929 25.141 299.136C25.141 298.343 25.2997 297.647 25.617 297.05C25.9437 296.443 26.3964 295.977 26.975 295.65C27.563 295.323 28.235 295.16 28.991 295.16C29.719 295.16 30.3677 295.319 30.937 295.636C31.5064 295.953 31.9497 296.401 32.267 296.98C32.5844 297.549 32.743 298.207 32.743 298.954ZM31.077 298.45C31.0677 297.862 30.8577 297.391 30.447 297.036C30.0364 296.681 29.5277 296.504 28.921 296.504C28.3704 296.504 27.899 296.681 27.507 297.036C27.115 297.381 26.8817 297.853 26.807 298.45H31.077ZM41.2964 303.126C40.5684 303.126 39.9104 302.963 39.3224 302.636C38.7344 302.3 38.2724 301.833 37.9364 301.236C37.6004 300.629 37.4324 299.929 37.4324 299.136C37.4324 298.352 37.6051 297.657 37.9504 297.05C38.2957 296.443 38.7671 295.977 39.3644 295.65C39.9617 295.323 40.6291 295.16 41.3664 295.16C42.1037 295.16 42.7711 295.323 43.3684 295.65C43.9657 295.977 44.4371 296.443 44.7824 297.05C45.1277 297.657 45.3004 298.352 45.3004 299.136C45.3004 299.92 45.1231 300.615 44.7684 301.222C44.4137 301.829 43.9284 302.3 43.3124 302.636C42.7057 302.963 42.0337 303.126 41.2964 303.126ZM41.2964 301.74C41.7071 301.74 42.0897 301.642 42.4444 301.446C42.8084 301.25 43.1024 300.956 43.3264 300.564C43.5504 300.172 43.6624 299.696 43.6624 299.136C43.6624 298.576 43.5551 298.105 43.3404 297.722C43.1257 297.33 42.8411 297.036 42.4864 296.84C42.1317 296.644 41.7491 296.546 41.3384 296.546C40.9277 296.546 40.5451 296.644 40.1904 296.84C39.8451 297.036 39.5697 297.33 39.3644 297.722C39.1591 298.105 39.0564 298.576 39.0564 299.136C39.0564 299.967 39.2664 300.611 39.6864 301.068C40.1157 301.516 40.6524 301.74 41.2964 301.74ZM50.1121 296.588H48.6841V303H47.0741V296.588H46.1641V295.286H47.0741V294.74C47.0741 293.853 47.3075 293.209 47.7741 292.808C48.2501 292.397 48.9921 292.192 50.0001 292.192V293.522C49.5148 293.522 49.1741 293.615 48.9781 293.802C48.7821 293.979 48.6841 294.292 48.6841 294.74V295.286H50.1121V296.588ZM62.2053 296.07C61.9533 295.585 61.6033 295.221 61.1553 294.978C60.7073 294.726 60.1893 294.6 59.6013 294.6C58.9573 294.6 58.3833 294.745 57.8793 295.034C57.3753 295.323 56.9786 295.734 56.6893 296.266C56.4093 296.798 56.2693 297.414 56.2693 298.114C56.2693 298.814 56.4093 299.435 56.6893 299.976C56.9786 300.508 57.3753 300.919 57.8793 301.208C58.3833 301.497 58.9573 301.642 59.6013 301.642C60.4693 301.642 61.1739 301.399 61.7153 300.914C62.2566 300.429 62.5879 299.771 62.7093 298.94H59.0553V297.666H64.4173V298.912C64.3146 299.668 64.0439 300.363 63.6053 300.998C63.1759 301.633 62.6113 302.141 61.9113 302.524C61.2206 302.897 60.4506 303.084 59.6013 303.084C58.6866 303.084 57.8513 302.874 57.0953 302.454C56.3393 302.025 55.7373 301.432 55.2893 300.676C54.8506 299.92 54.6313 299.066 54.6313 298.114C54.6313 297.162 54.8506 296.308 55.2893 295.552C55.7373 294.796 56.3393 294.208 57.0953 293.788C57.8606 293.359 58.6959 293.144 59.6013 293.144C60.6373 293.144 61.5566 293.401 62.3593 293.914C63.1713 294.418 63.7593 295.137 64.1233 296.07H62.2053ZM67.5874 296.406C67.8207 296.014 68.1287 295.711 68.5114 295.496C68.9034 295.272 69.3654 295.16 69.8974 295.16V296.812H69.4914C68.8661 296.812 68.3901 296.971 68.0634 297.288C67.7461 297.605 67.5874 298.156 67.5874 298.94V303H65.9914V295.286H67.5874V296.406ZM70.8325 299.108C70.8325 298.333 70.9911 297.647 71.3085 297.05C71.6351 296.453 72.0738 295.991 72.6245 295.664C73.1845 295.328 73.8005 295.16 74.4725 295.16C75.0791 295.16 75.6065 295.281 76.0545 295.524C76.5118 295.757 76.8758 296.051 77.1465 296.406V295.286H78.7565V303H77.1465V301.852C76.8758 302.216 76.5071 302.519 76.0405 302.762C75.5738 303.005 75.0418 303.126 74.4445 303.126C73.7818 303.126 73.1751 302.958 72.6245 302.622C72.0738 302.277 71.6351 301.801 71.3085 301.194C70.9911 300.578 70.8325 299.883 70.8325 299.108ZM77.1465 299.136C77.1465 298.604 77.0345 298.142 76.8105 297.75C76.5958 297.358 76.3111 297.059 75.9565 296.854C75.6018 296.649 75.2191 296.546 74.8085 296.546C74.3978 296.546 74.0151 296.649 73.6605 296.854C73.3058 297.05 73.0165 297.344 72.7925 297.736C72.5778 298.119 72.4705 298.576 72.4705 299.108C72.4705 299.64 72.5778 300.107 72.7925 300.508C73.0165 300.909 73.3058 301.217 73.6605 301.432C74.0245 301.637 74.4071 301.74 74.8085 301.74C75.2191 301.74 75.6018 301.637 75.9565 301.432C76.3111 301.227 76.5958 300.928 76.8105 300.536C77.0345 300.135 77.1465 299.668 77.1465 299.136ZM80.3207 299.108C80.3207 298.333 80.4794 297.647 80.7967 297.05C81.1234 296.453 81.5621 295.991 82.1127 295.664C82.6727 295.328 83.2934 295.16 83.9747 295.16C84.4787 295.16 84.9734 295.272 85.4587 295.496C85.9534 295.711 86.3454 296 86.6347 296.364V292.64H88.2447V303H86.6347V301.838C86.3734 302.211 86.0094 302.519 85.5427 302.762C85.0854 303.005 84.5581 303.126 83.9607 303.126C83.2887 303.126 82.6727 302.958 82.1127 302.622C81.5621 302.277 81.1234 301.801 80.7967 301.194C80.4794 300.578 80.3207 299.883 80.3207 299.108ZM86.6347 299.136C86.6347 298.604 86.5227 298.142 86.2987 297.75C86.0841 297.358 85.7994 297.059 85.4447 296.854C85.0901 296.649 84.7074 296.546 84.2967 296.546C83.8861 296.546 83.5034 296.649 83.1487 296.854C82.7941 297.05 82.5047 297.344 82.2807 297.736C82.0661 298.119 81.9587 298.576 81.9587 299.108C81.9587 299.64 82.0661 300.107 82.2807 300.508C82.5047 300.909 82.7941 301.217 83.1487 301.432C83.5127 301.637 83.8954 301.74 84.2967 301.74C84.7074 301.74 85.0901 301.637 85.4447 301.432C85.7994 301.227 86.0841 300.928 86.2987 300.536C86.5227 300.135 86.6347 299.668 86.6347 299.136ZM97.327 295.286V303H95.731V302.09C95.479 302.407 95.1477 302.659 94.737 302.846C94.3357 303.023 93.9063 303.112 93.449 303.112C92.8423 303.112 92.2963 302.986 91.811 302.734C91.335 302.482 90.957 302.109 90.677 301.614C90.4063 301.119 90.271 300.522 90.271 299.822V295.286H91.853V299.584C91.853 300.275 92.0257 300.807 92.371 301.18C92.7163 301.544 93.1877 301.726 93.785 301.726C94.3823 301.726 94.8537 301.544 95.199 301.18C95.5537 300.807 95.731 300.275 95.731 299.584V295.286H97.327ZM98.9008 299.108C98.9008 298.333 99.0595 297.647 99.3768 297.05C99.7035 296.453 100.142 295.991 100.693 295.664C101.253 295.328 101.869 295.16 102.541 295.16C103.147 295.16 103.675 295.281 104.123 295.524C104.58 295.757 104.944 296.051 105.215 296.406V295.286H106.825V303H105.215V301.852C104.944 302.216 104.575 302.519 104.109 302.762C103.642 303.005 103.11 303.126 102.513 303.126C101.85 303.126 101.243 302.958 100.693 302.622C100.142 302.277 99.7035 301.801 99.3768 301.194C99.0595 300.578 98.9008 299.883 98.9008 299.108ZM105.215 299.136C105.215 298.604 105.103 298.142 104.879 297.75C104.664 297.358 104.379 297.059 104.025 296.854C103.67 296.649 103.287 296.546 102.877 296.546C102.466 296.546 102.083 296.649 101.729 296.854C101.374 297.05 101.085 297.344 100.861 297.736C100.646 298.119 100.539 298.576 100.539 299.108C100.539 299.64 100.646 300.107 100.861 300.508C101.085 300.909 101.374 301.217 101.729 301.432C102.093 301.637 102.475 301.74 102.877 301.74C103.287 301.74 103.67 301.637 104.025 301.432C104.379 301.227 104.664 300.928 104.879 300.536C105.103 300.135 105.215 299.668 105.215 299.136ZM110.783 296.588V300.858C110.783 301.147 110.848 301.357 110.979 301.488C111.119 301.609 111.352 301.67 111.679 301.67H112.659V303H111.399C110.68 303 110.13 302.832 109.747 302.496C109.364 302.16 109.173 301.614 109.173 300.858V296.588H108.263V295.286H109.173V293.368H110.783V295.286H112.659V296.588H110.783ZM114.942 294.264C114.653 294.264 114.41 294.166 114.214 293.97C114.018 293.774 113.92 293.531 113.92 293.242C113.92 292.953 114.018 292.71 114.214 292.514C114.41 292.318 114.653 292.22 114.942 292.22C115.222 292.22 115.46 292.318 115.656 292.514C115.852 292.71 115.95 292.953 115.95 293.242C115.95 293.531 115.852 293.774 115.656 293.97C115.46 294.166 115.222 294.264 114.942 294.264ZM115.726 295.286V303H114.13V295.286H115.726ZM121.167 303.126C120.439 303.126 119.781 302.963 119.193 302.636C118.605 302.3 118.143 301.833 117.807 301.236C117.471 300.629 117.303 299.929 117.303 299.136C117.303 298.352 117.476 297.657 117.821 297.05C118.167 296.443 118.638 295.977 119.235 295.65C119.833 295.323 120.5 295.16 121.237 295.16C121.975 295.16 122.642 295.323 123.239 295.65C123.837 295.977 124.308 296.443 124.653 297.05C124.999 297.657 125.171 298.352 125.171 299.136C125.171 299.92 124.994 300.615 124.639 301.222C124.285 301.829 123.799 302.3 123.183 302.636C122.577 302.963 121.905 303.126 121.167 303.126ZM121.167 301.74C121.578 301.74 121.961 301.642 122.315 301.446C122.679 301.25 122.973 300.956 123.197 300.564C123.421 300.172 123.533 299.696 123.533 299.136C123.533 298.576 123.426 298.105 123.211 297.722C122.997 297.33 122.712 297.036 122.357 296.84C122.003 296.644 121.62 296.546 121.209 296.546C120.799 296.546 120.416 296.644 120.061 296.84C119.716 297.036 119.441 297.33 119.235 297.722C119.03 298.105 118.927 298.576 118.927 299.136C118.927 299.967 119.137 300.611 119.557 301.068C119.987 301.516 120.523 301.74 121.167 301.74ZM130.641 295.16C131.248 295.16 131.789 295.286 132.265 295.538C132.751 295.79 133.129 296.163 133.399 296.658C133.67 297.153 133.805 297.75 133.805 298.45V303H132.223V298.688C132.223 297.997 132.051 297.47 131.705 297.106C131.36 296.733 130.889 296.546 130.291 296.546C129.694 296.546 129.218 296.733 128.863 297.106C128.518 297.47 128.345 297.997 128.345 298.688V303H126.749V295.286H128.345V296.168C128.607 295.851 128.938 295.603 129.339 295.426C129.75 295.249 130.184 295.16 130.641 295.16ZM140.279 293.494L140.909 294.614L138.991 295.328L140.909 296.042L140.265 297.19L138.669 295.93L138.963 297.96H137.675L137.941 295.93L136.345 297.218L135.673 296.028L137.577 295.314L135.673 294.628L136.317 293.48L137.955 294.74L137.675 292.696H138.977L138.669 294.74L140.279 293.494Z" fill="black"/>
<rect x="1" y="313" width="222" height="46" rx="19" fill="white"/>
<rect x="1" y="313" width="222" height="46" rx="19" stroke="#D3D3D3" stroke-width="2"/>
<path d="M25.408 331.696V340H24.316V333.808L21.556 340H20.788L18.016 333.796V340H16.924V331.696H18.1L21.172 338.56L24.244 331.696H25.408ZM30.1279 340.108C29.5119 340.108 28.9519 339.968 28.4479 339.688C27.9519 339.408 27.5599 339.012 27.2719 338.5C26.9919 337.98 26.8519 337.38 26.8519 336.7C26.8519 336.028 26.9959 335.436 27.2839 334.924C27.5799 334.404 27.9799 334.008 28.4839 333.736C28.9879 333.456 29.5519 333.316 30.1759 333.316C30.7999 333.316 31.3639 333.456 31.8679 333.736C32.3719 334.008 32.7679 334.4 33.0559 334.912C33.3519 335.424 33.4999 336.02 33.4999 336.7C33.4999 337.38 33.3479 337.98 33.0439 338.5C32.7479 339.012 32.3439 339.408 31.8319 339.688C31.3199 339.968 30.7519 340.108 30.1279 340.108ZM30.1279 339.148C30.5199 339.148 30.8879 339.056 31.2319 338.872C31.5759 338.688 31.8519 338.412 32.0599 338.044C32.2759 337.676 32.3839 337.228 32.3839 336.7C32.3839 336.172 32.2799 335.724 32.0719 335.356C31.8639 334.988 31.5919 334.716 31.2559 334.54C30.9199 334.356 30.5559 334.264 30.1639 334.264C29.7639 334.264 29.3959 334.356 29.0599 334.54C28.7319 334.716 28.4679 334.988 28.2679 335.356C28.0679 335.724 27.9679 336.172 27.9679 336.7C27.9679 337.236 28.0639 337.688 28.2559 338.056C28.4559 338.424 28.7199 338.7 29.0479 338.884C29.3759 339.06 29.7359 339.148 30.1279 339.148ZM38.1397 333.304C38.9397 333.304 39.5877 333.548 40.0837 334.036C40.5797 334.516 40.8277 335.212 40.8277 336.124V340H39.7477V336.28C39.7477 335.624 39.5837 335.124 39.2557 334.78C38.9277 334.428 38.4797 334.252 37.9117 334.252C37.3357 334.252 36.8757 334.432 36.5317 334.792C36.1957 335.152 36.0277 335.676 36.0277 336.364V340H34.9357V333.424H36.0277V334.36C36.2437 334.024 36.5357 333.764 36.9037 333.58C37.2797 333.396 37.6917 333.304 38.1397 333.304ZM43.9435 334.324V338.2C43.9435 338.52 44.0115 338.748 44.1475 338.884C44.2835 339.012 44.5195 339.076 44.8555 339.076H45.6595V340H44.6755C44.0675 340 43.6115 339.86 43.3075 339.58C43.0035 339.3 42.8515 338.84 42.8515 338.2V334.324H41.9995V333.424H42.8515V331.768H43.9435V333.424H45.6595V334.324H43.9435ZM50.2466 333.304C50.7426 333.304 51.1906 333.412 51.5906 333.628C51.9906 333.836 52.3026 334.152 52.5266 334.576C52.7586 335 52.8746 335.516 52.8746 336.124V340H51.7946V336.28C51.7946 335.624 51.6306 335.124 51.3026 334.78C50.9746 334.428 50.5266 334.252 49.9586 334.252C49.3826 334.252 48.9226 334.432 48.5786 334.792C48.2426 335.152 48.0746 335.676 48.0746 336.364V340H46.9826V331.12H48.0746V334.36C48.2906 334.024 48.5866 333.764 48.9626 333.58C49.3466 333.396 49.7746 333.304 50.2466 333.304Z" fill="#8D8D8D"/>
<path d="M206.031 333.531L198.531 341.031C198.461 341.1 198.378 341.156 198.287 341.193C198.196 341.231 198.098 341.251 198 341.251C197.901 341.251 197.804 341.231 197.713 341.193C197.622 341.156 197.539 341.1 197.469 341.031L189.969 333.531C189.829 333.39 189.75 333.199 189.75 333C189.75 332.801 189.829 332.61 189.969 332.469C190.11 332.329 190.301 332.25 190.5 332.25C190.699 332.25 190.89 332.329 191.031 332.469L198 339.44L204.969 332.469C205.039 332.4 205.122 332.344 205.213 332.307C205.304 332.269 205.401 332.25 205.5 332.25C205.598 332.25 205.696 332.269 205.787 332.307C205.878 332.344 205.961 332.4 206.031 332.469C206.1 332.539 206.156 332.622 206.193 332.713C206.231 332.804 206.25 332.901 206.25 333C206.25 333.099 206.231 333.196 206.193 333.287C206.156 333.378 206.1 333.461 206.031 333.531Z" fill="#343330"/>
<rect x="253" y="313" width="222" height="46" rx="19" fill="white"/>
<rect x="253" y="313" width="222" height="46" rx="19" stroke="#D3D3D3" stroke-width="2"/>
<path d="M274.78 331.636L272.056 336.844V340H270.964V336.844L268.228 331.636H269.44L271.504 335.872L273.568 331.636H274.78ZM281.932 336.46C281.932 336.668 281.92 336.888 281.896 337.12H276.64C276.68 337.768 276.9 338.276 277.3 338.644C277.708 339.004 278.2 339.184 278.776 339.184C279.248 339.184 279.64 339.076 279.952 338.86C280.272 338.636 280.496 338.34 280.624 337.972H281.8C281.624 338.604 281.272 339.12 280.744 339.52C280.216 339.912 279.56 340.108 278.776 340.108C278.152 340.108 277.592 339.968 277.096 339.688C276.608 339.408 276.224 339.012 275.944 338.5C275.664 337.98 275.524 337.38 275.524 336.7C275.524 336.02 275.66 335.424 275.932 334.912C276.204 334.4 276.584 334.008 277.072 333.736C277.568 333.456 278.136 333.316 278.776 333.316C279.4 333.316 279.952 333.452 280.432 333.724C280.912 333.996 281.28 334.372 281.536 334.852C281.8 335.324 281.932 335.86 281.932 336.46ZM280.804 336.232C280.804 335.816 280.712 335.46 280.528 335.164C280.344 334.86 280.092 334.632 279.772 334.48C279.46 334.32 279.112 334.24 278.728 334.24C278.176 334.24 277.704 334.416 277.312 334.768C276.928 335.12 276.708 335.608 276.652 336.232H280.804ZM282.965 336.688C282.965 336.016 283.101 335.428 283.373 334.924C283.645 334.412 284.017 334.016 284.489 333.736C284.969 333.456 285.501 333.316 286.085 333.316C286.661 333.316 287.161 333.44 287.585 333.688C288.009 333.936 288.325 334.248 288.533 334.624V333.424H289.637V340H288.533V338.776C288.317 339.16 287.993 339.48 287.561 339.736C287.137 339.984 286.641 340.108 286.073 340.108C285.489 340.108 284.961 339.964 284.489 339.676C284.017 339.388 283.645 338.984 283.373 338.464C283.101 337.944 282.965 337.352 282.965 336.688ZM288.533 336.7C288.533 336.204 288.433 335.772 288.233 335.404C288.033 335.036 287.761 334.756 287.417 334.564C287.081 334.364 286.709 334.264 286.301 334.264C285.893 334.264 285.521 334.36 285.185 334.552C284.849 334.744 284.581 335.024 284.381 335.392C284.181 335.76 284.081 336.192 284.081 336.688C284.081 337.192 284.181 337.632 284.381 338.008C284.581 338.376 284.849 338.66 285.185 338.86C285.521 339.052 285.893 339.148 286.301 339.148C286.709 339.148 287.081 339.052 287.417 338.86C287.761 338.66 288.033 338.376 288.233 338.008C288.433 337.632 288.533 337.196 288.533 336.7ZM292.575 334.492C292.767 334.116 293.039 333.824 293.391 333.616C293.751 333.408 294.187 333.304 294.699 333.304V334.432H294.411C293.187 334.432 292.575 335.096 292.575 336.424V340H291.483V333.424H292.575V334.492Z" fill="#8D8D8D"/>
<path d="M453.031 333.531L445.531 341.031C445.461 341.1 445.378 341.156 445.287 341.193C445.196 341.231 445.098 341.251 445 341.251C444.901 341.251 444.804 341.231 444.713 341.193C444.622 341.156 444.539 341.1 444.469 341.031L436.969 333.531C436.829 333.39 436.75 333.199 436.75 333C436.75 332.801 436.829 332.61 436.969 332.469C437.11 332.329 437.301 332.25 437.5 332.25C437.699 332.25 437.89 332.329 438.031 332.469L445 339.44L451.969 332.469C452.039 332.4 452.122 332.344 452.213 332.307C452.304 332.269 452.401 332.25 452.5 332.25C452.598 332.25 452.696 332.269 452.787 332.307C452.878 332.344 452.961 332.4 453.031 332.469C453.1 332.539 453.156 332.622 453.193 332.713C453.231 332.804 453.25 332.901 453.25 333C453.25 333.099 453.231 333.196 453.193 333.287C453.156 333.378 453.1 333.461 453.031 333.531Z" fill="#343330"/>
<path d="M4.228 393.27C5.264 393.27 6.16933 393.471 6.944 393.872C7.728 394.264 8.33 394.833 8.75 395.58C9.17933 396.317 9.394 397.181 9.394 398.17C9.394 399.159 9.17933 400.018 8.75 400.746C8.33 401.474 7.728 402.034 6.944 402.426C6.16933 402.809 5.264 403 4.228 403H1.05V393.27H4.228ZM4.228 401.698C5.36667 401.698 6.23933 401.39 6.846 400.774C7.45267 400.158 7.756 399.29 7.756 398.17C7.756 397.041 7.45267 396.159 6.846 395.524C6.23933 394.889 5.36667 394.572 4.228 394.572H2.646V401.698H4.228ZM18.0458 398.954C18.0458 399.243 18.0271 399.505 17.9898 399.738H12.0958C12.1424 400.354 12.3711 400.849 12.7818 401.222C13.1924 401.595 13.6964 401.782 14.2938 401.782C15.1524 401.782 15.7591 401.423 16.1138 400.704H17.8358C17.6024 401.413 17.1778 401.997 16.5618 402.454C15.9551 402.902 15.1991 403.126 14.2938 403.126C13.5564 403.126 12.8938 402.963 12.3058 402.636C11.7271 402.3 11.2698 401.833 10.9338 401.236C10.6071 400.629 10.4438 399.929 10.4438 399.136C10.4438 398.343 10.6024 397.647 10.9198 397.05C11.2464 396.443 11.6991 395.977 12.2778 395.65C12.8658 395.323 13.5378 395.16 14.2938 395.16C15.0218 395.16 15.6704 395.319 16.2398 395.636C16.8091 395.953 17.2524 396.401 17.5698 396.98C17.8871 397.549 18.0458 398.207 18.0458 398.954ZM16.3798 398.45C16.3704 397.862 16.1604 397.391 15.7498 397.036C15.3391 396.681 14.8304 396.504 14.2238 396.504C13.6731 396.504 13.2018 396.681 12.8098 397.036C12.4178 397.381 12.1844 397.853 12.1098 398.45H16.3798ZM22.7244 395.16C23.3217 395.16 23.8491 395.281 24.3064 395.524C24.7731 395.757 25.1371 396.051 25.3984 396.406V395.286H27.0084V403.126C27.0084 403.835 26.8591 404.465 26.5604 405.016C26.2617 405.576 25.8277 406.015 25.2584 406.332C24.6984 406.649 24.0264 406.808 23.2424 406.808C22.1971 406.808 21.3291 406.561 20.6384 406.066C19.9477 405.581 19.5557 404.918 19.4624 404.078H21.0444C21.1657 404.479 21.4224 404.801 21.8144 405.044C22.2157 405.296 22.6917 405.422 23.2424 405.422C23.8864 405.422 24.4044 405.226 24.7964 404.834C25.1977 404.442 25.3984 403.873 25.3984 403.126V401.838C25.1277 402.202 24.7591 402.51 24.2924 402.762C23.8351 403.005 23.3124 403.126 22.7244 403.126C22.0524 403.126 21.4364 402.958 20.8764 402.622C20.3257 402.277 19.8871 401.801 19.5604 401.194C19.2431 400.578 19.0844 399.883 19.0844 399.108C19.0844 398.333 19.2431 397.647 19.5604 397.05C19.8871 396.453 20.3257 395.991 20.8764 395.664C21.4364 395.328 22.0524 395.16 22.7244 395.16ZM25.3984 399.136C25.3984 398.604 25.2864 398.142 25.0624 397.75C24.8477 397.358 24.5631 397.059 24.2084 396.854C23.8537 396.649 23.4711 396.546 23.0604 396.546C22.6497 396.546 22.2671 396.649 21.9124 396.854C21.5577 397.05 21.2684 397.344 21.0444 397.736C20.8297 398.119 20.7224 398.576 20.7224 399.108C20.7224 399.64 20.8297 400.107 21.0444 400.508C21.2684 400.909 21.5577 401.217 21.9124 401.432C22.2764 401.637 22.6591 401.74 23.0604 401.74C23.4711 401.74 23.8537 401.637 24.2084 401.432C24.5631 401.227 24.8477 400.928 25.0624 400.536C25.2864 400.135 25.3984 399.668 25.3984 399.136ZM30.7007 396.406C30.934 396.014 31.242 395.711 31.6247 395.496C32.0167 395.272 32.4787 395.16 33.0107 395.16V396.812H32.6047C31.9794 396.812 31.5034 396.971 31.1767 397.288C30.8594 397.605 30.7007 398.156 30.7007 398.94V403H29.1047V395.286H30.7007V396.406ZM41.5477 398.954C41.5477 399.243 41.5291 399.505 41.4917 399.738H35.5977C35.6444 400.354 35.8731 400.849 36.2837 401.222C36.6944 401.595 37.1984 401.782 37.7957 401.782C38.6544 401.782 39.2611 401.423 39.6157 400.704H41.3377C41.1044 401.413 40.6797 401.997 40.0637 402.454C39.4571 402.902 38.7011 403.126 37.7957 403.126C37.0584 403.126 36.3957 402.963 35.8077 402.636C35.2291 402.3 34.7717 401.833 34.4357 401.236C34.1091 400.629 33.9457 399.929 33.9457 399.136C33.9457 398.343 34.1044 397.647 34.4217 397.05C34.7484 396.443 35.2011 395.977 35.7797 395.65C36.3677 395.323 37.0397 395.16 37.7957 395.16C38.5237 395.16 39.1724 395.319 39.7417 395.636C40.3111 395.953 40.7544 396.401 41.0717 396.98C41.3891 397.549 41.5477 398.207 41.5477 398.954ZM39.8817 398.45C39.8724 397.862 39.6624 397.391 39.2517 397.036C38.8411 396.681 38.3324 396.504 37.7257 396.504C37.1751 396.504 36.7037 396.681 36.3117 397.036C35.9197 397.381 35.6864 397.853 35.6117 398.45H39.8817ZM50.1884 398.954C50.1884 399.243 50.1697 399.505 50.1324 399.738H44.2384C44.285 400.354 44.5137 400.849 44.9244 401.222C45.335 401.595 45.839 401.782 46.4364 401.782C47.295 401.782 47.9017 401.423 48.2564 400.704H49.9784C49.745 401.413 49.3204 401.997 48.7044 402.454C48.0977 402.902 47.3417 403.126 46.4364 403.126C45.699 403.126 45.0364 402.963 44.4484 402.636C43.8697 402.3 43.4124 401.833 43.0764 401.236C42.7497 400.629 42.5864 399.929 42.5864 399.136C42.5864 398.343 42.745 397.647 43.0624 397.05C43.389 396.443 43.8417 395.977 44.4204 395.65C45.0084 395.323 45.6804 395.16 46.4364 395.16C47.1644 395.16 47.813 395.319 48.3824 395.636C48.9517 395.953 49.395 396.401 49.7124 396.98C50.0297 397.549 50.1884 398.207 50.1884 398.954ZM48.5224 398.45C48.513 397.862 48.303 397.391 47.8924 397.036C47.4817 396.681 46.973 396.504 46.3664 396.504C45.8157 396.504 45.3444 396.681 44.9524 397.036C44.5604 397.381 44.327 397.853 44.2524 398.45H48.5224ZM54.8637 398.114C54.8637 397.162 55.083 396.308 55.5217 395.552C55.9697 394.796 56.5717 394.208 57.3277 393.788C58.093 393.359 58.9284 393.144 59.8337 393.144C60.8697 393.144 61.789 393.401 62.5917 393.914C63.4037 394.418 63.9917 395.137 64.3557 396.07H62.4377C62.1857 395.557 61.8357 395.174 61.3877 394.922C60.9397 394.67 60.4217 394.544 59.8337 394.544C59.1897 394.544 58.6157 394.689 58.1117 394.978C57.6077 395.267 57.211 395.683 56.9217 396.224C56.6417 396.765 56.5017 397.395 56.5017 398.114C56.5017 398.833 56.6417 399.463 56.9217 400.004C57.211 400.545 57.6077 400.965 58.1117 401.264C58.6157 401.553 59.1897 401.698 59.8337 401.698C60.4217 401.698 60.9397 401.572 61.3877 401.32C61.8357 401.068 62.1857 400.685 62.4377 400.172H64.3557C63.9917 401.105 63.4037 401.824 62.5917 402.328C61.789 402.832 60.8697 403.084 59.8337 403.084C58.919 403.084 58.0837 402.874 57.3277 402.454C56.5717 402.025 55.9697 401.432 55.5217 400.676C55.083 399.92 54.8637 399.066 54.8637 398.114ZM73.2938 398.954C73.2938 399.243 73.2752 399.505 73.2378 399.738H67.3438C67.3905 400.354 67.6192 400.849 68.0298 401.222C68.4405 401.595 68.9445 401.782 69.5418 401.782C70.4005 401.782 71.0072 401.423 71.3618 400.704H73.0838C72.8505 401.413 72.4258 401.997 71.8098 402.454C71.2032 402.902 70.4472 403.126 69.5418 403.126C68.8045 403.126 68.1418 402.963 67.5538 402.636C66.9752 402.3 66.5178 401.833 66.1818 401.236C65.8552 400.629 65.6918 399.929 65.6918 399.136C65.6918 398.343 65.8505 397.647 66.1678 397.05C66.4945 396.443 66.9472 395.977 67.5258 395.65C68.1138 395.323 68.7858 395.16 69.5418 395.16C70.2698 395.16 70.9185 395.319 71.4878 395.636C72.0572 395.953 72.5005 396.401 72.8178 396.98C73.1352 397.549 73.2938 398.207 73.2938 398.954ZM71.6278 398.45C71.6185 397.862 71.4085 397.391 70.9978 397.036C70.5872 396.681 70.0785 396.504 69.4718 396.504C68.9212 396.504 68.4498 396.681 68.0578 397.036C67.6658 397.381 67.4325 397.853 67.3578 398.45H71.6278ZM76.4605 396.406C76.6938 396.014 77.0018 395.711 77.3845 395.496C77.7765 395.272 78.2385 395.16 78.7705 395.16V396.812H78.3645C77.7391 396.812 77.2631 396.971 76.9365 397.288C76.6191 397.605 76.4605 398.156 76.4605 398.94V403H74.8645V395.286H76.4605V396.406ZM82.0995 396.588V400.858C82.0995 401.147 82.1648 401.357 82.2955 401.488C82.4355 401.609 82.6688 401.67 82.9955 401.67H83.9755V403H82.7155C81.9968 403 81.4462 402.832 81.0635 402.496C80.6808 402.16 80.4895 401.614 80.4895 400.858V396.588H79.5795V395.286H80.4895V393.368H82.0995V395.286H83.9755V396.588H82.0995ZM86.2585 394.264C85.9692 394.264 85.7265 394.166 85.5305 393.97C85.3345 393.774 85.2365 393.531 85.2365 393.242C85.2365 392.953 85.3345 392.71 85.5305 392.514C85.7265 392.318 85.9692 392.22 86.2585 392.22C86.5385 392.22 86.7765 392.318 86.9725 392.514C87.1685 392.71 87.2665 392.953 87.2665 393.242C87.2665 393.531 87.1685 393.774 86.9725 393.97C86.7765 394.166 86.5385 394.264 86.2585 394.264ZM87.0425 395.286V403H85.4465V395.286H87.0425ZM92.3719 396.588H90.9439V403H89.3339V396.588H88.4239V395.286H89.3339V394.74C89.3339 393.853 89.5672 393.209 90.0339 392.808C90.5099 392.397 91.2519 392.192 92.2599 392.192V393.522C91.7746 393.522 91.4339 393.615 91.2379 393.802C91.0419 393.979 90.9439 394.292 90.9439 394.74V395.286H92.3719V396.588ZM94.5983 394.264C94.309 394.264 94.0663 394.166 93.8703 393.97C93.6743 393.774 93.5763 393.531 93.5763 393.242C93.5763 392.953 93.6743 392.71 93.8703 392.514C94.0663 392.318 94.309 392.22 94.5983 392.22C94.8783 392.22 95.1163 392.318 95.3123 392.514C95.5083 392.71 95.6063 392.953 95.6063 393.242C95.6063 393.531 95.5083 393.774 95.3123 393.97C95.1163 394.166 94.8783 394.264 94.5983 394.264ZM95.3823 395.286V403H93.7863V395.286H95.3823ZM96.9457 399.136C96.9457 398.343 97.1044 397.647 97.4217 397.05C97.7484 396.443 98.1964 395.977 98.7657 395.65C99.3351 395.323 99.9884 395.16 100.726 395.16C101.659 395.16 102.429 395.384 103.036 395.832C103.652 396.271 104.067 396.901 104.282 397.722H102.56C102.42 397.339 102.196 397.041 101.888 396.826C101.58 396.611 101.192 396.504 100.726 396.504C100.072 396.504 99.5497 396.737 99.1577 397.204C98.7751 397.661 98.5837 398.305 98.5837 399.136C98.5837 399.967 98.7751 400.615 99.1577 401.082C99.5497 401.549 100.072 401.782 100.726 401.782C101.65 401.782 102.261 401.376 102.56 400.564H104.282C104.058 401.348 103.638 401.973 103.022 402.44C102.406 402.897 101.64 403.126 100.726 403.126C99.9884 403.126 99.3351 402.963 98.7657 402.636C98.1964 402.3 97.7484 401.833 97.4217 401.236C97.1044 400.629 96.9457 399.929 96.9457 399.136ZM105.34 399.108C105.34 398.333 105.499 397.647 105.816 397.05C106.143 396.453 106.582 395.991 107.132 395.664C107.692 395.328 108.308 395.16 108.98 395.16C109.587 395.16 110.114 395.281 110.562 395.524C111.02 395.757 111.384 396.051 111.654 396.406V395.286H113.264V403H111.654V401.852C111.384 402.216 111.015 402.519 110.548 402.762C110.082 403.005 109.55 403.126 108.952 403.126C108.29 403.126 107.683 402.958 107.132 402.622C106.582 402.277 106.143 401.801 105.816 401.194C105.499 400.578 105.34 399.883 105.34 399.108ZM111.654 399.136C111.654 398.604 111.542 398.142 111.318 397.75C111.104 397.358 110.819 397.059 110.464 396.854C110.11 396.649 109.727 396.546 109.316 396.546C108.906 396.546 108.523 396.649 108.168 396.854C107.814 397.05 107.524 397.344 107.3 397.736C107.086 398.119 106.978 398.576 106.978 399.108C106.978 399.64 107.086 400.107 107.3 400.508C107.524 400.909 107.814 401.217 108.168 401.432C108.532 401.637 108.915 401.74 109.316 401.74C109.727 401.74 110.11 401.637 110.464 401.432C110.819 401.227 111.104 400.928 111.318 400.536C111.542 400.135 111.654 399.668 111.654 399.136ZM117.223 396.588V400.858C117.223 401.147 117.288 401.357 117.419 401.488C117.559 401.609 117.792 401.67 118.119 401.67H119.099V403H117.839C117.12 403 116.569 402.832 116.187 402.496C115.804 402.16 115.613 401.614 115.613 400.858V396.588H114.703V395.286H115.613V393.368H117.223V395.286H119.099V396.588H117.223ZM127.64 398.954C127.64 399.243 127.621 399.505 127.584 399.738H121.69C121.736 400.354 121.965 400.849 122.376 401.222C122.786 401.595 123.29 401.782 123.888 401.782C124.746 401.782 125.353 401.423 125.708 400.704H127.43C127.196 401.413 126.772 401.997 126.156 402.454C125.549 402.902 124.793 403.126 123.888 403.126C123.15 403.126 122.488 402.963 121.9 402.636C121.321 402.3 120.864 401.833 120.528 401.236C120.201 400.629 120.038 399.929 120.038 399.136C120.038 398.343 120.196 397.647 120.514 397.05C120.84 396.443 121.293 395.977 121.872 395.65C122.46 395.323 123.132 395.16 123.888 395.16C124.616 395.16 125.264 395.319 125.834 395.636C126.403 395.953 126.846 396.401 127.164 396.98C127.481 397.549 127.64 398.207 127.64 398.954ZM125.974 398.45C125.964 397.862 125.754 397.391 125.344 397.036C124.933 396.681 124.424 396.504 123.818 396.504C123.267 396.504 122.796 396.681 122.404 397.036C122.012 397.381 121.778 397.853 121.704 398.45H125.974ZM133.648 393.494L134.278 394.614L132.36 395.328L134.278 396.042L133.634 397.19L132.038 395.93L132.332 397.96H131.044L131.31 395.93L129.714 397.218L129.042 396.028L130.946 395.314L129.042 394.628L129.686 393.48L131.324 394.74L131.044 392.696H132.346L132.038 394.74L133.648 393.494Z" fill="black"/>
<rect x="1" y="415" width="267" height="52" rx="19" fill="white"/>
<rect x="1" y="415" width="267" height="52" rx="19" stroke="#D3D3D3" stroke-width="2"/>
<path d="M39.2499 441C39.2546 442.786 38.6752 444.525 37.5999 445.951C37.5407 446.03 37.4665 446.096 37.3817 446.146C37.2968 446.196 37.2029 446.229 37.1053 446.243C37.0077 446.257 36.9084 446.251 36.8129 446.227C36.7175 446.202 36.6278 446.159 36.549 446.1C36.4702 446.041 36.4038 445.967 36.3537 445.882C36.3036 445.797 36.2706 445.703 36.2568 445.605C36.2429 445.508 36.2485 445.408 36.273 445.313C36.2976 445.218 36.3407 445.128 36.3999 445.049C37.2801 443.883 37.7542 442.461 37.7499 441C37.7499 439.21 37.0388 437.493 35.7729 436.227C34.507 434.961 32.7901 434.25 30.9999 434.25C29.2097 434.25 27.4928 434.961 26.2269 436.227C24.9611 437.493 24.2499 439.21 24.2499 441C24.2499 441.199 24.1709 441.39 24.0302 441.53C23.8896 441.671 23.6988 441.75 23.4999 441.75C23.301 441.75 23.1102 441.671 22.9696 441.53C22.8289 441.39 22.7499 441.199 22.7499 441C22.7495 440.243 22.8533 439.49 23.0584 438.761C22.9562 438.75 22.853 438.75 22.7499 438.75C21.5564 438.75 20.4118 439.224 19.5679 440.068C18.724 440.912 18.2499 442.057 18.2499 443.25C18.2499 444.443 18.724 445.588 19.5679 446.432C20.4118 447.276 21.5564 447.75 22.7499 447.75H24.9999C25.1988 447.75 25.3896 447.829 25.5302 447.97C25.6709 448.11 25.7499 448.301 25.7499 448.5C25.7499 448.699 25.6709 448.89 25.5302 449.03C25.3896 449.171 25.1988 449.25 24.9999 449.25H22.7499C21.9251 449.25 21.1091 449.08 20.3528 448.751C19.5966 448.422 18.9164 447.94 18.3547 447.336C17.793 446.732 17.3619 446.018 17.0883 445.24C16.8147 444.462 16.7044 443.636 16.7644 442.813C16.8245 441.991 17.0535 441.189 17.4371 440.459C17.8208 439.729 18.3509 439.086 18.9943 438.57C19.6378 438.054 20.3807 437.676 21.1767 437.46C21.9727 437.243 22.8048 437.194 23.6209 437.314C24.4518 435.652 25.8196 434.319 27.5026 433.531C29.1856 432.743 31.0852 432.547 32.8938 432.974C34.7024 433.4 36.314 434.425 37.4676 435.881C38.6212 437.338 39.2492 439.142 39.2499 441ZM30.7805 440.469C30.7109 440.4 30.6282 440.344 30.5371 440.307C30.4461 440.269 30.3485 440.249 30.2499 440.249C30.1514 440.249 30.0538 440.269 29.9627 440.307C29.8717 440.344 29.7889 440.4 29.7193 440.469L26.7193 443.469C26.6496 443.539 26.5943 443.622 26.5566 443.713C26.5189 443.804 26.4995 443.901 26.4995 444C26.4995 444.099 26.5189 444.196 26.5566 444.287C26.5943 444.378 26.6496 444.461 26.7193 444.531C26.86 444.671 27.0509 444.75 27.2499 444.75C27.3485 444.75 27.446 444.731 27.5371 444.693C27.6281 444.656 27.7109 444.6 27.7805 444.531L29.4999 442.81V448.5C29.4999 448.699 29.5789 448.89 29.7196 449.03C29.8602 449.171 30.051 449.25 30.2499 449.25C30.4488 449.25 30.6396 449.171 30.7802 449.03C30.9209 448.89 30.9999 448.699 30.9999 448.5V442.81L32.7193 444.531C32.789 444.6 32.8717 444.656 32.9627 444.693C33.0538 444.731 33.1514 444.75 33.2499 444.75C33.3485 444.75 33.446 444.731 33.5371 444.693C33.6281 444.656 33.7109 444.6 33.7805 444.531C33.8502 444.461 33.9055 444.378 33.9432 444.287C33.9809 444.196 34.0003 444.099 34.0003 444C34.0003 443.901 33.9809 443.804 33.9432 443.713C33.9055 443.622 33.8502 443.539 33.7805 443.469L30.7805 440.469Z" fill="#343330"/>
<path d="M49.992 436.636V441.928C49.992 442.672 50.172 443.224 50.532 443.584C50.9 443.944 51.408 444.124 52.056 444.124C52.696 444.124 53.196 443.944 53.556 443.584C53.924 443.224 54.108 442.672 54.108 441.928V436.636H55.2V441.916C55.2 442.612 55.06 443.2 54.78 443.68C54.5 444.152 54.12 444.504 53.64 444.736C53.168 444.968 52.636 445.084 52.044 445.084C51.452 445.084 50.916 444.968 50.436 444.736C49.964 444.504 49.588 444.152 49.308 443.68C49.036 443.2 48.9 442.612 48.9 441.916V436.636H49.992ZM58.1137 439.636C58.3297 439.26 58.6497 438.948 59.0737 438.7C59.5057 438.444 60.0057 438.316 60.5737 438.316C61.1577 438.316 61.6857 438.456 62.1577 438.736C62.6377 439.016 63.0137 439.412 63.2857 439.924C63.5577 440.428 63.6937 441.016 63.6937 441.688C63.6937 442.352 63.5577 442.944 63.2857 443.464C63.0137 443.984 62.6377 444.388 62.1577 444.676C61.6857 444.964 61.1577 445.108 60.5737 445.108C60.0137 445.108 59.5177 444.984 59.0857 444.736C58.6617 444.48 58.3377 444.164 58.1137 443.788V448.12H57.0217V438.424H58.1137V439.636ZM62.5777 441.688C62.5777 441.192 62.4777 440.76 62.2777 440.392C62.0777 440.024 61.8057 439.744 61.4617 439.552C61.1257 439.36 60.7537 439.264 60.3457 439.264C59.9457 439.264 59.5737 439.364 59.2297 439.564C58.8937 439.756 58.6217 440.04 58.4137 440.416C58.2137 440.784 58.1137 441.212 58.1137 441.7C58.1137 442.196 58.2137 442.632 58.4137 443.008C58.6217 443.376 58.8937 443.66 59.2297 443.86C59.5737 444.052 59.9457 444.148 60.3457 444.148C60.7537 444.148 61.1257 444.052 61.4617 443.86C61.8057 443.66 62.0777 443.376 62.2777 443.008C62.4777 442.632 62.5777 442.192 62.5777 441.688ZM66.223 436.12V445H65.131V436.12H66.223ZM70.9522 445.108C70.3362 445.108 69.7762 444.968 69.2722 444.688C68.7762 444.408 68.3842 444.012 68.0962 443.5C67.8162 442.98 67.6762 442.38 67.6762 441.7C67.6762 441.028 67.8202 440.436 68.1082 439.924C68.4042 439.404 68.8042 439.008 69.3082 438.736C69.8122 438.456 70.3762 438.316 71.0002 438.316C71.6242 438.316 72.1882 438.456 72.6922 438.736C73.1962 439.008 73.5922 439.4 73.8802 439.912C74.1762 440.424 74.3242 441.02 74.3242 441.7C74.3242 442.38 74.1722 442.98 73.8682 443.5C73.5722 444.012 73.1682 444.408 72.6562 444.688C72.1442 444.968 71.5762 445.108 70.9522 445.108ZM70.9522 444.148C71.3442 444.148 71.7122 444.056 72.0562 443.872C72.4002 443.688 72.6762 443.412 72.8842 443.044C73.1002 442.676 73.2082 442.228 73.2082 441.7C73.2082 441.172 73.1042 440.724 72.8962 440.356C72.6882 439.988 72.4162 439.716 72.0802 439.54C71.7442 439.356 71.3802 439.264 70.9882 439.264C70.5882 439.264 70.2202 439.356 69.8842 439.54C69.5562 439.716 69.2922 439.988 69.0922 440.356C68.8922 440.724 68.7922 441.172 68.7922 441.7C68.7922 442.236 68.8882 442.688 69.0802 443.056C69.2802 443.424 69.5442 443.7 69.8722 443.884C70.2002 444.06 70.5602 444.148 70.9522 444.148ZM75.3519 441.688C75.3519 441.016 75.4879 440.428 75.7599 439.924C76.0319 439.412 76.4039 439.016 76.8759 438.736C77.3559 438.456 77.8879 438.316 78.4719 438.316C79.0479 438.316 79.5479 438.44 79.9719 438.688C80.3959 438.936 80.7119 439.248 80.9199 439.624V438.424H82.0239V445H80.9199V443.776C80.7039 444.16 80.3799 444.48 79.9479 444.736C79.5239 444.984 79.0279 445.108 78.4599 445.108C77.8759 445.108 77.3479 444.964 76.8759 444.676C76.4039 444.388 76.0319 443.984 75.7599 443.464C75.4879 442.944 75.3519 442.352 75.3519 441.688ZM80.9199 441.7C80.9199 441.204 80.8199 440.772 80.6199 440.404C80.4199 440.036 80.1479 439.756 79.8039 439.564C79.4679 439.364 79.0959 439.264 78.6879 439.264C78.2799 439.264 77.9079 439.36 77.5719 439.552C77.2359 439.744 76.9679 440.024 76.7679 440.392C76.5679 440.76 76.4679 441.192 76.4679 441.688C76.4679 442.192 76.5679 442.632 76.7679 443.008C76.9679 443.376 77.2359 443.66 77.5719 443.86C77.9079 444.052 78.2799 444.148 78.6879 444.148C79.0959 444.148 79.4679 444.052 79.8039 443.86C80.1479 443.66 80.4199 443.376 80.6199 443.008C80.8199 442.632 80.9199 442.196 80.9199 441.7ZM83.4613 441.688C83.4613 441.016 83.5973 440.428 83.8693 439.924C84.1413 439.412 84.5133 439.016 84.9853 438.736C85.4653 438.456 86.0013 438.316 86.5933 438.316C87.1053 438.316 87.5813 438.436 88.0213 438.676C88.4613 438.908 88.7973 439.216 89.0293 439.6V436.12H90.1333V445H89.0293V443.764C88.8133 444.156 88.4933 444.48 88.0693 444.736C87.6453 444.984 87.1493 445.108 86.5813 445.108C85.9973 445.108 85.4653 444.964 84.9853 444.676C84.5133 444.388 84.1413 443.984 83.8693 443.464C83.5973 442.944 83.4613 442.352 83.4613 441.688ZM89.0293 441.7C89.0293 441.204 88.9293 440.772 88.7293 440.404C88.5293 440.036 88.2573 439.756 87.9133 439.564C87.5773 439.364 87.2053 439.264 86.7973 439.264C86.3893 439.264 86.0173 439.36 85.6813 439.552C85.3453 439.744 85.0773 440.024 84.8773 440.392C84.6773 440.76 84.5773 441.192 84.5773 441.688C84.5773 442.192 84.6773 442.632 84.8773 443.008C85.0773 443.376 85.3453 443.66 85.6813 443.86C86.0173 444.052 86.3893 444.148 86.7973 444.148C87.2053 444.148 87.5773 444.052 87.9133 443.86C88.2573 443.66 88.5293 443.376 88.7293 443.008C88.9293 442.632 89.0293 442.196 89.0293 441.7ZM99.9059 436.636V437.524H96.2699V440.344H99.2219V441.232H96.2699V445H95.1779V436.636H99.9059ZM101.789 437.356C101.581 437.356 101.405 437.284 101.261 437.14C101.117 436.996 101.045 436.82 101.045 436.612C101.045 436.404 101.117 436.228 101.261 436.084C101.405 435.94 101.581 435.868 101.789 435.868C101.989 435.868 102.157 435.94 102.293 436.084C102.437 436.228 102.509 436.404 102.509 436.612C102.509 436.82 102.437 436.996 102.293 437.14C102.157 437.284 101.989 437.356 101.789 437.356ZM102.317 438.424V445H101.225V438.424H102.317ZM105.27 436.12V445H104.178V436.12H105.27ZM113.131 441.46C113.131 441.668 113.119 441.888 113.095 442.12H107.839C107.879 442.768 108.099 443.276 108.499 443.644C108.907 444.004 109.399 444.184 109.975 444.184C110.447 444.184 110.839 444.076 111.151 443.86C111.471 443.636 111.695 443.34 111.823 442.972H112.999C112.823 443.604 112.471 444.12 111.943 444.52C111.415 444.912 110.759 445.108 109.975 445.108C109.351 445.108 108.791 444.968 108.295 444.688C107.807 444.408 107.423 444.012 107.143 443.5C106.863 442.98 106.723 442.38 106.723 441.7C106.723 441.02 106.859 440.424 107.131 439.912C107.403 439.4 107.783 439.008 108.271 438.736C108.767 438.456 109.335 438.316 109.975 438.316C110.599 438.316 111.151 438.452 111.631 438.724C112.111 438.996 112.479 439.372 112.735 439.852C112.999 440.324 113.131 440.86 113.131 441.46ZM112.003 441.232C112.003 440.816 111.911 440.46 111.727 440.164C111.543 439.86 111.291 439.632 110.971 439.48C110.659 439.32 110.311 439.24 109.927 439.24C109.375 439.24 108.903 439.416 108.511 439.768C108.127 440.12 107.907 440.608 107.851 441.232H112.003ZM120.58 447.232C119.812 446.48 119.212 445.524 118.78 444.364C118.356 443.204 118.144 441.952 118.144 440.608C118.144 439.232 118.368 437.948 118.816 436.756C119.272 435.556 119.92 434.568 120.76 433.792H121.9V433.9C121.004 434.74 120.328 435.752 119.872 436.936C119.424 438.112 119.2 439.336 119.2 440.608C119.2 441.848 119.412 443.032 119.836 444.16C120.268 445.288 120.896 446.276 121.72 447.124V447.232H120.58ZM131.129 438.304C131.641 438.304 132.097 438.412 132.497 438.628C132.897 438.836 133.213 439.152 133.445 439.576C133.677 440 133.793 440.516 133.793 441.124V445H132.713V441.28C132.713 440.624 132.549 440.124 132.221 439.78C131.901 439.428 131.465 439.252 130.913 439.252C130.345 439.252 129.893 439.436 129.557 439.804C129.221 440.164 129.053 440.688 129.053 441.376V445H127.973V441.28C127.973 440.624 127.809 440.124 127.481 439.78C127.161 439.428 126.725 439.252 126.173 439.252C125.605 439.252 125.153 439.436 124.817 439.804C124.481 440.164 124.313 440.688 124.313 441.376V445H123.221V438.424H124.313V439.372C124.529 439.028 124.817 438.764 125.177 438.58C125.545 438.396 125.949 438.304 126.389 438.304C126.941 438.304 127.429 438.428 127.853 438.676C128.277 438.924 128.593 439.288 128.801 439.768C128.985 439.304 129.289 438.944 129.713 438.688C130.137 438.432 130.609 438.304 131.129 438.304ZM135.176 441.688C135.176 441.016 135.312 440.428 135.584 439.924C135.856 439.412 136.228 439.016 136.7 438.736C137.18 438.456 137.712 438.316 138.296 438.316C138.872 438.316 139.372 438.44 139.796 438.688C140.22 438.936 140.536 439.248 140.744 439.624V438.424H141.848V445H140.744V443.776C140.528 444.16 140.204 444.48 139.772 444.736C139.348 444.984 138.852 445.108 138.284 445.108C137.7 445.108 137.172 444.964 136.7 444.676C136.228 444.388 135.856 443.984 135.584 443.464C135.312 442.944 135.176 442.352 135.176 441.688ZM140.744 441.7C140.744 441.204 140.644 440.772 140.444 440.404C140.244 440.036 139.972 439.756 139.628 439.564C139.292 439.364 138.92 439.264 138.512 439.264C138.104 439.264 137.732 439.36 137.396 439.552C137.06 439.744 136.792 440.024 136.592 440.392C136.392 440.76 136.292 441.192 136.292 441.688C136.292 442.192 136.392 442.632 136.592 443.008C136.792 443.376 137.06 443.66 137.396 443.86C137.732 444.052 138.104 444.148 138.512 444.148C138.92 444.148 139.292 444.052 139.628 443.86C139.972 443.66 140.244 443.376 140.444 443.008C140.644 442.632 140.744 442.196 140.744 441.7ZM147.126 445L145.566 442.552L144.066 445H142.926L145.05 441.736L142.926 438.424H144.162L145.722 440.86L147.21 438.424H148.35L146.238 441.676L148.362 445H147.126ZM155.311 439.324H153.931V445H152.839V439.324H151.987V438.424H152.839V437.956C152.839 437.22 153.027 436.684 153.403 436.348C153.787 436.004 154.399 435.832 155.239 435.832V436.744C154.759 436.744 154.419 436.84 154.219 437.032C154.027 437.216 153.931 437.524 153.931 437.956V438.424H155.311V439.324ZM157.148 437.356C156.94 437.356 156.764 437.284 156.62 437.14C156.476 436.996 156.404 436.82 156.404 436.612C156.404 436.404 156.476 436.228 156.62 436.084C156.764 435.94 156.94 435.868 157.148 435.868C157.348 435.868 157.516 435.94 157.652 436.084C157.796 436.228 157.868 436.404 157.868 436.612C157.868 436.82 157.796 436.996 157.652 437.14C157.516 437.284 157.348 437.356 157.148 437.356ZM157.676 438.424V445H156.584V438.424H157.676ZM160.629 436.12V445H159.537V436.12H160.629ZM168.49 441.46C168.49 441.668 168.478 441.888 168.454 442.12H163.198C163.238 442.768 163.458 443.276 163.858 443.644C164.266 444.004 164.758 444.184 165.334 444.184C165.806 444.184 166.198 444.076 166.51 443.86C166.83 443.636 167.054 443.34 167.182 442.972H168.358C168.182 443.604 167.83 444.12 167.302 444.52C166.774 444.912 166.118 445.108 165.334 445.108C164.71 445.108 164.15 444.968 163.654 444.688C163.166 444.408 162.782 444.012 162.502 443.5C162.222 442.98 162.082 442.38 162.082 441.7C162.082 441.02 162.218 440.424 162.49 439.912C162.762 439.4 163.142 439.008 163.63 438.736C164.126 438.456 164.694 438.316 165.334 438.316C165.958 438.316 166.51 438.452 166.99 438.724C167.47 438.996 167.838 439.372 168.094 439.852C168.358 440.324 168.49 440.86 168.49 441.46ZM167.362 441.232C167.362 440.816 167.27 440.46 167.086 440.164C166.902 439.86 166.65 439.632 166.33 439.48C166.018 439.32 165.67 439.24 165.286 439.24C164.734 439.24 164.262 439.416 163.87 439.768C163.486 440.12 163.266 440.608 163.21 441.232H167.362ZM175.459 445.108C174.955 445.108 174.503 445.024 174.103 444.856C173.703 444.68 173.387 444.44 173.155 444.136C172.923 443.824 172.795 443.468 172.771 443.068H173.899C173.931 443.396 174.083 443.664 174.355 443.872C174.635 444.08 174.999 444.184 175.447 444.184C175.863 444.184 176.191 444.092 176.431 443.908C176.671 443.724 176.791 443.492 176.791 443.212C176.791 442.924 176.663 442.712 176.407 442.576C176.151 442.432 175.755 442.292 175.219 442.156C174.731 442.028 174.331 441.9 174.019 441.772C173.715 441.636 173.451 441.44 173.227 441.184C173.011 440.92 172.903 440.576 172.903 440.152C172.903 439.816 173.003 439.508 173.203 439.228C173.403 438.948 173.687 438.728 174.055 438.568C174.423 438.4 174.843 438.316 175.315 438.316C176.043 438.316 176.631 438.5 177.079 438.868C177.527 439.236 177.767 439.74 177.799 440.38H176.707C176.683 440.036 176.543 439.76 176.287 439.552C176.039 439.344 175.703 439.24 175.279 439.24C174.887 439.24 174.575 439.324 174.343 439.492C174.111 439.66 173.995 439.88 173.995 440.152C173.995 440.368 174.063 440.548 174.199 440.692C174.343 440.828 174.519 440.94 174.727 441.028C174.943 441.108 175.239 441.2 175.615 441.304C176.087 441.432 176.471 441.56 176.767 441.688C177.063 441.808 177.315 441.992 177.523 442.24C177.739 442.488 177.851 442.812 177.859 443.212C177.859 443.572 177.759 443.896 177.559 444.184C177.359 444.472 177.075 444.7 176.707 444.868C176.347 445.028 175.931 445.108 175.459 445.108ZM179.965 437.356C179.757 437.356 179.581 437.284 179.437 437.14C179.293 436.996 179.221 436.82 179.221 436.612C179.221 436.404 179.293 436.228 179.437 436.084C179.581 435.94 179.757 435.868 179.965 435.868C180.165 435.868 180.333 435.94 180.469 436.084C180.613 436.228 180.685 436.404 180.685 436.612C180.685 436.82 180.613 436.996 180.469 437.14C180.333 437.284 180.165 437.356 179.965 437.356ZM180.493 438.424V445H179.401V438.424H180.493ZM183.17 444.1H186.398V445H181.922V444.1L185.114 439.312H181.946V438.424H186.374V439.312L183.17 444.1ZM193.815 441.46C193.815 441.668 193.803 441.888 193.779 442.12H188.523C188.563 442.768 188.783 443.276 189.183 443.644C189.591 444.004 190.083 444.184 190.659 444.184C191.131 444.184 191.523 444.076 191.835 443.86C192.155 443.636 192.379 443.34 192.507 442.972H193.683C193.507 443.604 193.155 444.12 192.627 444.52C192.099 444.912 191.443 445.108 190.659 445.108C190.035 445.108 189.475 444.968 188.979 444.688C188.491 444.408 188.107 444.012 187.827 443.5C187.547 442.98 187.407 442.38 187.407 441.7C187.407 441.02 187.543 440.424 187.815 439.912C188.087 439.4 188.467 439.008 188.955 438.736C189.451 438.456 190.019 438.316 190.659 438.316C191.283 438.316 191.835 438.452 192.315 438.724C192.795 438.996 193.163 439.372 193.419 439.852C193.683 440.324 193.815 440.86 193.815 441.46ZM192.687 441.232C192.687 440.816 192.595 440.46 192.411 440.164C192.227 439.86 191.975 439.632 191.655 439.48C191.343 439.32 190.995 439.24 190.611 439.24C190.059 439.24 189.587 439.416 189.195 439.768C188.811 440.12 188.591 440.608 188.535 441.232H192.687ZM197.987 437.32V436.324H200.243V445H199.139V437.32H197.987ZM202.119 440.572C202.119 439.196 202.343 438.124 202.791 437.356C203.239 436.58 204.023 436.192 205.143 436.192C206.255 436.192 207.035 436.58 207.483 437.356C207.931 438.124 208.155 439.196 208.155 440.572C208.155 441.972 207.931 443.06 207.483 443.836C207.035 444.612 206.255 445 205.143 445C204.023 445 203.239 444.612 202.791 443.836C202.343 443.06 202.119 441.972 202.119 440.572ZM207.075 440.572C207.075 439.876 207.027 439.288 206.931 438.808C206.843 438.32 206.655 437.928 206.367 437.632C206.087 437.336 205.679 437.188 205.143 437.188C204.599 437.188 204.183 437.336 203.895 437.632C203.615 437.928 203.427 438.32 203.331 438.808C203.243 439.288 203.199 439.876 203.199 440.572C203.199 441.292 203.243 441.896 203.331 442.384C203.427 442.872 203.615 443.264 203.895 443.56C204.183 443.856 204.599 444.004 205.143 444.004C205.679 444.004 206.087 443.856 206.367 443.56C206.655 443.264 206.843 442.872 206.931 442.384C207.027 441.896 207.075 441.292 207.075 440.572ZM217.742 438.304C218.254 438.304 218.71 438.412 219.11 438.628C219.51 438.836 219.826 439.152 220.058 439.576C220.29 440 220.406 440.516 220.406 441.124V445H219.326V441.28C219.326 440.624 219.162 440.124 218.834 439.78C218.514 439.428 218.078 439.252 217.526 439.252C216.958 439.252 216.506 439.436 216.17 439.804C215.834 440.164 215.666 440.688 215.666 441.376V445H214.586V441.28C214.586 440.624 214.422 440.124 214.094 439.78C213.774 439.428 213.338 439.252 212.786 439.252C212.218 439.252 211.766 439.436 211.43 439.804C211.094 440.164 210.926 440.688 210.926 441.376V445H209.834V438.424H210.926V439.372C211.142 439.028 211.43 438.764 211.79 438.58C212.158 438.396 212.562 438.304 213.002 438.304C213.554 438.304 214.042 438.428 214.466 438.676C214.89 438.924 215.206 439.288 215.414 439.768C215.598 439.304 215.902 438.944 216.326 438.688C216.75 438.432 217.222 438.304 217.742 438.304ZM223.289 439.648C223.513 439.256 223.841 438.936 224.273 438.688C224.705 438.44 225.197 438.316 225.749 438.316C226.341 438.316 226.873 438.456 227.345 438.736C227.817 439.016 228.189 439.412 228.461 439.924C228.733 440.428 228.869 441.016 228.869 441.688C228.869 442.352 228.733 442.944 228.461 443.464C228.189 443.984 227.813 444.388 227.333 444.676C226.861 444.964 226.333 445.108 225.749 445.108C225.181 445.108 224.681 444.984 224.249 444.736C223.825 444.488 223.505 444.172 223.289 443.788V445H222.197V436.12H223.289V439.648ZM227.753 441.688C227.753 441.192 227.653 440.76 227.453 440.392C227.253 440.024 226.981 439.744 226.637 439.552C226.301 439.36 225.929 439.264 225.521 439.264C225.121 439.264 224.749 439.364 224.405 439.564C224.069 439.756 223.797 440.04 223.589 440.416C223.389 440.784 223.289 441.212 223.289 441.7C223.289 442.196 223.389 442.632 223.589 443.008C223.797 443.376 224.069 443.66 224.405 443.86C224.749 444.052 225.121 444.148 225.521 444.148C225.929 444.148 226.301 444.052 226.637 443.86C226.981 443.66 227.253 443.376 227.453 443.008C227.653 442.632 227.753 442.192 227.753 441.688ZM229.959 447.232V447.124C230.783 446.276 231.407 445.288 231.831 444.16C232.263 443.032 232.479 441.848 232.479 440.608C232.479 439.336 232.251 438.112 231.795 436.936C231.347 435.752 230.675 434.74 229.779 433.9V433.792H230.919C231.759 434.568 232.403 435.556 232.851 436.756C233.307 437.948 233.535 439.232 233.535 440.608C233.535 441.952 233.319 443.204 232.887 444.364C232.463 445.524 231.867 446.48 231.099 447.232H229.959Z" fill="black"/>
<g clip-path="url(#clip0_31_771)">
<path d="M11 516C11 516.265 11.1054 516.52 11.2929 516.707C11.4804 516.895 11.7348 517 12 517C12.2652 517 12.5196 516.895 12.7071 516.707C12.8946 516.52 13 516.265 13 516V509H20C20.2652 509 20.5196 508.895 20.7071 508.707C20.8946 508.52 21 508.265 21 508C21 507.735 20.8946 507.48 20.7071 507.293C20.5196 507.105 20.2652 507 20 507H13V500C13 499.735 12.8946 499.48 12.7071 499.293C12.5196 499.105 12.2652 499 12 499C11.7348 499 11.4804 499.105 11.2929 499.293C11.1054 499.48 11 499.735 11 500V507H4C3.73478 507 3.48043 507.105 3.29289 507.293C3.10536 507.48 3 507.735 3 508C3 508.265 3.10536 508.52 3.29289 508.707C3.48043 508.895 3.73478 509 4 509H11V516Z" fill="#191919"/>
</g>
<path d="M33.868 510.14H30.22L29.548 512H28.396L31.42 503.684H32.68L35.692 512H34.54L33.868 510.14ZM33.556 509.252L32.044 505.028L30.532 509.252H33.556ZM36.6019 508.688C36.6019 508.016 36.7379 507.428 37.0099 506.924C37.2819 506.412 37.6539 506.016 38.1259 505.736C38.6059 505.456 39.1419 505.316 39.7339 505.316C40.2459 505.316 40.7219 505.436 41.1619 505.676C41.6019 505.908 41.9379 506.216 42.1699 506.6V503.12H43.2739V512H42.1699V510.764C41.9539 511.156 41.6339 511.48 41.2099 511.736C40.7859 511.984 40.2899 512.108 39.7219 512.108C39.1379 512.108 38.6059 511.964 38.1259 511.676C37.6539 511.388 37.2819 510.984 37.0099 510.464C36.7379 509.944 36.6019 509.352 36.6019 508.688ZM42.1699 508.7C42.1699 508.204 42.0699 507.772 41.8699 507.404C41.6699 507.036 41.3979 506.756 41.0539 506.564C40.7179 506.364 40.3459 506.264 39.9379 506.264C39.5299 506.264 39.1579 506.36 38.8219 506.552C38.4859 506.744 38.2179 507.024 38.0179 507.392C37.8179 507.76 37.7179 508.192 37.7179 508.688C37.7179 509.192 37.8179 509.632 38.0179 510.008C38.2179 510.376 38.4859 510.66 38.8219 510.86C39.1579 511.052 39.5299 511.148 39.9379 511.148C40.3459 511.148 40.7179 511.052 41.0539 510.86C41.3979 510.66 41.6699 510.376 41.8699 510.008C42.0699 509.632 42.1699 509.196 42.1699 508.7ZM44.7113 508.688C44.7113 508.016 44.8473 507.428 45.1193 506.924C45.3913 506.412 45.7633 506.016 46.2353 505.736C46.7153 505.456 47.2513 505.316 47.8433 505.316C48.3553 505.316 48.8313 505.436 49.2713 505.676C49.7113 505.908 50.0473 506.216 50.2793 506.6V503.12H51.3833V512H50.2793V510.764C50.0633 511.156 49.7433 511.48 49.3193 511.736C48.8953 511.984 48.3993 512.108 47.8313 512.108C47.2473 512.108 46.7153 511.964 46.2353 511.676C45.7633 511.388 45.3913 510.984 45.1193 510.464C44.8473 509.944 44.7113 509.352 44.7113 508.688ZM50.2793 508.7C50.2793 508.204 50.1793 507.772 49.9793 507.404C49.7793 507.036 49.5073 506.756 49.1633 506.564C48.8273 506.364 48.4553 506.264 48.0473 506.264C47.6393 506.264 47.2673 506.36 46.9313 506.552C46.5953 506.744 46.3273 507.024 46.1273 507.392C45.9273 507.76 45.8273 508.192 45.8273 508.688C45.8273 509.192 45.9273 509.632 46.1273 510.008C46.3273 510.376 46.5953 510.66 46.9313 510.86C47.2673 511.052 47.6393 511.148 48.0473 511.148C48.4553 511.148 48.8273 511.052 49.1633 510.86C49.5073 510.66 49.7793 510.376 49.9793 510.008C50.1793 509.632 50.2793 509.196 50.2793 508.7ZM62.4279 508.46C62.4279 508.668 62.4159 508.888 62.3919 509.12H57.1359C57.1759 509.768 57.3959 510.276 57.7959 510.644C58.2039 511.004 58.6959 511.184 59.2719 511.184C59.7439 511.184 60.1359 511.076 60.4479 510.86C60.7679 510.636 60.9919 510.34 61.1199 509.972H62.2959C62.1199 510.604 61.7679 511.12 61.2399 511.52C60.7119 511.912 60.0559 512.108 59.2719 512.108C58.6479 512.108 58.0879 511.968 57.5919 511.688C57.1039 511.408 56.7199 511.012 56.4399 510.5C56.1599 509.98 56.0199 509.38 56.0199 508.7C56.0199 508.02 56.1559 507.424 56.4279 506.912C56.6999 506.4 57.0799 506.008 57.5679 505.736C58.0639 505.456 58.6319 505.316 59.2719 505.316C59.8959 505.316 60.4479 505.452 60.9279 505.724C61.4079 505.996 61.7759 506.372 62.0319 506.852C62.2959 507.324 62.4279 507.86 62.4279 508.46ZM61.2999 508.232C61.2999 507.816 61.2079 507.46 61.0239 507.164C60.8399 506.86 60.5879 506.632 60.2679 506.48C59.9559 506.32 59.6079 506.24 59.2239 506.24C58.6719 506.24 58.1999 506.416 57.8079 506.768C57.4239 507.12 57.2039 507.608 57.1479 508.232H61.2999ZM63.4613 508.688C63.4613 508.016 63.5973 507.428 63.8693 506.924C64.1413 506.412 64.5133 506.016 64.9853 505.736C65.4653 505.456 66.0013 505.316 66.5933 505.316C67.1053 505.316 67.5813 505.436 68.0213 505.676C68.4613 505.908 68.7973 506.216 69.0293 506.6V503.12H70.1333V512H69.0293V510.764C68.8133 511.156 68.4933 511.48 68.0693 511.736C67.6453 511.984 67.1493 512.108 66.5813 512.108C65.9973 512.108 65.4653 511.964 64.9853 511.676C64.5133 511.388 64.1413 510.984 63.8693 510.464C63.5973 509.944 63.4613 509.352 63.4613 508.688ZM69.0293 508.7C69.0293 508.204 68.9293 507.772 68.7293 507.404C68.5293 507.036 68.2573 506.756 67.9133 506.564C67.5773 506.364 67.2053 506.264 66.7973 506.264C66.3893 506.264 66.0173 506.36 65.6813 506.552C65.3453 506.744 65.0773 507.024 64.8773 507.392C64.6773 507.76 64.5773 508.192 64.5773 508.688C64.5773 509.192 64.6773 509.632 64.8773 510.008C65.0773 510.376 65.3453 510.66 65.6813 510.86C66.0173 511.052 66.3893 511.148 66.7973 511.148C67.2053 511.148 67.5773 511.052 67.9133 510.86C68.2573 510.66 68.5293 510.376 68.7293 510.008C68.9293 509.632 69.0293 509.196 69.0293 508.7ZM77.8107 505.424V512H76.7187V511.028C76.5107 511.364 76.2187 511.628 75.8427 511.82C75.4747 512.004 75.0667 512.096 74.6187 512.096C74.1067 512.096 73.6467 511.992 73.2387 511.784C72.8307 511.568 72.5067 511.248 72.2667 510.824C72.0347 510.4 71.9187 509.884 71.9187 509.276V505.424H72.9987V509.132C72.9987 509.78 73.1627 510.28 73.4907 510.632C73.8187 510.976 74.2667 511.148 74.8347 511.148C75.4187 511.148 75.8787 510.968 76.2147 510.608C76.5507 510.248 76.7187 509.724 76.7187 509.036V505.424H77.8107ZM79.2465 508.7C79.2465 508.02 79.3825 507.428 79.6545 506.924C79.9265 506.412 80.3025 506.016 80.7825 505.736C81.2705 505.456 81.8265 505.316 82.4505 505.316C83.2585 505.316 83.9225 505.512 84.4425 505.904C84.9705 506.296 85.3185 506.84 85.4865 507.536H84.3105C84.1985 507.136 83.9785 506.82 83.6505 506.588C83.3305 506.356 82.9305 506.24 82.4505 506.24C81.8265 506.24 81.3225 506.456 80.9385 506.888C80.5545 507.312 80.3625 507.916 80.3625 508.7C80.3625 509.492 80.5545 510.104 80.9385 510.536C81.3225 510.968 81.8265 511.184 82.4505 511.184C82.9305 511.184 83.3305 511.072 83.6505 510.848C83.9705 510.624 84.1905 510.304 84.3105 509.888H85.4865C85.3105 510.56 84.9585 511.1 84.4305 511.508C83.9025 511.908 83.2425 512.108 82.4505 512.108C81.8265 512.108 81.2705 511.968 80.7825 511.688C80.3025 511.408 79.9265 511.012 79.6545 510.5C79.3825 509.988 79.2465 509.388 79.2465 508.7ZM86.5355 508.688C86.5355 508.016 86.6715 507.428 86.9435 506.924C87.2155 506.412 87.5875 506.016 88.0595 505.736C88.5395 505.456 89.0715 505.316 89.6555 505.316C90.2315 505.316 90.7315 505.44 91.1555 505.688C91.5795 505.936 91.8955 506.248 92.1035 506.624V505.424H93.2075V512H92.1035V510.776C91.8875 511.16 91.5635 511.48 91.1315 511.736C90.7075 511.984 90.2115 512.108 89.6435 512.108C89.0595 512.108 88.5315 511.964 88.0595 511.676C87.5875 511.388 87.2155 510.984 86.9435 510.464C86.6715 509.944 86.5355 509.352 86.5355 508.688ZM92.1035 508.7C92.1035 508.204 92.0035 507.772 91.8035 507.404C91.6035 507.036 91.3315 506.756 90.9875 506.564C90.6515 506.364 90.2795 506.264 89.8715 506.264C89.4635 506.264 89.0915 506.36 88.7555 506.552C88.4195 506.744 88.1515 507.024 87.9515 507.392C87.7515 507.76 87.6515 508.192 87.6515 508.688C87.6515 509.192 87.7515 509.632 87.9515 510.008C88.1515 510.376 88.4195 510.66 88.7555 510.86C89.0915 511.052 89.4635 511.148 89.8715 511.148C90.2795 511.148 90.6515 511.052 90.9875 510.86C91.3315 510.66 91.6035 510.376 91.8035 510.008C92.0035 509.632 92.1035 509.196 92.1035 508.7ZM96.3849 506.324V510.2C96.3849 510.52 96.4529 510.748 96.5889 510.884C96.7249 511.012 96.9609 511.076 97.2969 511.076H98.1009V512H97.1169C96.5089 512 96.0529 511.86 95.7489 511.58C95.4449 511.3 95.2929 510.84 95.2929 510.2V506.324H94.4409V505.424H95.2929V503.768H96.3849V505.424H98.1009V506.324H96.3849ZM99.988 504.356C99.78 504.356 99.604 504.284 99.46 504.14C99.316 503.996 99.244 503.82 99.244 503.612C99.244 503.404 99.316 503.228 99.46 503.084C99.604 502.94 99.78 502.868 99.988 502.868C100.188 502.868 100.356 502.94 100.492 503.084C100.636 503.228 100.708 503.404 100.708 503.612C100.708 503.82 100.636 503.996 100.492 504.14C100.356 504.284 100.188 504.356 99.988 504.356ZM100.516 505.424V512H99.424V505.424H100.516ZM105.245 512.108C104.629 512.108 104.069 511.968 103.565 511.688C103.069 511.408 102.677 511.012 102.389 510.5C102.109 509.98 101.969 509.38 101.969 508.7C101.969 508.028 102.113 507.436 102.401 506.924C102.697 506.404 103.097 506.008 103.601 505.736C104.105 505.456 104.669 505.316 105.293 505.316C105.917 505.316 106.481 505.456 106.985 505.736C107.489 506.008 107.885 506.4 108.173 506.912C108.469 507.424 108.617 508.02 108.617 508.7C108.617 509.38 108.465 509.98 108.161 510.5C107.865 511.012 107.461 511.408 106.949 511.688C106.437 511.968 105.869 512.108 105.245 512.108ZM105.245 511.148C105.637 511.148 106.005 511.056 106.349 510.872C106.693 510.688 106.969 510.412 107.177 510.044C107.393 509.676 107.501 509.228 107.501 508.7C107.501 508.172 107.397 507.724 107.189 507.356C106.981 506.988 106.709 506.716 106.373 506.54C106.037 506.356 105.673 506.264 105.281 506.264C104.881 506.264 104.513 506.356 104.177 506.54C103.849 506.716 103.585 506.988 103.385 507.356C103.185 507.724 103.085 508.172 103.085 508.7C103.085 509.236 103.181 509.688 103.373 510.056C103.573 510.424 103.837 510.7 104.165 510.884C104.493 511.06 104.853 511.148 105.245 511.148ZM113.257 505.304C114.057 505.304 114.705 505.548 115.201 506.036C115.697 506.516 115.945 507.212 115.945 508.124V512H114.865V508.28C114.865 507.624 114.701 507.124 114.373 506.78C114.045 506.428 113.597 506.252 113.029 506.252C112.453 506.252 111.993 506.432 111.649 506.792C111.313 507.152 111.145 507.676 111.145 508.364V512H110.053V505.424H111.145V506.36C111.361 506.024 111.653 505.764 112.021 505.58C112.397 505.396 112.809 505.304 113.257 505.304Z" fill="black"/>
<rect x="632" y="532" width="97" height="48" rx="20" fill="#023382"/>
<path d="M672.656 562H670.416L665.344 554.336V562H663.104V550.816H665.344L670.416 558.496V550.816H672.656V562ZM683.11 557.376C683.11 557.696 683.088 557.984 683.046 558.24H676.566C676.619 558.88 676.843 559.381 677.238 559.744C677.632 560.107 678.118 560.288 678.694 560.288C679.526 560.288 680.118 559.931 680.47 559.216H682.886C682.63 560.069 682.139 560.773 681.414 561.328C680.688 561.872 679.798 562.144 678.742 562.144C677.888 562.144 677.12 561.957 676.438 561.584C675.766 561.2 675.238 560.661 674.854 559.968C674.48 559.275 674.294 558.475 674.294 557.568C674.294 556.651 674.48 555.845 674.854 555.152C675.227 554.459 675.75 553.925 676.422 553.552C677.094 553.179 677.867 552.992 678.742 552.992C679.584 552.992 680.336 553.173 680.998 553.536C681.67 553.899 682.187 554.416 682.55 555.088C682.923 555.749 683.11 556.512 683.11 557.376ZM680.79 556.736C680.779 556.16 680.571 555.701 680.166 555.36C679.76 555.008 679.264 554.832 678.678 554.832C678.123 554.832 677.654 555.003 677.27 555.344C676.896 555.675 676.667 556.139 676.582 556.736H680.79ZM689.641 562L687.817 559.248L686.201 562H683.801L686.697 557.552L683.769 553.136H686.297L688.105 555.872L689.737 553.136H692.137L689.225 557.552L692.169 562H689.641ZM695.993 554.976V559.264C695.993 559.563 696.063 559.781 696.201 559.92C696.351 560.048 696.596 560.112 696.937 560.112H697.977V562H696.569C694.681 562 693.737 561.083 693.737 559.248V554.976H692.681V553.136H693.737V550.944H695.993V553.136H697.977V554.976H695.993Z" fill="white"/>
<defs>
<clipPath id="clip0_31_771">
<rect width="24" height="24" fill="white" transform="translate(0 496)"/>
</clipPath>
</defs>
</svg>
