<svg width="88" height="16" viewBox="0 0 88 16" fill="none" xmlns="http://www.w3.org/2000/svg">
<path d="M9.35 2.31351L10.4735 4.46851C10.5571 4.62714 10.677 4.76372 10.8236 4.86706C10.9701 4.97039 11.139 5.03754 11.3165 5.06301L13.6895 5.38801C14.9585 5.56301 15.4505 7.12751 14.512 7.99751L12.887 9.49701C12.7485 9.62428 12.6445 9.78461 12.5848 9.96299C12.5251 10.1414 12.5115 10.332 12.5455 10.517L12.942 12.716C13.1625 13.941 11.888 14.896 10.7695 14.336L8.5015 13.211C8.34536 13.1346 8.17383 13.0949 8 13.0949C7.82617 13.0949 7.65463 13.1346 7.4985 13.211L5.2305 14.336C4.1115 14.891 2.8375 13.941 3.058 12.716L3.4545 10.5165C3.5245 10.1415 3.3945 9.75651 3.1135 9.49651L1.488 7.99751C0.549496 7.13251 1.0415 5.56251 2.3105 5.38751L4.6835 5.06251C4.8615 5.03863 5.03111 4.97211 5.17788 4.8686C5.32465 4.7651 5.44425 4.62767 5.5265 4.46801L6.6505 2.31351C7.2225 1.22851 8.7825 1.22851 9.3495 2.31351H9.35Z" fill="#FCD53F"/>
<path d="M27.35 2.31351L28.4735 4.46851C28.5571 4.62714 28.677 4.76372 28.8236 4.86706C28.9701 4.97039 29.139 5.03754 29.3165 5.06301L31.6895 5.38801C32.9585 5.56301 33.4505 7.12751 32.512 7.99751L30.887 9.49701C30.7485 9.62428 30.6445 9.78461 30.5848 9.96299C30.5251 10.1414 30.5115 10.332 30.5455 10.517L30.942 12.716C31.1625 13.941 29.888 14.896 28.7695 14.336L26.5015 13.211C26.3454 13.1346 26.1738 13.0949 26 13.0949C25.8262 13.0949 25.6546 13.1346 25.4985 13.211L23.2305 14.336C22.1115 14.891 20.8375 13.941 21.058 12.716L21.4545 10.5165C21.5245 10.1415 21.3945 9.75651 21.1135 9.49651L19.488 7.99751C18.5495 7.13251 19.0415 5.56251 20.3105 5.38751L22.6835 5.06251C22.8615 5.03863 23.0311 4.97211 23.1779 4.8686C23.3247 4.7651 23.4443 4.62767 23.5265 4.46801L24.6505 2.31351C25.2225 1.22851 26.7825 1.22851 27.3495 2.31351H27.35Z" fill="#FCD53F"/>
<path d="M45.35 2.31351L46.4735 4.46851C46.5571 4.62714 46.677 4.76372 46.8236 4.86706C46.9701 4.97039 47.139 5.03754 47.3165 5.06301L49.6895 5.38801C50.9585 5.56301 51.4505 7.12751 50.512 7.99751L48.887 9.49701C48.7485 9.62428 48.6445 9.78461 48.5848 9.96299C48.5251 10.1414 48.5115 10.332 48.5455 10.517L48.942 12.716C49.1625 13.941 47.888 14.896 46.7695 14.336L44.5015 13.211C44.3454 13.1346 44.1738 13.0949 44 13.0949C43.8262 13.0949 43.6546 13.1346 43.4985 13.211L41.2305 14.336C40.1115 14.891 38.8375 13.941 39.058 12.716L39.4545 10.5165C39.5245 10.1415 39.3945 9.75651 39.1135 9.49651L37.488 7.99751C36.5495 7.13251 37.0415 5.56251 38.3105 5.38751L40.6835 5.06251C40.8615 5.03863 41.0311 4.97211 41.1779 4.8686C41.3247 4.7651 41.4443 4.62767 41.5265 4.46801L42.6505 2.31351C43.2225 1.22851 44.7825 1.22851 45.3495 2.31351H45.35Z" fill="#FCD53F"/>
<path d="M63.35 2.31351L64.4735 4.46851C64.5571 4.62714 64.677 4.76372 64.8236 4.86706C64.9701 4.97039 65.139 5.03754 65.3165 5.06301L67.6895 5.38801C68.9585 5.56301 69.4505 7.12751 68.512 7.99751L66.887 9.49701C66.7485 9.62428 66.6445 9.78461 66.5848 9.96299C66.5251 10.1414 66.5115 10.332 66.5455 10.517L66.942 12.716C67.1625 13.941 65.888 14.896 64.7695 14.336L62.5015 13.211C62.3454 13.1346 62.1738 13.0949 62 13.0949C61.8262 13.0949 61.6546 13.1346 61.4985 13.211L59.2305 14.336C58.1115 14.891 56.8375 13.941 57.058 12.716L57.4545 10.5165C57.5245 10.1415 57.3945 9.75651 57.1135 9.49651L55.488 7.99751C54.5495 7.13251 55.0415 5.56251 56.3105 5.38751L58.6835 5.06251C58.8615 5.03863 59.0311 4.97211 59.1779 4.8686C59.3247 4.7651 59.4443 4.62767 59.5265 4.46801L60.6505 2.31351C61.2225 1.22851 62.7825 1.22851 63.3495 2.31351H63.35Z" fill="#FCD53F"/>
<path d="M81.35 2.31351L82.4735 4.46851C82.5571 4.62714 82.677 4.76372 82.8236 4.86706C82.9701 4.97039 83.139 5.03754 83.3165 5.06301L85.6895 5.38801C86.9585 5.56301 87.4505 7.12751 86.512 7.99751L84.887 9.49701C84.7485 9.62428 84.6445 9.78461 84.5848 9.96299C84.5251 10.1414 84.5115 10.332 84.5455 10.517L84.942 12.716C85.1625 13.941 83.888 14.896 82.7695 14.336L80.5015 13.211C80.3454 13.1346 80.1738 13.0949 80 13.0949C79.8262 13.0949 79.6546 13.1346 79.4985 13.211L77.2305 14.336C76.1115 14.891 74.8375 13.941 75.058 12.716L75.4545 10.5165C75.5245 10.1415 75.3945 9.75651 75.1135 9.49651L73.488 7.99751C72.5495 7.13251 73.0415 5.56251 74.3105 5.38751L76.6835 5.06251C76.8615 5.03863 77.0311 4.97211 77.1779 4.8686C77.3247 4.7651 77.4443 4.62767 77.5265 4.46801L78.6505 2.31351C79.2225 1.22851 80.7825 1.22851 81.3495 2.31351H81.35Z" fill="#FCD53F"/>
</svg>
