<svg width="32" height="32" viewBox="0 0 32 32" fill="none" xmlns="http://www.w3.org/2000/svg">
<path d="M31.4702 11.1175L16.4702 3.1175C16.3255 3.04046 16.1641 3.00017 16.0002 3.00017C15.8363 3.00017 15.6749 3.04046 15.5302 3.1175L0.530176 11.1175C0.370181 11.2028 0.236377 11.3299 0.143076 11.4854C0.0497749 11.6408 0.000488281 11.8187 0.000488281 12C0.000488281 12.1813 0.0497749 12.3592 0.143076 12.5146C0.236377 12.6701 0.370181 12.7972 0.530176 12.8825L4.00018 14.7338V20.7863C3.99914 21.2774 4.17991 21.7517 4.50768 22.1175C6.14518 23.9413 9.81392 27 16.0002 27C18.0514 27.017 20.0872 26.6454 22.0002 25.905V30C22.0002 30.2652 22.1055 30.5196 22.2931 30.7071C22.4806 30.8946 22.735 31 23.0002 31C23.2654 31 23.5197 30.8946 23.7073 30.7071C23.8948 30.5196 24.0002 30.2652 24.0002 30V24.9388C25.3042 24.186 26.4826 23.2341 27.4927 22.1175C27.8204 21.7517 28.0012 21.2774 28.0002 20.7863V14.7338L31.4702 12.8825C31.6302 12.7972 31.764 12.6701 31.8573 12.5146C31.9506 12.3592 31.9999 12.1813 31.9999 12C31.9999 11.8187 31.9506 11.6408 31.8573 11.4854C31.764 11.3299 31.6302 11.2028 31.4702 11.1175ZM16.0002 25C10.5914 25 7.41018 22.3575 6.00018 20.7863V15.8L15.5302 20.8825C15.6749 20.9595 15.8363 20.9998 16.0002 20.9998C16.1641 20.9998 16.3255 20.9595 16.4702 20.8825L22.0002 17.9338V23.7263C20.4252 24.4613 18.4402 25 16.0002 25ZM26.0002 20.7813C25.4007 21.4464 24.73 22.0438 24.0002 22.5625V16.8663L26.0002 15.8V20.7813ZM23.5002 14.8675L23.4727 14.8513L16.4727 11.1175C16.2391 10.9982 15.9681 10.9754 15.7179 11.0541C15.4677 11.1327 15.2584 11.3065 15.1352 11.538C15.0119 11.7695 14.9845 12.0401 15.0588 12.2916C15.1332 12.5431 15.3034 12.7553 15.5327 12.8825L21.3752 16L16.0002 18.8663L3.12518 12L16.0002 5.13375L28.8752 12L23.5002 14.8675Z" fill="black"/>
</svg>
