<svg width="30" height="25" viewBox="0 0 30 25" fill="none" xmlns="http://www.w3.org/2000/svg">
<path fill-rule="evenodd" clip-rule="evenodd" d="M10.7111 0.596516C4.43558 4.62671 0.949276 9.31754 0.252134 14.669C-0.833158 22.9999 6.617 27.0776 10.3919 23.4138C14.1668 19.75 11.904 15.0995 9.17058 13.8284C6.43717 12.5571 4.76558 12.9999 5.05717 11.3011C5.34875 9.60246 9.23759 4.89262 12.6541 2.69921C12.8808 2.50646 12.967 2.13246 12.7488 1.84871C12.6052 1.66212 12.3236 1.29617 11.904 0.750807C11.5371 0.273916 11.1856 0.291766 10.7111 0.596516Z" fill="#023382"/>
<path fill-rule="evenodd" clip-rule="evenodd" d="M27.2324 0.596516C20.957 4.62671 17.4707 9.31754 16.7735 14.669C15.6882 22.9999 23.1384 27.0776 26.9133 23.4138C30.6882 19.75 28.4254 15.0995 25.692 13.8284C22.9586 12.5571 21.2869 12.9999 21.5786 11.3011C21.8702 9.60246 25.759 4.89262 29.1755 2.69921C29.4022 2.50646 29.4884 2.13246 29.2701 1.84871C29.1266 1.66212 28.845 1.29617 28.4254 0.750807C28.0585 0.273916 27.707 0.291766 27.2324 0.596516Z" fill="#023382"/>
</svg>
