<svg width="16" height="16" viewBox="0 0 16 16" fill="none" xmlns="http://www.w3.org/2000/svg">
<path d="M6.30547 10.1867C6.1788 10.1867 6.05214 10.14 5.95214 10.04C5.40547 9.49334 5.10547 8.76668 5.10547 8.00001C5.10547 6.40668 6.3988 5.11334 7.99214 5.11334C8.7588 5.11334 9.48547 5.41334 10.0321 5.96001C10.1255 6.05334 10.1788 6.18001 10.1788 6.31334C10.1788 6.44668 10.1255 6.57334 10.0321 6.66668L6.6588 10.04C6.5588 10.14 6.43214 10.1867 6.30547 10.1867ZM7.99214 6.11334C6.95214 6.11334 6.10547 6.96001 6.10547 8.00001C6.10547 8.33334 6.19214 8.65334 6.35214 8.93334L8.92547 6.36001C8.64547 6.20001 8.32547 6.11334 7.99214 6.11334Z" fill="#731054"/>
<path d="M3.72542 12.34C3.61208 12.34 3.49208 12.3 3.39875 12.22C2.68542 11.6133 2.04542 10.8667 1.49875 10C0.792083 8.9 0.792083 7.10666 1.49875 6C3.12542 3.45333 5.49208 1.98666 7.99208 1.98666C9.45875 1.98666 10.9054 2.49333 12.1721 3.44666C12.3921 3.61333 12.4388 3.92666 12.2721 4.14666C12.1054 4.36666 11.7921 4.41333 11.5721 4.24666C10.4788 3.42 9.23875 2.98666 7.99208 2.98666C5.83875 2.98666 3.77875 4.28 2.33875 6.54C1.83875 7.32 1.83875 8.68 2.33875 9.46C2.83875 10.24 3.41208 10.9133 4.04542 11.46C4.25208 11.64 4.27875 11.9533 4.09875 12.1667C4.00542 12.28 3.86542 12.34 3.72542 12.34Z" fill="#731054"/>
<path d="M7.9919 14.0133C7.10524 14.0133 6.23857 13.8333 5.40524 13.48C5.1519 13.3733 5.0319 13.08 5.13857 12.8267C5.24524 12.5733 5.53857 12.4533 5.7919 12.56C6.49857 12.86 7.23857 13.0133 7.98524 13.0133C10.1386 13.0133 12.1986 11.72 13.6386 9.45999C14.1386 8.67999 14.1386 7.31999 13.6386 6.53999C13.4319 6.21332 13.2052 5.89999 12.9652 5.60666C12.7919 5.39332 12.8252 5.07999 13.0386 4.89999C13.2519 4.72666 13.5652 4.75332 13.7452 4.97332C14.0052 5.29332 14.2586 5.63999 14.4852 5.99999C15.1919 7.09999 15.1919 8.89332 14.4852 9.99999C12.8586 12.5467 10.4919 14.0133 7.9919 14.0133Z" fill="#731054"/>
<path d="M8.45192 10.8467C8.21858 10.8467 8.00525 10.68 7.95858 10.44C7.90525 10.1667 8.08525 9.90665 8.35858 9.85999C9.09192 9.72665 9.70525 9.11332 9.83858 8.37999C9.89192 8.10665 10.1519 7.93332 10.4252 7.97999C10.6986 8.03332 10.8786 8.29332 10.8252 8.56665C10.6119 9.71999 9.69192 10.6333 8.54525 10.8467C8.51192 10.84 8.48525 10.8467 8.45192 10.8467Z" fill="#731054"/>
<path d="M1.32548 15.1667C1.19882 15.1667 1.07215 15.12 0.972148 15.02C0.778815 14.8267 0.778815 14.5067 0.972148 14.3133L5.95215 9.33332C6.14548 9.13999 6.46548 9.13999 6.65882 9.33332C6.85215 9.52666 6.85215 9.84666 6.65882 10.04L1.67882 15.02C1.57882 15.12 1.45215 15.1667 1.32548 15.1667Z" fill="#731054"/>
<path d="M9.679 6.81333C9.55233 6.81333 9.42566 6.76666 9.32566 6.66666C9.13233 6.47333 9.13233 6.15332 9.32566 5.95999L14.3057 0.979991C14.499 0.786658 14.819 0.786658 15.0123 0.979991C15.2057 1.17332 15.2057 1.49332 15.0123 1.68666L10.0323 6.66666C9.93233 6.76666 9.80566 6.81333 9.679 6.81333Z" fill="#731054"/>
</svg>
