<svg width="22" height="20" viewBox="0 0 22 20" fill="none" xmlns="http://www.w3.org/2000/svg">
<path d="M20.7303 15.5622C21.2593 14.487 21.5229 13.3007 21.4991 12.1026C21.4753 10.9046 21.1648 9.7297 20.5936 8.67633C20.0224 7.62297 19.2071 6.7218 18.216 6.0483C17.2249 5.3748 16.0869 4.94857 14.8972 4.80532C14.5026 3.88556 13.928 3.05407 13.2071 2.35984C12.4862 1.66561 11.6337 1.12268 10.6997 0.763041C9.76576 0.403401 8.76926 0.234325 7.76894 0.265774C6.76862 0.297222 5.78471 0.52856 4.87518 0.946157C3.96565 1.36375 3.1489 1.95916 2.47305 2.69731C1.7972 3.43545 1.27592 4.30139 0.939918 5.24412C0.603917 6.18684 0.459995 7.18728 0.516631 8.18649C0.573267 9.1857 0.829315 10.1635 1.26969 11.0622L0.551564 13.5766C0.487483 13.8015 0.484676 14.0395 0.543433 14.2659C0.60219 14.4923 0.720378 14.6989 0.885765 14.8642C1.05115 15.0296 1.25773 15.1478 1.48412 15.2066C1.71052 15.2653 1.9485 15.2625 2.17344 15.1984L4.68781 14.4803C5.44654 14.8528 6.26268 15.0947 7.10188 15.1956C7.5019 16.1328 8.08872 16.9787 8.82652 17.6816C9.56431 18.3845 10.4376 18.9297 11.3931 19.2838C12.3486 19.638 13.3662 19.7938 14.3839 19.7416C15.4016 19.6894 16.3979 19.4304 17.3122 18.9803L19.8266 19.6984C20.0515 19.7625 20.2895 19.7653 20.5159 19.7066C20.7423 19.6478 20.9489 19.5296 21.1142 19.3642C21.2796 19.1989 21.3978 18.9923 21.4566 18.7659C21.5153 18.5395 21.5125 18.3015 21.4484 18.0766L20.7303 15.5622ZM4.76844 12.9278C4.69873 12.9278 4.62935 12.9373 4.56219 12.9559L2.08625 13.6638L2.79406 11.1878C2.84711 10.9992 2.82423 10.7973 2.73031 10.6253C2.0407 9.35925 1.83041 7.88709 2.13796 6.47858C2.44552 5.07008 3.25032 3.81956 4.40491 2.95619C5.55949 2.09282 6.98653 1.67441 8.42452 1.77763C9.86252 1.88085 11.2152 2.4988 12.2346 3.51823C13.254 4.53766 13.872 5.8903 13.9752 7.3283C14.0784 8.76629 13.66 10.1933 12.7966 11.3479C11.9333 12.5025 10.6827 13.3073 9.27424 13.6149C7.86573 13.9224 6.39357 13.7121 5.1275 13.0225C5.01774 12.9611 4.8942 12.9285 4.76844 12.9278ZM19.2059 15.6878L19.9138 18.1638L17.4378 17.4559C17.2492 17.4029 17.0473 17.4258 16.8753 17.5197C15.4928 18.2719 13.8702 18.4512 12.3568 18.0192C10.8433 17.5872 9.55997 16.5783 8.78281 15.2097C9.8098 15.1027 10.8036 14.7847 11.7019 14.2755C12.6001 13.7663 13.3835 13.077 14.0027 12.2508C14.622 11.4246 15.0639 10.4793 15.3005 9.47423C15.5372 8.46918 15.5636 7.42606 15.3781 6.41032C16.2768 6.62212 17.1145 7.03847 17.826 7.62697C18.5375 8.21547 19.1035 8.96023 19.4801 9.80327C19.8567 10.6463 20.0336 11.5649 19.9971 12.4875C19.9606 13.4101 19.7117 14.3118 19.2697 15.1225C19.175 15.2953 19.1521 15.4983 19.2059 15.6878Z" fill="#033A95"/>
</svg>
