<svg width="24" height="25" viewBox="0 0 24 25" fill="none" xmlns="http://www.w3.org/2000/svg">
<path fill-rule="evenodd" clip-rule="evenodd" d="M12 21.3214C13.1819 21.3214 14.3522 21.0886 15.4442 20.6363C16.5361 20.184 17.5282 19.5211 18.364 18.6854C19.1997 17.8496 19.8626 16.8575 20.3149 15.7656C20.7672 14.6736 21 13.5033 21 12.3214C21 11.1395 20.7672 9.96919 20.3149 8.87726C19.8626 7.78533 19.1997 6.79318 18.364 5.95745C17.5282 5.12172 16.5361 4.45879 15.4442 4.0065C14.3522 3.5542 13.1819 3.32141 12 3.32141C9.61305 3.32141 7.32387 4.26962 5.63604 5.95745C3.94821 7.64528 3 9.93446 3 12.3214C3 14.7084 3.94821 16.9975 5.63604 18.6854C7.32387 20.3732 9.61305 21.3214 12 21.3214ZM11.768 15.9614L16.768 9.96141L15.232 8.68141L10.932 13.8404L8.707 11.6144L7.293 13.0284L10.293 16.0284L11.067 16.8024L11.768 15.9614Z" fill="#023382"/>
</svg>
