<?xml version="1.0" encoding="UTF-8"?>
<!-- Generator: visioncortex VTracer 0.6.3 -->
<svg version="1.1" xmlns="http://www.w3.org/2000/svg" width="1280" height="1040">
<path d="M0 0 C2.05 0.03 4.1 0.05 6.15 0.06 C22.19 0.19 37.92 1.14 53.82 3.35 C54.56 3.45 55.29 3.56 56.05 3.66 C66.52 5.11 76.61 7.34 86.82 10.04 C89.01 10.59 91.19 11.13 93.38 11.67 C94.38 11.92 95.38 12.17 96.41 12.43 C98.43 12.93 100.44 13.43 102.45 13.93 C106.61 14.96 110.76 16 114.86 17.23 C117.74 18.17 117.74 18.17 120.51 17.98 C123.51 18.06 124.46 19.24 126.82 21.04 C128.74 22 128.74 22 130.88 22.79 C132.19 23.3 132.19 23.3 133.52 23.81 C136.1 24.77 138.68 25.71 141.27 26.64 C150.45 29.94 159.19 33.47 167.82 38.04 C170 39.13 172.19 40.21 174.38 41.29 C181.67 44.94 188.89 48.72 196.09 52.55 C199.14 54.17 202.21 55.76 205.29 57.32 C205.99 57.67 206.68 58.03 207.39 58.4 C208.68 59.06 209.98 59.71 211.27 60.35 C214.63 62.09 216.58 63.38 217.82 67.04 C219.47 67.04 221.12 67.04 222.82 67.04 C222.82 67.7 222.82 68.36 222.82 69.04 C224.47 70.07 226.14 71.06 227.82 72.04 C228.33 72.58 228.85 73.11 229.38 73.67 C231.12 75.33 232.48 75.64 234.82 76.04 C234.82 76.7 234.82 77.36 234.82 78.04 C235.52 78.27 236.22 78.5 236.94 78.73 C240.56 80.38 242.91 82.33 245.82 85.04 C245.82 85.7 245.82 86.36 245.82 87.04 C246.79 87.31 247.76 87.58 248.76 87.85 C249.77 88.25 250.78 88.64 251.82 89.04 C252.15 90.03 252.48 91.02 252.82 92.04 C255.29 92.54 255.29 92.54 257.82 93.04 C257.82 94.03 257.82 95.02 257.82 96.04 C259.18 97.03 260.55 98 261.97 98.89 C267.62 102.42 272.25 106.26 276.44 111.44 C278.32 113.62 280.55 115.28 282.82 117.04 C283.48 118.03 284.14 119.02 284.82 120.04 C285.48 120.37 286.14 120.7 286.82 121.04 C286.82 121.7 286.82 122.36 286.82 123.04 C287.48 123.04 288.14 123.04 288.82 123.04 C288.82 123.7 288.82 124.36 288.82 125.04 C289.48 125.04 290.14 125.04 290.82 125.04 C290.82 125.7 290.82 126.36 290.82 127.04 C291.48 127.04 292.14 127.04 292.82 127.04 C294.33 128.95 295.74 130.86 297.13 132.85 C300.06 137.02 302.35 139.61 306.82 142.04 C308.01 144.1 308.01 144.1 308.82 146.04 C309.48 146.7 310.14 147.36 310.82 148.04 C311.59 149.42 312.34 150.82 313.07 152.23 C315.16 156.09 317.49 159.24 320.49 162.44 C321.95 164.2 322.84 165.98 323.82 168.04 C324.8 169.39 325.81 170.72 326.82 172.04 C329.79 176.31 332.27 180.64 334.57 185.29 C334.88 185.92 335.2 186.54 335.52 187.18 C337.82 191.79 337.82 191.79 337.82 194.04 C338.48 194.04 339.14 194.04 339.82 194.04 C344.79 200.68 347.89 208.12 350.88 215.8 C351.79 218.15 351.79 218.15 353.38 220.54 C354.77 222.96 355.4 224.93 356.13 227.6 C357.24 231.57 358.73 234.92 360.69 238.54 C364.4 245.68 366.26 253.11 368.25 260.86 C369.08 264.06 370.01 267.24 370.94 270.42 C371.57 272.62 372.19 274.83 372.82 277.04 C373.22 278.42 373.22 278.42 373.63 279.83 C381.74 309.62 379.91 341.51 380 372.09 C380.01 374.1 380.02 376.1 380.03 378.11 C380.04 381.91 380.05 385.71 380.05 389.51 C380.06 390.66 380.06 391.8 380.07 392.98 C380.05 399.06 379.53 404.22 377.82 410.04 C377.39 412.68 377.11 415.32 376.82 417.98 C376.24 423 375.52 427.9 374.31 432.81 C373.71 435.52 373.37 438.23 373.01 440.98 C371.17 453.41 367.22 465.59 362.88 477.35 C361.64 480.73 360.46 484.11 359.38 487.54 C358.3 490.83 356.99 493.91 355.51 497.04 C352.91 502.56 350.93 508.23 349.05 514.03 C347.53 518.56 345.61 522.12 342.82 526.04 C341.88 527.65 340.96 529.28 340.07 530.92 C339.64 531.7 339.21 532.48 338.77 533.28 C338.46 533.86 338.14 534.44 337.82 535.04 C337.16 535.04 336.5 535.04 335.82 535.04 C335.57 535.7 335.32 536.36 335.07 537.04 C334.05 539.49 333.01 541.89 331.88 544.29 C331.56 544.98 331.24 545.66 330.92 546.37 C329.82 548.04 329.82 548.04 326.82 549.04 C326.72 549.77 326.62 550.5 326.51 551.25 C325.74 554.37 324.6 556.15 322.69 558.73 C319.51 563.09 316.47 567.51 313.49 572.01 C311.72 574.16 310.36 574.97 307.82 576.04 C306.05 577.23 306.05 577.23 304.82 579.04 C304.77 579.92 304.73 580.81 304.68 581.72 C303.42 586.59 300.4 588.73 296.69 591.98 C295.15 593.38 293.62 594.78 292.09 596.18 C291.25 596.94 290.41 597.71 289.55 598.5 C284.91 602.81 280.42 607.27 275.93 611.74 C274.9 612.77 273.87 613.8 272.83 614.82 C271.36 616.27 269.9 617.73 268.45 619.18 C267.18 620.44 267.18 620.44 265.89 621.73 C264.02 623.82 262.99 625.54 261.82 628.04 C259.72 629.74 259.72 629.74 257.32 631.29 C256.52 631.81 255.73 632.33 254.91 632.87 C252.82 634.04 252.82 634.04 250.82 634.04 C250.82 634.7 250.82 635.36 250.82 636.04 C249.89 636.43 248.96 636.83 248.01 637.23 C244.72 638.73 244.72 638.73 243.48 641.41 C241.44 644.64 239.31 645.97 236.07 647.98 C232.57 650.22 229.23 652.39 226.13 655.17 C223 657.97 219.66 660.26 216.13 662.54 C214.61 663.52 213.11 664.54 211.63 665.58 C202.91 671.67 194.59 675.78 183.82 676.04 C183.82 676.7 183.82 677.36 183.82 678.04 C173.61 678.47 165.28 678.42 155.82 674.04 C154.83 673.71 153.84 673.38 152.82 673.04 C152.82 672.05 152.82 671.06 152.82 670.04 C152.24 669.77 151.66 669.51 151.07 669.23 C147.36 667.27 145.17 666.11 143.82 662.04 C143.01 661.36 142.21 660.68 141.38 659.98 C136.02 653.83 136.45 645.22 136.55 637.38 C136.98 632.09 138.28 627.11 139.82 622.04 C140.48 622.04 141.14 622.04 141.82 622.04 C142.04 621.11 142.27 620.19 142.51 619.23 C144.04 615.51 145.22 614.66 148.82 613.04 C149.48 613.04 150.14 613.04 150.82 613.04 C151.07 612.46 151.31 611.89 151.57 611.29 C153 608.71 154.6 606.98 156.82 605.04 C157.48 605.04 158.14 605.04 158.82 605.04 C159.04 604.4 159.27 603.76 159.51 603.1 C159.94 602.42 160.37 601.74 160.82 601.04 C162.48 600.69 164.15 600.36 165.82 600.04 C175.21 596.22 175.21 596.22 181.82 589.04 C182.48 589.04 183.14 589.04 183.82 589.04 C184.15 588.38 184.48 587.72 184.82 587.04 C185.81 587.04 186.8 587.04 187.82 587.04 C189.02 585.57 190.21 584.1 191.38 582.61 C193.24 580.58 195.44 579.47 197.84 578.18 C206.07 573.43 212.74 566.35 219.44 559.73 C220.67 558.53 220.67 558.53 221.92 557.3 C223.07 556.16 223.07 556.16 224.23 554.99 C224.92 554.3 225.61 553.62 226.32 552.91 C228.13 551.05 228.13 551.05 227.82 548.04 C228.78 547.89 228.78 547.89 229.76 547.73 C230.44 547.5 231.12 547.28 231.82 547.04 C232.15 546.05 232.48 545.06 232.82 544.04 C235.26 541.35 235.26 541.35 237.82 539.04 C238.48 539.04 239.14 539.04 239.82 539.04 C239.94 537.96 239.94 537.96 240.07 536.85 C241.37 531.98 244.48 529.27 248.32 526.23 C252.16 523.05 253.89 519.56 255.82 515.04 C256.48 513.7 257.14 512.37 257.82 511.04 C258.81 511.04 259.8 511.04 260.82 511.04 C261.09 510.32 261.35 509.6 261.63 508.85 C262.81 506.06 264.2 503.66 265.82 501.1 C268.03 497.5 269.73 494.17 270.82 490.04 C271.48 490.04 272.14 490.04 272.82 490.04 C273.15 488.91 273.48 487.77 273.82 486.6 C275.68 480.96 278.26 475.67 280.86 470.33 C283.12 465.65 285.07 460.94 286.82 456.04 C287.16 455.12 287.5 454.19 287.85 453.24 C288.49 451.46 289.13 449.68 289.77 447.9 C290.46 446.02 291.17 444.14 291.89 442.28 C294.03 436.72 295.45 431.4 296.38 425.51 C296.82 423.04 296.82 423.04 297.88 419.73 C299.09 414.98 299.25 410.34 299.54 405.47 C299.82 401.96 300.47 398.76 301.32 395.35 C303.34 386.01 302.97 376.22 302.95 366.71 C302.94 364.38 302.95 362.04 302.95 359.71 C302.96 345.38 302.29 331.28 300.01 317.1 C299.82 315.97 299.64 314.85 299.46 313.68 C298.93 310.47 298.38 307.25 297.82 304.04 C297.69 303.28 297.55 302.52 297.42 301.74 C292.93 277.29 283.26 252.97 271.82 231.04 C268.82 225.27 268.82 225.27 268.82 223.04 C267.83 222.71 266.84 222.38 265.82 222.04 C263.73 219.25 262.06 216.68 260.82 213.42 C259.96 210.95 259.96 210.95 258.01 209.29 C255.37 206.58 253.94 203.72 252.26 200.36 C250.47 197.48 248.23 195.42 245.82 193.04 C244.18 191.01 242.57 188.95 241.01 186.85 C240.22 185.81 239.42 184.76 238.61 183.69 C236.82 181.04 236.82 181.04 236.82 179.04 C236.16 179.04 235.5 179.04 234.82 179.04 C233.27 177.47 233.27 177.47 231.51 175.35 C229.38 172.84 227.26 170.43 224.88 168.17 C222.82 166.04 222.82 166.04 222.82 164.04 C222.26 164 221.7 163.96 221.13 163.92 C218.27 162.84 217.12 161.12 215.27 158.76 C210.56 153.17 204.34 148.82 198.63 144.29 C198.04 143.82 197.44 143.35 196.83 142.86 C194.26 140.85 191.77 139.01 188.95 137.34 C186.82 136.04 186.82 136.04 185.82 134.04 C184.33 133.11 182.8 132.24 181.26 131.42 C180.02 130.75 180.02 130.75 178.75 130.06 C178.11 129.73 177.48 129.39 176.82 129.04 C176.82 128.38 176.82 127.72 176.82 127.04 C175.98 126.64 175.98 126.64 175.13 126.23 C172.82 125.04 172.82 125.04 170.44 123.54 C167.63 121.93 164.9 121.02 161.82 120.04 C160.47 119.4 159.13 118.75 157.82 118.04 C157.82 117.38 157.82 116.72 157.82 116.04 C157.03 115.9 156.25 115.75 155.44 115.6 C152.82 115.04 152.82 115.04 150.82 114.04 C150.82 113.38 150.82 112.72 150.82 112.04 C150.1 112.1 149.39 112.16 148.65 112.22 C145.22 112 143.41 110.97 140.51 109.17 C139.62 108.63 138.74 108.1 137.83 107.55 C137.17 107.05 136.5 106.55 135.82 106.04 C135.82 105.38 135.82 104.72 135.82 104.04 C134.54 103.92 133.26 103.79 131.94 103.67 C128.07 103.29 128.07 103.29 125.82 101.04 C124.18 100.54 122.53 100.04 120.87 99.6 C113.52 97.59 106.4 94.81 99.29 92.07 C89.37 88.33 79.22 86.02 68.82 84.04 C66.98 83.69 65.15 83.34 63.32 82.98 C62.1 82.75 62.1 82.75 60.85 82.51 C58.82 82.04 58.82 82.04 56.82 81.04 C54.76 80.83 52.7 80.67 50.64 80.54 C49.4 80.46 48.16 80.38 46.88 80.29 C45.58 80.21 44.28 80.13 42.94 80.04 C40.38 79.88 37.82 79.71 35.26 79.54 C34.12 79.47 32.98 79.4 31.81 79.32 C29.33 79.09 27.21 78.67 24.82 78.04 C16.46 76.91 8.05 76.85 -0.37 76.85 C-1.66 76.85 -2.94 76.86 -4.27 76.86 C-12.07 76.91 -19.56 77.28 -27.27 78.47 C-33.15 79.33 -39.08 79.78 -45 80.26 C-49.72 80.67 -53.7 81.45 -58.18 83.04 C-60.72 83.49 -63.26 83.91 -65.81 84.29 C-74.32 85.67 -82.41 88.05 -90.62 90.64 C-93.56 91.56 -96.49 92.39 -99.48 93.12 C-106.49 94.87 -112.82 97.82 -119.24 101.1 C-123.47 103.26 -127.56 104.94 -132.08 106.33 C-136.32 107.77 -140.43 109.7 -143.99 112.42 C-146.83 114.52 -149.86 116.24 -152.93 117.98 C-153.55 118.33 -154.18 118.69 -154.82 119.05 C-159.21 121.53 -163.66 123.82 -168.18 126.04 C-169.13 126.62 -170.08 127.2 -171.06 127.79 C-173.18 129.04 -173.18 129.04 -175.18 129.04 C-175.52 130 -175.52 130 -175.87 130.98 C-176.3 131.66 -176.74 132.34 -177.18 133.04 C-178.85 133.37 -180.52 133.71 -182.18 134.04 C-182.87 135.37 -183.53 136.7 -184.18 138.04 C-185.53 138.92 -186.89 139.79 -188.26 140.63 C-191.9 143.31 -194.9 146.73 -198.01 149.99 C-200.18 152.04 -200.18 152.04 -202.18 152.04 C-202.18 152.7 -202.18 153.36 -202.18 154.04 C-202.8 154.12 -203.42 154.21 -204.06 154.29 C-206.36 154.84 -206.36 154.84 -207.24 157.04 C-207.55 157.7 -207.86 158.36 -208.18 159.04 C-209.17 159.37 -210.16 159.7 -211.18 160.04 C-212.89 161.66 -214.55 163.34 -216.18 165.04 C-217.05 165.87 -217.91 166.69 -218.81 167.54 C-221.22 169.9 -221.22 169.9 -222.68 172.54 C-224.11 174.92 -225.67 176.6 -227.64 178.53 C-229.41 180.27 -231.15 182.04 -232.88 183.81 C-234.21 185.16 -235.54 186.51 -236.87 187.85 C-237.55 188.55 -238.22 189.24 -238.92 189.95 C-239.57 190.61 -240.21 191.26 -240.88 191.94 C-241.47 192.53 -242.05 193.13 -242.66 193.74 C-244.18 195.04 -244.18 195.04 -246.18 195.04 C-246.28 195.74 -246.37 196.44 -246.47 197.15 C-247.32 200.62 -248.79 203.17 -250.62 206.23 C-251.24 207.27 -251.85 208.32 -252.49 209.4 C-254.18 212.04 -254.18 212.04 -256.18 214.04 C-257.16 215.74 -258.14 217.44 -259.1 219.15 C-260.67 221.9 -262.31 224.49 -264.18 227.04 C-264.84 227.04 -265.5 227.04 -266.18 227.04 C-266.24 227.89 -266.31 228.73 -266.37 229.6 C-267.21 233.14 -268.55 235.03 -270.73 237.87 C-273.87 242.56 -275.91 247.9 -278.18 253.04 C-279.1 255.06 -280.01 257.08 -280.93 259.1 C-281.51 260.39 -281.51 260.39 -282.1 261.7 C-283.09 263.84 -284.12 265.94 -285.18 268.04 C-285.84 268.04 -286.5 268.04 -287.18 268.04 C-286.87 268.81 -286.87 268.81 -286.56 269.6 C-286.02 273.07 -287.11 275.75 -288.18 279.04 C-288.84 279.04 -289.5 279.04 -290.18 279.04 C-290.29 280.34 -290.39 281.64 -290.49 282.98 C-290.95 287.12 -291.95 290.72 -293.35 294.63 C-294.62 298.31 -295.56 302.08 -296.53 305.85 C-297.18 308.04 -297.18 308.04 -298.18 309.04 C-298.38 310.46 -298.53 311.88 -298.65 313.3 C-298.72 314.18 -298.8 315.05 -298.88 315.95 C-299.04 317.78 -299.19 319.62 -299.34 321.45 C-299.42 322.33 -299.5 323.21 -299.58 324.12 C-299.65 324.92 -299.72 325.72 -299.79 326.54 C-300.18 329.04 -300.18 329.04 -301.2 331.97 C-302.22 335.15 -302.48 337.72 -302.56 341.05 C-302.59 342.19 -302.63 343.33 -302.66 344.51 C-302.7 346.32 -302.7 346.32 -302.74 348.17 C-302.81 350.68 -302.88 353.2 -302.96 355.71 C-302.99 356.95 -303.02 358.19 -303.06 359.47 C-303.17 362.69 -303.33 365.9 -303.53 369.12 C-303.59 370.02 -303.65 370.93 -303.7 371.86 C-303.81 373.51 -303.93 375.17 -304.05 376.82 C-304.35 381.49 -303.68 384.67 -302.18 389.04 C-301.4 394.25 -300.93 399.5 -300.41 404.74 C-299.73 411.04 -298.61 416.2 -296.18 422.04 C-295.5 424.43 -294.86 426.82 -294.24 429.23 C-291.42 440.06 -288.07 450.57 -284.12 461.04 C-283.61 462.4 -283.61 462.4 -283.09 463.8 C-281.42 468.16 -279.61 472.04 -277.18 476.04 C-277.18 477.03 -277.18 478.02 -277.18 479.04 C-276.52 479.37 -275.86 479.7 -275.18 480.04 C-274.37 481.81 -273.63 483.6 -272.93 485.42 C-269.59 493.67 -265.27 501.2 -260.74 508.85 C-257.43 514.47 -254.57 520.23 -251.76 526.11 C-250.37 528.69 -249.24 530.06 -247.18 532.04 C-246.32 533.62 -245.51 535.23 -244.74 536.85 C-242.4 541.69 -239.74 546.04 -236.43 550.29 C-235.18 552.04 -235.18 552.04 -235.18 554.04 C-234.52 554.37 -233.86 554.7 -233.18 555.04 C-233.51 555.7 -233.84 556.36 -234.18 557.04 C-233.52 557.37 -232.86 557.7 -232.18 558.04 C-232.18 558.7 -232.18 559.36 -232.18 560.04 C-231.19 560.37 -230.2 560.7 -229.18 561.04 C-229.18 561.7 -229.18 562.36 -229.18 563.04 C-228.52 563.04 -227.86 563.04 -227.18 563.04 C-226.89 563.59 -226.6 564.13 -226.3 564.69 C-223.68 569.51 -220.87 574.1 -217.8 578.64 C-215.98 581.34 -214.2 584.06 -212.43 586.79 C-211.86 587.67 -211.29 588.55 -210.7 589.46 C-209.18 592.04 -209.18 592.04 -208.15 594.67 C-207.16 597.08 -206.16 598.42 -204.37 600.29 C-201.39 603.61 -199.41 607.1 -197.34 611.04 C-195.95 613.44 -194.17 615.12 -192.18 617.04 C-191.51 618.71 -190.84 620.37 -190.18 622.04 C-189.19 622.7 -188.2 623.36 -187.18 624.04 C-185.25 626.89 -183.78 629.88 -182.31 632.98 C-180.98 635.68 -179.6 637.9 -177.62 640.17 C-175.22 643 -173.71 645.67 -172.18 649.04 C-171.52 649.04 -170.86 649.04 -170.18 649.04 C-170.51 650.69 -170.84 652.34 -171.18 654.04 C-170.54 654.27 -169.9 654.5 -169.24 654.73 C-167.18 656.04 -167.18 656.04 -166.43 658.67 C-166.35 659.45 -166.27 660.23 -166.18 661.04 C-165.52 661.04 -164.86 661.04 -164.18 661.04 C-162.84 663.66 -161.51 666.29 -160.18 668.92 C-159.61 670.04 -159.61 670.04 -159.03 671.18 C-158.66 671.89 -158.3 672.61 -157.93 673.35 C-157.6 674.01 -157.26 674.67 -156.92 675.35 C-156.18 677.04 -156.18 677.04 -156.18 679.04 C-155.52 679.04 -154.86 679.04 -154.18 679.04 C-151.96 683.66 -150.8 686.81 -151.18 692.04 C-151.84 692.04 -152.5 692.04 -153.18 692.04 C-153.18 693.03 -153.18 694.02 -153.18 695.04 C-158.39 694.39 -163.99 692.25 -167.73 688.48 C-169.87 686.36 -172.34 685.89 -175.18 685.04 C-175.84 684.71 -176.5 684.38 -177.18 684.04 C-177.18 683.38 -177.18 682.72 -177.18 682.04 C-178.83 682.04 -180.48 682.04 -182.18 682.04 C-182.51 681.05 -182.84 680.06 -183.18 679.04 C-184.19 678.96 -185.2 678.88 -186.24 678.79 C-189.7 678.29 -192.23 677.07 -195.22 675.22 C-198.36 673.34 -201.66 671.79 -204.95 670.19 C-207.18 669.04 -207.18 669.04 -210.18 667.04 C-210.18 666.38 -210.18 665.72 -210.18 665.04 C-210.97 664.84 -211.75 664.63 -212.56 664.42 C-217.49 662.55 -221.71 659.81 -226.18 657.04 C-227.85 656.06 -229.51 655.08 -231.18 654.1 C-238.51 649.7 -245.42 644.7 -252.22 639.52 C-253.62 638.47 -255.03 637.43 -256.46 636.4 C-257.19 635.87 -257.93 635.34 -258.68 634.79 C-259.35 634.31 -260.02 633.83 -260.71 633.34 C-261.2 632.91 -261.68 632.48 -262.18 632.04 C-262.18 631.38 -262.18 630.72 -262.18 630.04 C-262.74 629.79 -263.3 629.55 -263.87 629.29 C-268.65 626.71 -272.52 623.02 -276.18 619.04 C-276.18 618.38 -276.18 617.72 -276.18 617.04 C-278.16 616.38 -280.14 615.72 -282.18 615.04 C-281.85 614.38 -281.52 613.72 -281.18 613.04 C-281.85 612.5 -281.85 612.5 -282.54 611.94 C-286.57 608.59 -290.03 605.24 -293.18 601.04 C-293.18 600.38 -293.18 599.72 -293.18 599.04 C-294.17 598.71 -295.16 598.38 -296.18 598.04 C-296.18 597.38 -296.18 596.72 -296.18 596.04 C-296.72 595.84 -297.25 595.63 -297.81 595.42 C-301.1 593.51 -303.78 590.99 -306.18 588.04 C-306.18 587.38 -306.18 586.72 -306.18 586.04 C-306.84 586.04 -307.5 586.04 -308.18 586.04 C-309.17 583.73 -310.16 581.42 -311.18 579.04 C-311.84 579.04 -312.5 579.04 -313.18 579.04 C-313.45 578.3 -313.72 577.56 -313.99 576.79 C-315.14 574.14 -316.41 572.3 -318.18 570.04 C-318.64 569.28 -319.09 568.52 -319.56 567.73 C-320.85 565.58 -322.2 563.62 -323.68 561.6 C-325.89 558.56 -327.59 555.45 -329.18 552.04 C-329.57 551.32 -329.97 550.6 -330.37 549.85 C-331.18 548.04 -331.18 548.04 -331.18 545.04 C-331.84 545.04 -332.5 545.04 -333.18 545.04 C-336.46 540.78 -338.83 535.85 -341.18 531.04 C-342.02 529.62 -342.85 528.21 -343.68 526.79 C-345.92 522.81 -347.18 518.95 -348.38 514.57 C-349.49 511.07 -351.15 507.95 -352.84 504.71 C-359.18 492.1 -359.18 492.1 -359.18 488.04 C-359.84 487.71 -360.5 487.38 -361.18 487.04 C-361.42 485.42 -361.66 483.8 -361.85 482.18 C-362.5 478.02 -363.92 474.05 -365.18 470.04 C-366.19 466.76 -367.2 463.48 -368.21 460.19 C-368.79 458.29 -369.4 456.4 -370.03 454.52 C-372.1 448.25 -372.94 442 -373.65 435.46 C-374.03 432.14 -374.03 432.14 -375.18 429.62 C-376.58 426.01 -376.82 422.44 -377.18 418.6 C-377.7 412.83 -377.7 412.83 -379.18 407.26 C-382.08 397.93 -381.34 387.36 -381.35 377.69 C-381.35 376.33 -381.36 374.98 -381.36 373.62 C-381.37 370.8 -381.37 367.98 -381.37 365.15 C-381.37 362.3 -381.37 359.44 -381.39 356.58 C-381.56 320.8 -381.56 320.8 -377.67 305.19 C-377.08 302.61 -376.7 300.03 -376.31 297.42 C-375.24 290.82 -373.52 284.45 -371.72 278.01 C-371.16 275.98 -370.63 273.94 -370.1 271.89 C-369.93 271.22 -369.75 270.54 -369.57 269.84 C-369.08 267.96 -368.6 266.07 -368.11 264.19 C-367.34 261.56 -366.42 259.46 -365.18 257.04 C-364.85 255.66 -364.56 254.26 -364.31 252.85 C-363.13 247.17 -360.83 242.11 -358.1 237.01 C-356.76 234.12 -356.54 231.19 -356.18 228.04 C-355.52 228.04 -354.86 228.04 -354.18 228.04 C-353.9 227.33 -353.63 226.62 -353.34 225.89 C-351.8 222.11 -350.05 218.45 -348.3 214.76 C-347.24 212.17 -346.63 209.8 -346.18 207.04 C-345.52 207.04 -344.86 207.04 -344.18 207.04 C-344.18 205.72 -344.18 204.4 -344.18 203.04 C-342.85 201.7 -341.52 200.37 -340.18 199.04 C-338.63 196.48 -337.35 193.8 -336.06 191.1 C-335.54 190.05 -335.54 190.05 -335.01 188.97 C-333.58 186.06 -332.24 183.21 -331.13 180.16 C-330.18 178.04 -330.18 178.04 -327.18 176.04 C-325.97 172.99 -325.97 172.99 -325.18 170.04 C-324.52 170.04 -323.86 170.04 -323.18 170.04 C-319.98 166.63 -318.43 163.53 -317.18 159.04 C-316.52 159.04 -315.86 159.04 -315.18 159.04 C-315.1 158.46 -315.02 157.89 -314.93 157.29 C-313.97 154.41 -312.38 153.1 -310.18 151.04 C-309.52 150.05 -308.86 149.06 -308.18 148.04 C-307.52 148.04 -306.86 148.04 -306.18 148.04 C-306.06 147.48 -305.94 146.91 -305.81 146.33 C-305.65 145.59 -305.48 144.86 -305.31 144.1 C-305.14 143.37 -304.98 142.64 -304.81 141.89 C-304.18 140.04 -304.18 140.04 -302.18 139.04 C-301.71 138.22 -301.23 137.39 -300.74 136.54 C-299.18 134.04 -299.18 134.04 -296.18 133.04 C-295.49 131.72 -294.83 130.39 -294.18 129.04 C-292.96 127.64 -291.68 126.29 -290.36 124.98 C-289.19 123.8 -289.19 123.8 -287.99 122.59 C-287.14 121.75 -286.29 120.91 -285.41 120.04 C-284.1 118.73 -284.1 118.73 -282.77 117.4 C-280.45 115.08 -278.12 112.77 -275.79 110.46 C-273.44 108.12 -271.09 105.77 -268.74 103.42 C-266.95 101.62 -265.15 99.83 -263.35 98.04 C-262.51 97.2 -261.66 96.36 -260.8 95.49 C-260 94.7 -259.21 93.92 -258.39 93.1 C-257.7 92.41 -257 91.72 -256.29 91.01 C-252.45 87.42 -249.09 84.93 -244.18 83.04 C-242.82 82.08 -241.49 81.07 -240.18 80.04 C-239.11 79.36 -238.04 78.68 -236.93 77.98 C-236.02 77.34 -235.12 76.7 -234.18 76.04 C-234.18 75.38 -234.18 74.72 -234.18 74.04 C-233.52 74.04 -232.86 74.04 -232.18 74.04 C-231.81 73.08 -231.81 73.08 -231.43 72.1 C-230.18 70.04 -230.18 70.04 -228.35 69.54 C-227.28 69.29 -227.28 69.29 -226.18 69.04 C-224.86 68.4 -223.57 67.7 -222.29 66.98 C-221.58 66.57 -220.87 66.17 -220.14 65.75 C-219.41 65.33 -218.68 64.91 -217.93 64.48 C-217.19 64.05 -216.44 63.63 -215.67 63.19 C-213.84 62.15 -212.01 61.09 -210.18 60.04 C-210.18 59.38 -210.18 58.72 -210.18 58.04 C-209.65 57.79 -209.12 57.53 -208.57 57.27 C-207.87 56.93 -207.16 56.58 -206.43 56.23 C-205.74 55.89 -205.04 55.56 -204.32 55.21 C-202.17 54.11 -202.17 54.11 -200.4 52.65 C-197.28 50.39 -193.89 48.79 -190.43 47.1 C-189.42 46.6 -189.42 46.6 -188.38 46.09 C-187.01 45.41 -185.63 44.74 -184.26 44.07 C-180.13 42.03 -176.01 39.97 -171.9 37.88 C-167.72 35.76 -163.51 33.84 -159.18 32.04 C-159.18 31.71 -159.18 31.38 -159.18 31.04 C-157.2 31.04 -155.22 31.04 -153.18 31.04 C-152.85 30.05 -152.52 29.06 -152.18 28.04 C-149.49 27.16 -149.49 27.16 -146.18 26.48 C-144.17 26.06 -142.16 25.59 -140.18 25.04 C-139.85 24.38 -139.52 23.72 -139.18 23.04 C-136.89 22.73 -134.62 22.66 -132.31 22.58 C-129.99 22.25 -129.99 22.25 -128.9 20 C-128.66 19.36 -128.43 18.71 -128.18 18.04 C-127.85 18.7 -127.52 19.36 -127.18 20.04 C-126.19 19.38 -125.2 18.72 -124.18 18.04 C-120.99 17.92 -120.99 17.92 -118.18 18.04 C-117.89 17.4 -117.6 16.76 -117.31 16.1 C-116.18 14.04 -116.18 14.04 -114.18 13.04 C-113.85 13.7 -113.52 14.36 -113.18 15.04 C-112.85 14.71 -112.52 14.38 -112.18 14.04 C-110.5 13.65 -108.81 13.3 -107.12 12.98 C-106.2 12.8 -105.28 12.63 -104.33 12.44 C-103.62 12.31 -102.91 12.18 -102.18 12.04 C-102.18 11.71 -102.18 11.38 -102.18 11.04 C-101.16 10.92 -100.13 10.8 -99.08 10.67 C-97.72 10.51 -96.36 10.34 -94.99 10.17 C-93.98 10.05 -93.98 10.05 -92.95 9.93 C-89.05 9.43 -85.8 8.53 -82.18 7.04 C-80.86 7.04 -79.54 7.04 -78.18 7.04 C-77.85 6.38 -77.52 5.72 -77.18 5.04 C-77.18 5.7 -77.18 6.36 -77.18 7.04 C-76.66 6.72 -76.14 6.4 -75.61 6.07 C-72.45 4.73 -69.8 4.72 -66.37 4.6 C-59.47 4.29 -52.71 3.5 -45.87 2.54 C-30.61 0.45 -15.4 -0.25 0 0 Z M359.82 477.04 C360.82 479.04 360.82 479.04 360.82 479.04 Z M-237.18 552.04 C-236.18 554.04 -236.18 554.04 -236.18 554.04 Z M-246.18 641.04 C-245.18 643.04 -245.18 643.04 -245.18 643.04 Z M-155.18 682.04 C-154.18 685.04 -154.18 685.04 -154.18 685.04 Z " fill="#1094F0" transform="translate(665.18212890625,147.95849609375)"/>
<path d="M0 0 C0.72 0.17 1.45 0.33 2.2 0.5 C22.54 5.16 22.54 5.16 28.38 7.94 C32.82 9.98 37.34 11.55 42 13 C42 13.66 42 14.32 42 15 C42.66 15 43.32 15 44 15 C44.33 14.34 44.66 13.68 45 13 C45.41 13.46 45.82 13.92 46.25 14.39 C48.14 16.13 49.66 16.87 52.06 17.75 C52.75 18.01 53.45 18.28 54.16 18.55 C56.08 19.23 56.08 19.23 58 18 C58.37 18.96 58.37 18.96 58.75 19.94 C59.81 22.16 59.81 22.16 62 22.81 C64.07 23.18 64.07 23.18 66 22 C66 22.66 66 23.32 66 24 C66.99 24.33 67.98 24.66 69 25 C69 25.66 69 26.32 69 27 C69.91 27.08 70.82 27.17 71.75 27.25 C75 28 75 28 76.84 29.86 C79.32 32.32 81.65 33.47 84.81 34.94 C88.48 36.7 91.86 38.45 95.12 40.88 C97.67 43.2 97.67 43.2 100 43 C100 43.66 100 44.32 100 45 C100.8 45.27 101.61 45.54 102.44 45.81 C103.28 46.2 104.13 46.6 105 47 C105.33 47.99 105.66 48.98 106 50 C107.72 51.05 109.43 52.09 111.21 53.04 C114.35 54.73 116 56 118 59 C118.99 59.33 119.98 59.66 121 60 C122.01 61.33 123.01 62.66 124 64 C124.76 64.6 125.53 65.2 126.31 65.81 C129.15 68.12 131.34 70.6 133.67 73.41 C135.49 75.58 137.51 77.48 139.56 79.44 C142 82 142 82 143 85 C143.99 85.33 144.98 85.66 146 86 C146 86.66 146 87.32 146 88 C146.99 88.33 147.98 88.66 149 89 C153 93.46 153 93.46 153 96 C153.99 96.33 154.98 96.66 156 97 C156 97.99 156 98.98 156 100 C156.6 100.09 157.19 100.18 157.81 100.27 C160.6 101.2 161.38 102.37 163.06 104.75 C163.58 105.47 164.09 106.2 164.62 106.94 C166.17 109.25 167.58 111.61 169 114 C169.66 114.8 170.32 115.61 171 116.44 C174.28 120.63 176.22 124.73 177 130 C177.62 130.1 178.24 130.2 178.88 130.3 C181 131 181 131 182.86 134.25 C183.5 135.68 184.13 137.12 184.75 138.56 C185.44 140.12 186.14 141.67 186.84 143.23 C187.19 144.02 187.55 144.82 187.91 145.63 C189.6 149.3 191.46 152.86 193.31 156.44 C195.87 161.44 198.02 166.31 199.33 171.79 C199.98 174.17 199.98 174.17 201.45 176.86 C203.04 180.07 204.04 183.12 205 186.56 C205.31 187.66 205.62 188.75 205.94 189.88 C206.3 191.25 206.65 192.63 207 194 C207.36 195.42 207.36 195.42 207.73 196.87 C209.68 204.86 210.88 212.76 211.69 220.94 C211.81 222.21 211.94 223.48 212.07 224.78 C213.61 241.3 213.14 257.53 212.19 274.06 C212.12 275.35 212.05 276.63 211.98 277.95 C211.5 285.21 210.52 292.03 208.71 299.08 C207.98 302.1 207.46 305.11 207 308.19 C205.71 316.29 203.23 323.47 200 331 C199.55 332.54 199.11 334.08 198.69 335.62 C196.82 342.06 193.92 347.98 191 354 C190.4 355.24 190.4 355.24 189.79 356.5 C188.34 359.47 186.84 362.25 185 365 C184.14 366.71 183.29 368.43 182.44 370.14 C176.55 381.83 169.07 392.33 161.44 402.93 C159.97 404.93 159.97 404.93 159 407 C158.2 407.47 157.39 407.95 156.56 408.44 C153.68 410.2 152.5 411.92 151.09 414.97 C149.86 417.26 148.47 418.73 146.59 420.53 C145.93 421.18 145.27 421.82 144.59 422.49 C143.2 423.83 141.8 425.17 140.41 426.51 C139.75 427.16 139.09 427.8 138.41 428.47 C137.8 429.05 137.2 429.63 136.57 430.23 C134.92 431.94 134.92 431.94 133.97 434.07 C132.69 436.62 130.72 437.97 128.51 439.71 C126.79 441.09 126.79 441.09 125 443.56 C122.65 446.43 120.19 448.13 117 450 C116.34 450 115.68 450 115 450 C114.67 450.99 114.34 451.98 114 453 C112.21 454.58 112.21 454.58 109.94 456.25 C106.78 458.61 103.79 461.04 100.88 463.69 C97.46 466.73 94 468.8 90 471 C89.16 471.87 89.16 471.87 88.31 472.75 C87 474 87 474 83 474 C83 474.66 83 475.32 83 476 C74.02 482.48 60.76 484.21 50 483 C46.57 482.23 43.29 481.25 40 480 C40 479.34 40 478.68 40 478 C39.24 478.08 38.47 478.16 37.69 478.25 C35 478 35 478 33.38 476.06 C32.69 475.04 32.69 475.04 32 474 C31.01 473.67 30.02 473.34 29 473 C21.05 464.52 17.08 455.8 16.69 444.12 C16.82 440.45 17.75 437.46 19 434 C19.15 432.63 19.27 431.25 19.38 429.88 C20.07 425.59 20.8 424.71 24 422 C24.31 421.3 24.62 420.6 24.94 419.88 C26 418 26 418 28.25 417.19 C31.72 415.69 33.21 413.61 35.47 410.66 C37.92 408 40.62 407.13 44 406 C46.12 405.07 47.71 404.31 49.31 402.62 C52.1 399.94 56.07 397 60 397 C60 396.34 60 395.68 60 395 C64.47 391 64.47 391 67 391 C67.33 390.34 67.66 389.68 68 389 C68.99 389 69.98 389 71 389 C71 388.34 71 387.68 71 387 C72.63 385.62 74.29 384.28 76 383 C75.34 382.34 74.68 381.68 74 381 C75.65 380.67 77.3 380.34 79 380 C79.33 379.01 79.66 378.02 80 377 C80.78 376.24 81.57 375.47 82.38 374.69 C85.06 371.94 86.46 369.49 88 366 C88.99 366.33 89.98 366.66 91 367 C91.25 366.28 91.5 365.56 91.75 364.81 C93.11 361.75 94.89 359.59 97 357 C97.33 356.01 97.66 355.02 98 354 C97.67 353.34 97.34 352.68 97 352 C97.76 351.65 98.53 351.3 99.31 350.94 C102.78 348.44 103.46 345.93 105 342 C105.47 341.54 105.93 341.07 106.41 340.6 C108.42 338.58 109.48 336.47 110.75 333.94 C111.42 332.62 111.42 332.62 112.11 331.28 C112.4 330.53 112.7 329.77 113 329 C112.67 328.34 112.34 327.68 112 327 C112.66 326.34 113.32 325.68 114 325 C114.33 325.33 114.66 325.66 115 326 C115.22 325.27 115.44 324.54 115.66 323.79 C117.7 317.09 119.83 310.45 122.06 303.81 C124.47 296.64 124.47 296.64 126.81 289.44 C127.13 288.45 127.13 288.45 127.46 287.43 C129.91 276.45 129.29 264.85 129.35 253.67 C129.37 251.28 129.39 248.89 129.43 246.51 C129.65 232.59 129.29 220.06 124.65 206.85 C123.69 204.11 122.88 201.33 122.04 198.55 C117.12 183.24 111.71 169.15 101.76 156.33 C100 154 100 154 98.42 151.36 C96.09 147.49 92.95 144.72 89.38 142 C86.85 139.87 85.59 137.87 84 135 C83.34 134.34 82.68 133.68 82 133 C81.13 131.79 81.13 131.79 80.25 130.56 C78.12 127.81 78.12 127.81 74.81 126.44 C72 125 72 125 71.12 122.81 C71.08 122.21 71.04 121.62 71 121 C70.4 120.92 69.8 120.83 69.19 120.75 C66.37 119.78 65.52 118.51 64 116 C64 115.34 64 114.68 64 114 C63.34 114 62.68 114 62 114 C62 113.34 62 112.68 62 112 C61.31 111.76 60.61 111.51 59.89 111.26 C56.56 109.81 53.68 107.9 50.69 105.88 C43.74 101.3 36.52 97.59 29.03 93.99 C27.01 93 25.02 91.98 23.03 90.93 C10 84.13 -3.41 79.47 -17.63 75.86 C-19.91 75.28 -22.17 74.63 -24.41 73.92 C-28.43 72.89 -32.12 72.63 -36.25 72.5 C-41.11 72.29 -45.74 71.98 -50.5 70.94 C-62.4 68.6 -74.56 70 -86.5 71.31 C-87.6 71.43 -88.7 71.55 -89.83 71.67 C-95.53 72.35 -100.71 73.36 -106.1 75.32 C-108.47 76.17 -110.83 76.64 -113.31 77.06 C-116.6 77.62 -119.04 78.5 -122 80 C-124.19 80.54 -126.37 80.94 -128.59 81.34 C-131.62 82.17 -134.19 83.58 -137 85 C-139.58 85.96 -142.16 86.9 -144.75 87.81 C-150.52 89.91 -155.67 92.29 -160.84 95.64 C-162.87 96.92 -164.88 97.94 -167.06 98.94 C-171.1 100.88 -174.38 103.54 -177.86 106.36 C-180 108 -180 108 -183.38 109.75 C-187.67 112.01 -190.83 115.68 -194.09 119.2 C-196.67 121.93 -198.34 123.27 -202 124 C-203.55 126.32 -204.8 128.51 -206 131 C-206.66 131 -207.32 131 -208 131 C-208.23 131.56 -208.45 132.11 -208.69 132.69 C-210.38 135.67 -212.52 137.63 -215 140 C-216.23 141.18 -217.46 142.37 -218.69 143.56 C-219.27 144.12 -219.85 144.68 -220.45 145.25 C-222.08 147.09 -222.91 148.81 -224 151 C-225.32 152.68 -226.66 154.34 -228 156 C-236.15 167.9 -236.15 167.9 -242 181 C-242.63 182.24 -243.28 183.46 -243.94 184.69 C-245.99 188.72 -247.05 192.58 -248 197 C-248.66 197 -249.32 197 -250 197 C-250.72 199.57 -251.12 201.96 -251.44 204.62 C-252 208 -252 208 -254 210 C-254.53 211.89 -254.53 211.89 -254.82 214.06 C-254.94 214.86 -255.07 215.66 -255.19 216.48 C-255.32 217.31 -255.44 218.14 -255.56 219 C-255.81 220.65 -256.06 222.29 -256.32 223.94 C-256.42 224.67 -256.53 225.4 -256.64 226.15 C-257 228 -257 228 -258 230 C-261.95 256.95 -258.54 285.26 -250 311 C-250.66 311 -251.32 311 -252 311 C-251.25 312 -250.51 313 -249.74 314.03 C-247.12 317.71 -245.08 321.5 -243.12 325.56 C-242.44 326.97 -241.75 328.37 -241.07 329.77 C-240.72 330.48 -240.38 331.18 -240.03 331.9 C-239.03 333.94 -238 335.96 -236.96 337.98 C-236.64 338.6 -236.32 339.23 -235.99 339.87 C-235.11 341.59 -234.23 343.3 -233.35 345.01 C-232.12 347.74 -231.58 350.1 -231 353 C-230.34 353.33 -229.68 353.66 -229 354 C-219 367.31 -219 367.31 -219 372 C-218.38 372.26 -217.77 372.51 -217.13 372.77 C-214.69 374.18 -214.07 375.12 -212.86 377.62 C-212.51 378.33 -212.16 379.04 -211.8 379.77 C-211.46 380.5 -211.11 381.24 -210.75 382 C-210.2 383.11 -210.2 383.11 -209.65 384.23 C-207 389.69 -207 389.69 -207 392 C-206.01 392.33 -205.02 392.66 -204 393 C-201.76 395.32 -201.03 396.49 -200.81 399.75 C-200.87 400.49 -200.94 401.24 -201 402 C-200.34 402 -199.68 402 -199 402 C-197.38 403.38 -197.38 403.38 -196 405 C-196 405.66 -196 406.32 -196 407 C-195.34 407 -194.68 407 -194 407 C-193.61 407.95 -193.22 408.9 -192.81 409.88 C-189.63 417.24 -186.81 423.35 -181 429 C-180.27 430.69 -179.54 432.38 -178.89 434.1 C-177.46 437.15 -175.33 439.62 -173.21 442.2 C-172 444 -172 444 -172 447 C-171.38 447.58 -170.76 448.15 -170.12 448.75 C-168 451 -168 451 -167 454.62 C-166.36 458.08 -166.36 458.08 -163.88 459.44 C-163.26 459.62 -162.64 459.81 -162 460 C-162 460.99 -162 461.98 -162 463 C-161.34 463 -160.68 463 -160 463 C-159.9 463.76 -159.79 464.53 -159.69 465.31 C-158.94 468.24 -158.11 468.98 -156 471 C-156 471.99 -156 472.98 -156 474 C-155.34 474.33 -154.68 474.66 -154 475 C-150.04 479.56 -147 484.59 -144.16 489.9 C-142.61 492.72 -140.81 495.34 -139 498 C-137.47 500.51 -135.98 503.03 -134.5 505.57 C-133.76 506.83 -133.76 506.83 -133 508.12 C-132.5 508.97 -132.01 509.82 -131.5 510.7 C-130.12 513 -130.12 513 -128.36 514.57 C-126.09 516.95 -126.3 519.85 -126 523 C-125.34 523 -124.68 523 -124 523 C-124 523.66 -124 524.32 -124 525 C-123.34 525 -122.68 525 -122 525 C-121.92 525.72 -121.84 526.44 -121.75 527.18 C-120.83 530.62 -119.32 532.38 -117 535.06 C-114.41 538.06 -112.73 540.09 -112 544 C-111.53 544.62 -111.05 545.24 -110.56 545.88 C-108.67 548.44 -107.9 550.96 -107 554 C-106.34 554 -105.68 554 -105 554 C-103.24 555.98 -102.09 557.76 -101.13 560.23 C-99.29 564.73 -96.82 568.89 -94.46 573.14 C-93 576 -93 576 -93 578 C-92.38 578.26 -91.76 578.51 -91.12 578.78 C-88.69 580.18 -88.17 581.03 -87.06 583.56 C-85.61 586.7 -84.1 589.77 -82.44 592.81 C-82.04 593.54 -81.65 594.27 -81.25 595.02 C-80.08 597.04 -80.08 597.04 -78.44 598.55 C-76.09 600.91 -75.24 603.94 -74 607 C-73.4 608.05 -72.8 609.1 -72.19 610.19 C-71 613 -71 613 -71.69 615.31 C-73 617 -73 617 -75 618 C-85.4 618.73 -95.71 617.29 -106 616 C-105.67 615.01 -105.34 614.02 -105 613 C-106.07 613.04 -106.07 613.04 -107.16 613.08 C-120.73 613.51 -133.82 613.36 -147.19 610.75 C-148.77 610.44 -148.77 610.44 -150.38 610.13 C-165.44 606.93 -165.44 606.93 -169.95 601.77 C-170.33 600.98 -170.72 600.19 -171.12 599.38 C-173.07 595.71 -175.09 592.31 -177.5 588.94 C-183.07 581.1 -188.34 573.21 -192.81 564.69 C-195.13 560.4 -197.69 556.59 -200.7 552.76 C-202.48 550.35 -203.66 547.68 -205 545 C-206.47 542.97 -207.99 540.99 -209.52 539 C-211.23 536.69 -212.63 534.3 -214 531.78 C-215.1 529.82 -216.29 527.95 -217.5 526.06 C-224 515.74 -224 515.74 -224 512 C-224.66 512 -225.32 512 -226 512 C-227.47 510.14 -227.47 510.14 -229.06 507.69 C-229.59 506.89 -230.12 506.09 -230.66 505.26 C-232 503 -232 503 -233 500 C-233.52 499.48 -234.03 498.97 -234.56 498.44 C-235.04 497.96 -235.51 497.49 -236 497 C-236 496.34 -236 495.68 -236 495 C-236.6 494.4 -237.2 493.8 -237.81 493.19 C-240.07 490.93 -241.37 488.74 -243 486 C-243.8 485.07 -244.61 484.14 -245.44 483.19 C-247.82 480.41 -249.29 477.56 -250.84 474.26 C-252.71 470.62 -254.97 467.24 -257.2 463.81 C-258.93 461.12 -260.57 458.38 -262.19 455.62 C-263.78 452.92 -265.31 450.62 -267.31 448.19 C-269.19 445.76 -269.65 444.02 -270 441 C-270.66 441 -271.32 441 -272 441 C-273.29 439.54 -273.29 439.54 -274.62 437.62 C-275.07 437 -275.52 436.37 -275.98 435.73 C-277 434 -277 434 -277 432 C-277.66 431.67 -278.32 431.34 -279 431 C-279.4 430.16 -279.4 430.16 -279.81 429.31 C-280.99 426.79 -280.99 426.79 -283.36 424.29 C-286.01 421.15 -287.7 417.86 -289.44 414.12 C-291.76 409.26 -294.28 404.94 -297.65 400.73 C-300.3 397.32 -302.39 393.61 -303.93 389.57 C-305.02 386.96 -306.32 384.88 -307.94 382.56 C-310.27 379.14 -312.25 375.76 -314 372 C-315.97 367.86 -315.97 367.86 -318.5 364.06 C-322.29 358.84 -323.64 352.78 -325.25 346.63 C-326.21 343.28 -327.58 340.19 -329 337 C-331.51 330.71 -332.64 324.54 -333.47 317.82 C-333.85 314.81 -333.85 314.81 -336 312 C-336.41 309.11 -336.74 306.28 -337 303.38 C-337.66 296.28 -337.66 296.28 -339.06 289.31 C-343.57 270.87 -341.61 249.32 -339.33 230.66 C-338.97 227.76 -338.64 224.86 -338.3 221.95 C-338.06 219.91 -337.81 217.86 -337.56 215.81 C-337.45 214.87 -337.34 213.92 -337.23 212.95 C-336.56 207.72 -335.51 202.95 -333.69 197.99 C-332.99 195.96 -332.53 193.98 -332.12 191.88 C-330.97 186.36 -329.11 181.08 -327.28 175.76 C-326.51 173.49 -325.76 171.22 -325.07 168.93 C-321.41 157.01 -315.27 146.18 -309.24 135.33 C-308.16 133.31 -307.24 131.31 -306.38 129.19 C-304.88 125.72 -303.27 123.01 -301 120 C-300.34 120 -299.68 120 -299 120 C-298.92 119.09 -298.83 118.19 -298.75 117.25 C-297.9 113.56 -296.79 112.44 -294 110 C-293.67 109.34 -293.34 108.68 -293 108 C-292.34 108 -291.68 108 -291 108 C-290.9 107.45 -290.8 106.9 -290.7 106.33 C-289.83 103.43 -288.45 101.24 -286.81 98.69 C-286.24 97.78 -285.67 96.88 -285.08 95.95 C-280.19 89.01 -274.26 83.1 -268.25 77.12 C-267.48 76.35 -266.72 75.58 -265.93 74.79 C-265.19 74.06 -264.46 73.32 -263.7 72.57 C-263.04 71.91 -262.38 71.25 -261.69 70.56 C-260 69 -260 69 -258 68 C-256.45 66.24 -255 64.42 -253.54 62.59 C-252 61 -252 61 -249 60 C-248.5 58.51 -248.5 58.51 -248 57 C-247.13 56.85 -247.13 56.85 -246.25 56.69 C-243.24 55.77 -242.23 53.85 -240.37 51.42 C-238.3 49.28 -235.8 48.83 -233 48 C-232.67 47.01 -232.34 46.02 -232 45 C-230.35 44.29 -228.68 43.63 -227 43 C-225.66 42.01 -224.32 41.01 -223 40 C-216.59 36 -216.59 36 -214 36 C-214 35.34 -214 34.68 -214 34 C-207.09 28.82 -198.85 25.47 -191 22 C-191 21.34 -191 20.68 -191 20 C-189.91 19.71 -188.81 19.42 -187.69 19.12 C-183.96 18.18 -183.96 18.18 -181 16 C-179.29 15.56 -177.55 15.19 -175.81 14.88 C-174.91 14.71 -174.01 14.54 -173.08 14.37 C-172.39 14.25 -171.71 14.12 -171 14 C-171 13.34 -171 12.68 -171 12 C-170.39 11.89 -169.77 11.78 -169.14 11.67 C-168.33 11.51 -167.52 11.35 -166.69 11.19 C-165.89 11.04 -165.09 10.89 -164.26 10.73 C-161.74 9.91 -160.82 8.86 -159 7 C-158.01 7 -157.02 7 -156 7 C-149.44 5.99 -143.23 4.26 -137 2 C-137 1.34 -137 0.68 -137 0 C-136.34 0 -135.68 0 -135 0 C-134.67 -0.66 -134.34 -1.32 -134 -2 C-134 -1.34 -134 -0.68 -134 0 C-133.04 -0.13 -132.09 -0.27 -131.11 -0.4 C-123.41 -1.45 -115.74 -2.39 -108 -3 C-108 -3.66 -108 -4.32 -108 -5 C-72.23 -8.48 -35.07 -8.13 0 0 Z M-242 174 C-241 176 -241 176 -241 176 Z M-203 398 C-202 400 -202 400 -202 400 Z M137 424 C137.66 424.66 138.32 425.32 139 426 C139.33 425.34 139.66 424.68 140 424 C139.01 424 138.02 424 137 424 Z " fill="#1094F0" transform="translate(730,256)"/>
<path d="M0 0 C2.15 -0.03 4.29 -0.05 6.44 -0.06 C7.63 -0.07 8.83 -0.09 10.06 -0.1 C13 0 13 0 14 1 C15.82 1.28 17.64 1.49 19.47 1.68 C20.6 1.81 21.73 1.93 22.89 2.06 C25.27 2.31 27.64 2.56 30.02 2.81 C36.47 3.51 42.71 4.42 49 6 C50.22 6.28 51.44 6.57 52.7 6.86 C60.42 8.8 67.17 11.21 74.29 14.83 C77.12 16.26 77.12 16.26 81 16 C81.66 16.33 82.32 16.66 83 17 C83 17.66 83 18.32 83 19 C84.11 19.31 85.23 19.62 86.38 19.94 C90 21 90 21 92 22 C92 22.66 92 23.32 92 24 C92.97 24.29 93.94 24.58 94.94 24.88 C98 26 98 26 99 28 C99.99 28 100.98 28 102 28 C102.25 28.62 102.5 29.24 102.75 29.88 C104.21 32.35 105.38 32.95 108 34 C108 34.66 108 35.32 108 36 C108.72 36.06 109.44 36.12 110.19 36.19 C113.87 37.25 115.46 39.19 118 42 C118.66 42.66 119.32 43.32 120 44 C120.33 44.99 120.66 45.98 121 47 C121.99 47.33 122.98 47.66 124 48 C125.03 48.97 126.03 49.97 127 51 C128.06 51.84 129.12 52.67 130.19 53.5 C136.46 58.81 140.85 65.98 145 73 C146.94 75.94 148.91 78.86 150.91 81.77 C155.72 89.2 159.78 97.37 162.32 105.87 C163.08 108.26 164.06 110.51 165.06 112.81 C167.02 117.58 167.84 122.24 168.57 127.32 C168.95 130.12 168.95 130.12 170.06 133.19 C175.16 148.47 172.47 168.04 170.19 183.56 C170.02 184.7 169.86 185.83 169.69 187 C168.77 192.77 167.62 197.77 165 203 C164.34 203 163.68 203 163 203 C163.25 203.66 163.5 204.32 163.75 205 C164.07 208.83 162.85 210.56 161.03 213.84 C159.98 216.05 159.6 217.84 159.25 220.25 C158.23 225.6 155.3 229.45 152.17 233.81 C150.46 236.32 149.12 238.67 147.75 241.36 C144.91 246.57 141.06 250.29 136.75 254.31 C135.3 255.68 133.86 257.05 132.42 258.43 C131.79 259.02 131.16 259.61 130.5 260.22 C128.84 262.19 128.6 263.54 128 266 C126.02 267.69 124.02 269.35 122 271 C120.81 273.05 120.81 273.05 120 275 C118.5 276.75 118.5 276.75 117 278 C116.34 278 115.68 278 115 278 C115 278.66 115 279.32 115 280 C113.37 281.05 111.69 282.04 110 283 C108.69 283.91 107.37 284.83 106.06 285.75 C94.23 293.54 84.13 297.6 70 298 C69.67 297.67 69.34 297.34 69 297 C66.77 296.87 64.54 296.77 62.31 296.69 C56.63 296.29 53.32 295.93 49 292 C48.2 291.32 47.4 290.64 46.57 289.95 C37.9 282.48 32.78 275.65 31.61 264.13 C31 252.74 33.31 243.05 40.19 233.62 C43.77 230.28 47.64 227.51 51.67 224.73 C54.08 223.21 54.08 223.21 55 221 C55.66 221 56.32 221 57 221 C57.33 220.34 57.66 219.68 58 219 C60.06 218.38 60.06 218.38 62 218 C62 217.34 62 216.68 62 216 C63.51 214.75 65.02 213.51 66.55 212.3 C68.15 211.03 68.15 211.03 69 208.88 C70 207 70 207 72.81 205.83 C76.8 203.54 78.2 200.85 80.06 196.81 C80.4 196.1 80.74 195.4 81.08 194.67 C86.81 182.27 89.78 170.67 90 157 C89.34 156.67 88.68 156.34 88 156 C88.66 156 89.32 156 90 156 C89.88 154.78 89.75 153.57 89.62 152.31 C89.56 151.63 89.49 150.94 89.41 150.24 C88.93 147.64 88.01 145.44 87 143 C86.36 140.92 85.74 138.84 85.12 136.75 C82.58 127.37 82.58 127.37 77.38 119.38 C76 118 76 118 76 116 C75.34 116 74.68 116 74 116 C73.59 114.93 73.17 113.86 72.75 112.75 C71.36 109.45 69.63 107.45 67 105 C67 104.34 67 103.68 67 103 C66.01 102.67 65.02 102.34 64 102 C64 101.34 64 100.68 64 100 C63.34 100 62.68 100 62 100 C62 99.34 62 98.68 62 98 C61.46 97.77 60.93 97.55 60.38 97.31 C57.84 95.91 55.82 94.16 53.62 92.29 C45.56 85.86 35.44 82.92 25.57 80.61 C23 80 23 80 20 79 C15.66 78.77 11.32 78.77 6.97 78.76 C4.84 78.75 2.71 78.72 0.58 78.69 C-6.61 78.63 -12.45 78.9 -19 82 C-20.28 82.29 -21.56 82.58 -22.88 82.88 C-27.15 83.86 -30.77 85.79 -34.61 87.88 C-37.08 89.04 -39.32 89.53 -42 90 C-44.76 91.38 -45.44 93.38 -47 96 C-48.56 97.84 -49.68 98.86 -51.88 99.85 C-59.91 104.21 -65.71 114.84 -69 123 C-69.99 125.02 -71 127.01 -72.04 129.01 C-80.1 145.65 -81.8 164.3 -76.04 181.84 C-74.73 185.51 -73.07 188.7 -71 192 C-69.96 193.99 -68.94 195.99 -67.94 198 C-67.43 199.01 -66.92 200.02 -66.4 201.06 C-65.53 202.89 -64.71 204.74 -63.96 206.62 C-63.04 208.91 -61.97 210.98 -60.75 213.12 C-58.76 216.64 -56.84 220.18 -54.94 223.75 C-52.9 227.5 -50.75 230.72 -48 234 C-46.73 235.96 -45.52 237.95 -44.3 239.94 C-43.02 241.97 -41.63 243.89 -40.19 245.81 C-38 249 -38 249 -38 252 C-36.45 253.47 -36.45 253.47 -34.5 254.81 C-31.05 257.58 -31.05 257.58 -30.56 261.38 C-30.78 262.67 -30.78 262.67 -31 264 C-30.34 264 -29.68 264 -29 264 C-29 264.66 -29 265.32 -29 266 C-28.34 266 -27.68 266 -27 266 C-27 267.32 -27 268.64 -27 270 C-26.34 270.33 -25.68 270.66 -25 271 C-24.01 272.72 -23.02 274.45 -22.1 276.21 C-20.93 278.12 -19.58 279.43 -18 281 C-16.22 283.6 -14.63 286.31 -13 289 C-12.4 289.91 -11.8 290.82 -11.19 291.75 C-10 294 -10 294 -10 298 C-9.36 298.27 -8.72 298.54 -8.06 298.81 C-6 300 -6 300 -5 303 C-4.23 303.74 -4.23 303.74 -3.44 304.5 C-2 306 -2 306 -2 309 C-1.34 309 -0.68 309 0 309 C0.38 309.71 0.75 310.43 1.14 311.16 C4.64 317.73 4.64 317.73 8.81 323.88 C10.86 326.8 11.68 328.5 12 332 C12.99 332.33 13.98 332.66 15 333 C16.35 334.49 16.35 334.49 17.62 336.31 C18.05 336.91 18.48 337.5 18.91 338.11 C20.05 340.09 20.46 341.8 21 344 C23.09 347.97 25.6 351.52 28.5 354.94 C31.07 358.08 32.85 361.22 34.75 364.79 C35.87 366.76 37.05 368.47 38.44 370.25 C42.05 375.11 47 382.86 47 389 C48.21 389.31 48.21 389.31 49.44 389.62 C50.71 390.31 50.71 390.31 52 391 C52.39 392.99 52.72 394.99 53 397 C54.31 398.35 55.65 399.69 57 401 C57.69 402.99 58.36 404.99 59 407 C60.54 408.71 60.54 408.71 62 410 C62 410.66 62 411.32 62 412 C62.66 412 63.32 412 64 412 C65.4 414.05 65.4 414.05 66.94 416.75 C68.42 419.34 69.85 421.8 71.66 424.17 C73 426 73 426 73.5 428.56 C74.09 431.44 74.93 432.01 77 434 C77.41 434.87 77.83 435.73 78.25 436.62 C79.79 439.6 81.35 441.79 83.44 444.38 C86.18 447.8 88.25 451.12 90.11 455.09 C92.49 460.19 95.45 464.63 99 469 C99.69 470.32 100.36 471.65 101 473 C103.37 477.93 105.89 482.48 109 487 C110.01 488.66 111.01 490.33 112 492 C112.64 492.96 112.64 492.96 113.3 493.95 C113.76 494.65 114.21 495.34 114.69 496.06 C115.12 496.71 115.56 497.36 116.01 498.04 C117 500 117 500 117 504 C116.34 504 115.68 504 115 504 C114.74 504.63 114.48 505.26 114.22 505.91 C112.49 508.87 110.23 509.29 107.05 510.22 C100.9 511.79 94.72 513.18 88.52 514.47 C86.84 514.82 85.17 515.18 83.5 515.55 C73.23 517.82 63.13 519.38 52.62 519.94 C51.67 520 50.71 520.05 49.73 520.11 C43.98 520.33 40.01 519.93 35 517 C33 514.84 33 514.84 31.44 512.38 C30.87 511.5 30.3 510.62 29.71 509.71 C29.15 508.82 28.58 507.92 28 507 C26.86 505.33 25.71 503.67 24.56 502 C22 498.25 22 498.25 22 496 C21.34 496 20.68 496 20 496 C18.86 494.25 17.82 492.45 16.81 490.62 C13.98 485.61 10.92 480.93 7.57 476.25 C5.49 473.27 3.75 470.19 2 467 C0.34 464.05 -1.29 461.65 -3.5 459.06 C-5.9 456.12 -7.31 453.38 -9 450 C-9.83 449.01 -10.65 448.02 -11.5 447 C-13.93 444.08 -15.37 441.41 -17 438 C-18.32 435.99 -19.66 433.99 -21 432 C-23.67 427.7 -26.31 423.44 -28.5 418.88 C-29.81 416.37 -31.16 414.41 -32.88 412.19 C-35.54 408.74 -37.6 405.2 -39.64 401.36 C-41.67 397.83 -44.07 394.59 -46.44 391.28 C-48.25 388.64 -49.6 385.87 -51 383 C-51.78 381.95 -52.57 380.9 -53.38 379.81 C-57.06 374.8 -61 368.31 -61 362 C-61.58 361.8 -62.15 361.6 -62.75 361.39 C-65.93 359.43 -67.17 356.95 -69.06 353.75 C-70.07 352.07 -70.07 352.07 -71.1 350.36 C-72.31 348.22 -73.47 346.04 -74.57 343.84 C-75.84 341.32 -77.2 339.11 -78.81 336.81 C-81.78 332.47 -84.27 327.94 -86.7 323.29 C-87.92 320.9 -87.92 320.9 -90 319 C-90 318.01 -90 317.02 -90 316 C-90.99 315.67 -91.98 315.34 -93 315 C-93.95 313.16 -94.89 311.32 -95.77 309.44 C-97.66 305.69 -99.99 302.25 -102.27 298.73 C-103.81 296.3 -105.21 293.85 -106.56 291.31 C-108.55 287.65 -110.86 284.44 -113.4 281.15 C-118.72 274 -123.1 266.2 -127.42 258.43 C-128.92 255.76 -128.92 255.76 -132 254 C-133.02 252.01 -134.01 250.01 -135 248 C-135.88 246.68 -136.78 245.37 -137.69 244.06 C-144.27 234.31 -149.26 224.15 -152.98 213.01 C-153.99 209.85 -153.99 209.85 -155.69 206.38 C-157.29 202.25 -157.88 198.23 -158.53 193.86 C-159.08 190.48 -160.05 187.29 -161 184 C-161.87 178.3 -162.15 172.79 -162.09 167.02 C-162.08 166.18 -162.08 165.34 -162.07 164.48 C-162.04 161.78 -161.99 159.08 -161.94 156.38 C-161.92 155.46 -161.9 154.54 -161.88 153.59 C-161.56 139.37 -160.15 126.38 -155 113 C-154.64 112.02 -154.64 112.02 -154.28 111.03 C-153.53 109.01 -152.77 107.01 -152 105 C-151.71 104.21 -151.42 103.43 -151.12 102.62 C-148.77 96.46 -145.83 90.9 -142.44 85.25 C-139.46 80.23 -136.52 75.26 -134 70 C-133.34 70 -132.68 70 -132 70 C-131.94 69.44 -131.88 68.89 -131.81 68.31 C-130.9 65.7 -129.58 64.47 -127.58 62.61 C-125.58 60.57 -123.92 58.34 -122.19 56.06 C-119.07 52.09 -115.95 49.17 -111.81 46.3 C-109.26 44.47 -107.18 42.24 -105 40 C-103.36 38.63 -101.69 37.3 -100 36 C-99.38 35.51 -98.76 35.03 -98.12 34.52 C-94.22 31.51 -90.46 29.13 -86 27 C-83.99 25.68 -81.99 24.34 -80 23 C-78.68 22.32 -77.34 21.65 -76 21 C-74.91 20.36 -73.81 19.72 -72.69 19.06 C-70.26 17.66 -67.84 16.45 -65.25 15.38 C-61.94 14.09 -61.94 14.09 -59 12 C-57.68 12 -56.36 12 -55 12 C-52.99 11.47 -52.99 11.47 -50.94 10.69 C-45.69 8.86 -40.38 7.4 -35 6 C-33.78 5.66 -32.55 5.33 -31.29 4.98 C-26.55 3.8 -21.79 3.32 -16.94 2.88 C-16.08 2.79 -15.22 2.7 -14.33 2.61 C-9.53 2.15 -4.82 1.91 0 2 C0 1.34 0 0.68 0 0 Z M137 64 C138 66 138 66 138 66 Z M146 77 C147 79 147 79 147 79 Z M-49 236 C-48 238 -48 238 -48 238 Z M-48 238 C-47 240 -47 240 -47 240 Z M140 247 C141 249 141 249 141 249 Z M85 449 C86 451 86 451 86 451 Z M100 475 C101 477 101 477 101 477 Z " fill="#1094F0" transform="translate(660,351)"/>
<path d="M0 0 C5.34 2.57 9.79 5.51 14.19 9.5 C15.05 10.27 15.91 11.05 16.79 11.84 C19 14 19 14 21 17 C23.57 19.7 25.9 21.93 29 24 C29 24.66 29 25.32 29 26 C29.66 26 30.32 26 31 26 C31 26.66 31 27.32 31 28 C31.66 28 32.32 28 33 28 C33 28.66 33 29.32 33 30 C33.66 30 34.32 30 35 30 C36.51 31.91 37.92 33.82 39.31 35.81 C42.25 39.98 44.53 42.57 49 45 C50.19 47.06 50.19 47.06 51 49 C51.66 49.66 52.32 50.32 53 51 C48.07 51 45.09 47.08 41.74 43.76 C40.84 42.85 39.93 41.94 39 41 C37.88 39.87 36.75 38.75 35.62 37.62 C25 27 25 27 22.59 24.59 C20.12 22.12 17.63 19.66 15.14 17.21 C13.32 15.41 11.5 13.61 9.69 11.81 C8.76 10.9 7.82 9.98 6.87 9.04 C5.99 8.17 5.11 7.29 4.2 6.39 C3.39 5.6 2.59 4.8 1.76 3.98 C0 2 0 2 0 0 Z " fill="#136E9A" transform="translate(923,245)"/>
<path d="M0 0 C0.99 0.66 1.98 1.32 3 2 C-9.87 14.87 -22.74 27.74 -36 41 C-36 36.39 -33.79 33.88 -30.76 30.52 C-29.91 29.67 -29.06 28.83 -28.18 27.95 C-27.25 27.03 -26.33 26.1 -25.37 25.14 C-24.89 24.67 -24.41 24.19 -23.91 23.71 C-22.43 22.25 -20.96 20.78 -19.49 19.31 C-12.28 12.14 -12.28 12.14 -10 11 C-8.45 9.24 -7 7.42 -5.54 5.59 C-4 4 -4 4 -1 3 C-0.67 2.01 -0.34 1.02 0 0 Z " fill="#0F71B9" transform="translate(482,313)"/>
<path d="M0 0 C0.99 0 1.98 0 3 0 C4.03 1.31 5.02 2.65 6 4 C6.76 4.6 7.53 5.2 8.31 5.81 C11.15 8.12 13.34 10.6 15.67 13.41 C17.49 15.58 19.51 17.48 21.56 19.44 C24 22 24 22 25 25 C25.99 25.33 26.98 25.66 28 26 C28 26.66 28 27.32 28 28 C28.99 28.33 29.98 28.66 31 29 C35 33.46 35 33.46 35 36 C35.99 36.33 36.98 36.66 38 37 C37.67 37.99 37.34 38.98 37 40 C35.98 38.7 35.98 38.7 34.94 37.38 C32.43 34.35 29.64 31.93 26.62 29.43 C24.45 27.52 22.81 25.26 21 23 C19.89 22.02 18.76 21.07 17.62 20.12 C14.53 17.56 12.04 14.77 9.49 11.67 C7.98 9.98 6.4 8.6 4.62 7.19 C3.76 6.47 2.89 5.74 2 5 C2 4.34 2 3.68 2 3 C1.01 2.67 0.02 2.34 -1 2 C-0.67 1.34 -0.34 0.68 0 0 Z " fill="#0F5187" transform="translate(848,316)"/>
<path d="M0 0 C6.61 5.38 12.52 11.43 18.51 17.49 C19.82 18.82 21.15 20.15 22.47 21.47 C24.42 23.42 26.36 25.38 28.3 27.34 C29.49 28.54 30.68 29.74 31.88 30.94 C32.75 31.83 32.75 31.83 33.65 32.74 C37.6 36.71 41.7 40.4 46 44 C45.5 44.99 45.5 44.99 45 46 C39.13 41 33.58 35.74 28.12 30.29 C27.32 29.49 26.51 28.68 25.67 27.85 C23.98 26.16 22.28 24.47 20.59 22.77 C17.98 20.17 15.37 17.58 12.76 14.99 C11.11 13.34 9.46 11.69 7.81 10.04 C7.03 9.27 6.24 8.49 5.44 7.69 C4.72 6.97 4.01 6.25 3.27 5.51 C2.64 4.88 2 4.25 1.35 3.6 C0 2 0 2 0 0 Z " fill="#22B8F5" transform="translate(925,249)"/>
<path d="M0 0 C0.33 1.32 0.66 2.64 1 4 C0.39 4.53 -0.21 5.07 -0.84 5.62 C-7.12 11.21 -13.11 17 -19 23 C-19.33 22.01 -19.66 21.02 -20 20 C-13.4 13.4 -6.8 6.8 0 0 Z " fill="#0F5993" transform="translate(893,699)"/>
<path d="M0 0 C4.27 1.77 5.92 4.4 8.44 8.12 C10.15 10.18 11.61 10.89 14 12 C15.12 14 15.12 14 16 16 C16.66 16.66 17.32 17.32 18 18 C13 18 9.91 13.86 6.44 10.56 C3.81 7.8 1.4 4.95 -1 2 C-0.67 1.34 -0.34 0.68 0 0 Z " fill="#0B3F6A" transform="translate(958,278)"/>
<path d="M0 0 C0.68 0.7 1.36 1.4 2.06 2.12 C4.12 4.19 6.26 6.08 8.5 7.94 C10.83 9.9 12.84 11.88 14.75 14.25 C16.89 17.14 16.89 17.14 20 19 C19.67 19.99 19.34 20.98 19 22 C18.67 21.01 18.34 20.02 18 19 C17.42 18.9 16.85 18.79 16.25 18.69 C13.35 17.8 12.3 16.09 10.49 13.75 C8.22 11.09 5.56 8.94 2.87 6.71 C0.95 4.96 -0.51 3.12 -2 1 C-1.34 0.67 -0.68 0.34 0 0 Z " fill="#0F5288" transform="translate(870,293)"/>
<path d="M0 0 C1.08 1.11 1.08 1.11 2.19 2.25 C4.83 4.95 4.83 4.95 7.38 6.81 C11.01 9.84 13.96 13.39 17 17 C16.67 17.66 16.34 18.32 16 19 C14.06 18.25 14.06 18.25 12 17 C11.25 14.88 11.25 14.88 11 13 C10.4 12.92 9.8 12.83 9.19 12.75 C6.37 11.78 5.52 10.51 4 8 C4 7.34 4 6.68 4 6 C3.34 6 2.68 6 2 6 C2 5.34 2 4.68 2 4 C1.01 3.67 0.02 3.34 -1 3 C-0.67 2.01 -0.34 1.02 0 0 Z " fill="#0F5289" transform="translate(790,364)"/>
<path d="M0 0 C0.66 0.33 1.32 0.66 2 1 C-2.08 5.86 -6.36 10.49 -10.81 15 C-11.53 15.74 -11.53 15.74 -12.27 16.49 C-13.47 17.7 -14.73 18.86 -16 20 C-16.66 20 -17.32 20 -18 20 C-18 19.34 -18 18.68 -18 18 C-17.34 18 -16.68 18 -16 18 C-15.34 16.68 -14.68 15.36 -14 14 C-13.34 14 -12.68 14 -12 14 C-11.67 13.01 -11.34 12.02 -11 11 C-9.26 9.32 -9.26 9.32 -7.12 7.56 C-4.31 5.24 -2.09 2.99 0 0 Z " fill="#0F5187" transform="translate(437,323)"/>
<path d="M0 0 C2.4 2.4 2.34 3.33 2.62 6.62 C2.7 7.44 2.77 8.26 2.85 9.1 C2.93 10.04 2.93 10.04 3 11 C2.34 11 1.68 11 1 11 C1 11.99 1 12.98 1 14 C-0.65 13.67 -2.3 13.34 -4 13 C-3.29 11.73 -3.29 11.73 -2.56 10.44 C-0.94 6.87 -0.39 3.87 0 0 Z " fill="#1EA7E6" transform="translate(511,829)"/>
<path d="M0 0 C0 3 0 3 -1.38 4.72 C-2.01 5.33 -2.63 5.94 -3.28 6.57 C-3.96 7.24 -4.63 7.91 -5.33 8.6 C-6.05 9.29 -6.76 9.98 -7.5 10.69 C-8.57 11.74 -8.57 11.74 -9.67 12.81 C-11.44 14.55 -13.22 16.28 -15 18 C-15.66 17.34 -16.32 16.68 -17 16 C-16.34 15.01 -15.68 14.02 -15 13 C-14.67 12.34 -14.34 11.68 -14 11 C-13.34 11.33 -12.68 11.66 -12 12 C-11.28 11.28 -10.56 10.56 -9.81 9.81 C-6.54 6.54 -3.27 3.27 0 0 Z " fill="#0F5389" transform="translate(881,669)"/>
<path d="M0 0 C3.8 0.56 5.59 2.18 8.25 4.88 C8.96 5.57 9.66 6.27 10.39 6.99 C12 9 12 9 12 12 C7.16 9.95 2.96 6.96 0.62 2.19 C0.42 1.47 0.21 0.74 0 0 Z " fill="#0F5289" transform="translate(815,391)"/>
<path d="M0 0 C4.81 2.55 8.32 4.99 12 9 C11.67 9.99 11.34 10.98 11 12 C8.15 11.64 7.11 11.11 5.08 9 C4.47 8.2 3.87 7.39 3.25 6.56 C2.64 5.76 2.02 4.96 1.39 4.13 C0 2 0 2 0 0 Z " fill="#1B90C5" transform="translate(782,399)"/>
<path d="M0 0 C0.66 0 1.32 0 2 0 C2.97 1.41 3.94 2.82 4.85 4.27 C6.68 7.03 8.84 9.48 11 12 C7.46 11.42 5.79 10.17 3.31 7.62 C2.71 7.02 2.11 6.41 1.49 5.79 C0 4 0 4 -1 1 C-0.67 0.67 -0.34 0.34 0 0 Z " fill="#0F548D" transform="translate(698,629)"/>
<path d="M0 0 C0.99 0 1.98 0 3 0 C4.04 1.31 5.03 2.64 6 4 C6.72 4.52 7.44 5.03 8.19 5.56 C9.08 6.27 9.08 6.27 10 7 C10 7.99 10 8.98 10 10 C6.21 9.46 4.45 7.88 2 5 C2 4.34 2 3.68 2 3 C1.01 2.67 0.02 2.34 -1 2 C-0.67 1.34 -0.34 0.68 0 0 Z " fill="#0E4C7F" transform="translate(848,316)"/>
<path d="M0 0 C0.66 0.66 1.32 1.32 2 2 C-1.3 4.97 -4.6 7.94 -8 11 C-8.33 9.68 -8.66 8.36 -9 7 C-6.03 4.69 -3.06 2.38 0 0 Z " fill="#0F5B97" transform="translate(711,576)"/>
<path d="M0 0 C0.69 0.6 0.69 0.6 1.39 1.21 C2 1.74 2.62 2.27 3.25 2.81 C3.89 3.36 4.52 3.91 5.18 4.48 C7.04 6.08 7.04 6.08 9.38 7.62 C11.35 9.3 11.65 10.48 12 13 C11.01 12.67 10.02 12.34 9 12 C9 11.34 9 10.68 9 10 C8.01 9.67 7.02 9.34 6 9 C6 8.34 6 7.68 6 7 C5.34 7 4.68 7 4 7 C4 6.34 4 5.68 4 5 C2.68 4.34 1.36 3.68 0 3 C0 2.01 0 1.02 0 0 Z " fill="#0F558D" transform="translate(718,444)"/>
<path d="M0 0 C0.66 0.66 1.32 1.32 2 2 C-1.63 5.63 -5.26 9.26 -9 13 C-9.66 12.34 -10.32 11.68 -11 11 C-9.68 10.34 -8.36 9.68 -7 9 C-7 8.34 -7 7.68 -7 7 C-5.62 5.38 -5.62 5.38 -4 4 C-3.34 4 -2.68 4 -2 4 C-1.34 2.68 -0.68 1.36 0 0 Z " fill="#0F5187" transform="translate(799,599)"/>
<path d="M0 0 C3.73 1.24 5.39 3.11 8 6 C8 6.66 8 7.32 8 8 C8.64 8.27 9.28 8.54 9.94 8.81 C12 10 12 10 13 13 C9.9 11.62 7.76 10.03 5.38 7.62 C4.78 7.04 4.19 6.45 3.59 5.85 C1.99 3.99 0.99 2.23 0 0 Z " fill="#22B8F5" transform="translate(854,325)"/>
<path d="M0 0 C0.33 1.32 0.66 2.64 1 4 C-0.29 5.17 -1.58 6.34 -2.88 7.5 C-3.59 8.15 -4.31 8.8 -5.05 9.47 C-7 11 -7 11 -9 11 C-7.59 7.78 -5.9 5.68 -3.38 3.25 C-2.74 2.64 -2.11 2.02 -1.46 1.39 C-0.74 0.7 -0.74 0.7 0 0 Z " fill="#0F63A3" transform="translate(893,699)"/>
<path d="M0 0 C0.33 0 0.66 0 1 0 C1 7.26 1 14.52 1 22 C0.67 22 0.34 22 0 22 C0 14.74 0 7.48 0 0 Z " fill="#23BAF6" transform="translate(1045,469)"/>
<path d="M0 0 C0.99 0.33 1.98 0.66 3 1 C1.35 2.65 -0.3 4.3 -2 6 C-2.66 5.67 -3.32 5.34 -4 5 C-2.68 3.35 -1.36 1.7 0 0 Z " fill="#0F62A1" transform="translate(882,705)"/>
<path d="M0 0 C3.63 0 7.26 0 11 0 C11 0.33 11 0.66 11 1 C7.37 1 3.74 1 0 1 C0 0.67 0 0.34 0 0 Z " fill="#23BAF6" transform="translate(613,870)"/>
<path d="M0 0 C0.66 0.33 1.32 0.66 2 1 C1.01 1.99 0.02 2.98 -1 4 C-1.66 3.67 -2.32 3.34 -3 3 C-2.01 2.01 -1.02 1.02 0 0 Z " fill="#0F5994" transform="translate(891,697)"/>
<path d="M0 0 C0 0.99 0 1.98 0 3 C-0.99 3.66 -1.98 4.32 -3 5 C-1.12 1.12 -1.12 1.12 0 0 Z " fill="#0F5187" transform="translate(765,663)"/>
<path d="M0 0 C0.66 0.33 1.32 0.66 2 1 C-0.48 2.49 -0.48 2.49 -3 4 C-2.67 3.01 -2.34 2.02 -2 1 C-1.34 0.67 -0.68 0.34 0 0 Z " fill="#0F73BC" transform="translate(801,640)"/>
<path d="M0 0 C0 0.99 0 1.98 0 3 C-0.99 3.66 -1.98 4.32 -3 5 C-1.12 1.12 -1.12 1.12 0 0 Z " fill="#26EAF7" transform="translate(792,610)"/>
<path d="M0 0 C2.64 0 5.28 0 8 0 C8 0.33 8 0.66 8 1 C5.36 1 2.72 1 0 1 C0 0.67 0 0.34 0 0 Z " fill="#1095F1" transform="translate(653,146)"/>
<path d="M0 0 C0 0.99 0 1.98 0 3 C-0.99 3 -1.98 3 -3 3 C-2.01 2.01 -1.02 1.02 0 0 Z " fill="#0F5187" transform="translate(974,723)"/>
<path d="M0 0 C0.66 0.33 1.32 0.66 2 1 C0.68 1.99 -0.64 2.98 -2 4 C-1.34 2.68 -0.68 1.36 0 0 Z " fill="#0F5187" transform="translate(704,577)"/>
<path d="M0 0 C0.33 0.66 0.66 1.32 1 2 C0.67 2.66 0.34 3.32 0 4 C-0.99 3.67 -1.98 3.34 -3 3 C-2.34 3 -1.68 3 -1 3 C-0.67 2.01 -0.34 1.02 0 0 Z " fill="#0F5187" transform="translate(722,563)"/>
<path d="M0 0 C0.33 0 0.66 0 1 0 C1 2.31 1 4.62 1 7 C0.67 7 0.34 7 0 7 C0 4.69 0 2.38 0 0 Z " fill="#23BAF6" transform="translate(1045,538)"/>
<path d="M0 0 C0 0.99 0 1.98 0 3 C-0.99 3 -1.98 3 -3 3 C-2.01 2.01 -1.02 1.02 0 0 Z " fill="#0F5187" transform="translate(529,379)"/>
<path d="M0 0 C0 0.99 0 1.98 0 3 C-0.99 3 -1.98 3 -3 3 C-2.01 2.01 -1.02 1.02 0 0 Z " fill="#0F5187" transform="translate(450,340)"/>
<path d="M0 0 C0.66 0.33 1.32 0.66 2 1 C0.68 1.99 -0.64 2.98 -2 4 C-1.34 2.68 -0.68 1.36 0 0 Z " fill="#0F64A5" transform="translate(384,260)"/>
<path d="M0 0 C0 0.99 0 1.98 0 3 C-0.99 3.5 -0.99 3.5 -2 4 C-1.34 2.68 -0.68 1.36 0 0 Z " fill="#0F89DF" transform="translate(854,729)"/>
<path d="M0 0 C0.33 0 0.66 0 1 0 C1 1.98 1 3.96 1 6 C0.67 6 0.34 6 0 6 C0 4.02 0 2.04 0 0 Z " fill="#23BAF6" transform="translate(361,525)"/>
<path d="M0 0 C0 0.99 0 1.98 0 3 C-0.66 2.67 -1.32 2.34 -2 2 C-1.34 1.34 -0.68 0.68 0 0 Z " fill="#0F5187" transform="translate(823,748)"/>
<path d="M0 0 C0.66 0.33 1.32 0.66 2 1 C1.01 1.66 0.02 2.32 -1 3 C-0.67 2.01 -0.34 1.02 0 0 Z " fill="#0F79C6" transform="translate(869,718)"/>
<path d="M0 0 C0.66 0.33 1.32 0.66 2 1 C1.01 1.66 0.02 2.32 -1 3 C-0.67 2.01 -0.34 1.02 0 0 Z " fill="#0F6CB1" transform="translate(873,714)"/>
<path d="M0 0 C0.33 0 0.66 0 1 0 C1 1.65 1 3.3 1 5 C0.67 5 0.34 5 0 5 C0 3.35 0 1.7 0 0 Z " fill="#1095F1" transform="translate(745,697)"/>
<path d="M0 0 C0.99 0.33 1.98 0.66 3 1 C1.68 1.33 0.36 1.66 -1 2 C-0.67 1.34 -0.34 0.68 0 0 Z " fill="#0F6CB1" transform="translate(592,365)"/>
<path d="M0 0 C0.66 0.33 1.32 0.66 2 1 C1.01 1.66 0.02 2.32 -1 3 C-0.67 2.01 -0.34 1.02 0 0 Z " fill="#1095F1" transform="translate(486,308)"/>
<path d="M0 0 C4 1 4 1 4 1 Z " fill="#23BAF6" transform="translate(849,824)"/>
<path d="M0 0 C1 4 1 4 1 4 Z " fill="#23BAF6" transform="translate(1045,523)"/>
<path d="M0 0 C0.66 0.33 1.32 0.66 2 1 C1.01 1 0.02 1 -1 1 C-0.67 0.67 -0.34 0.34 0 0 Z " fill="#0F84D6" transform="translate(550,391)"/>
<path d="M0 0 C0.66 0.33 1.32 0.66 2 1 C1.01 1 0.02 1 -1 1 C-0.67 0.67 -0.34 0.34 0 0 Z " fill="#0F84D6" transform="translate(554,387)"/>
<path d="M0 0 C0 3 0 3 0 3 Z " fill="#0F62A1" transform="translate(457,334)"/>
<path d="M0 0 C0.99 0.5 0.99 0.5 2 1 C1.67 1.66 1.34 2.32 1 3 C0.67 2.01 0.34 1.02 0 0 Z " fill="#1095F1" transform="translate(345,307)"/>
<path d="M0 0 C0.66 0.33 1.32 0.66 2 1 C1.01 1 0.02 1 -1 1 C-0.67 0.67 -0.34 0.34 0 0 Z " fill="#0F62A1" transform="translate(392,252)"/>
<path d="M0 0 C0.66 0 1.32 0 2 0 C1.67 0.66 1.34 1.32 1 2 C0.67 1.34 0.34 0.68 0 0 Z " fill="#0F5187" transform="translate(378,757)"/>
<path d="M0 0 C0.99 0.5 0.99 0.5 2 1 C1.01 1.5 1.01 1.5 0 2 C0 1.34 0 0.68 0 0 Z " fill="#1095F1" transform="translate(819,751)"/>
<path d="M0 0 C0.33 0.66 0.66 1.32 1 2 C0.34 1.67 -0.32 1.34 -1 1 C-0.67 0.67 -0.34 0.34 0 0 Z " fill="#1095F1" transform="translate(843,736)"/>
<path d="M0 0 C0.33 0.66 0.66 1.32 1 2 C0.34 1.67 -0.32 1.34 -1 1 C-0.67 0.67 -0.34 0.34 0 0 Z " fill="#1095F1" transform="translate(857,727)"/>
<path d="M0 0 C0.99 0.5 0.99 0.5 2 1 C1.01 1.5 1.01 1.5 0 2 C0 1.34 0 0.68 0 0 Z " fill="#0F5187" transform="translate(433,706)"/>
<path d="" fill="#23BAF6" transform="translate(0,0)"/>
<path d="M0 0 C0.99 0.5 0.99 0.5 2 1 C1.01 1.5 1.01 1.5 0 2 C0 1.34 0 0.68 0 0 Z " fill="#0F5187" transform="translate(907,676)"/>
<path d="" fill="#1095F1" transform="translate(0,0)"/>
<path d="M0 0 C0.33 0.66 0.66 1.32 1 2 C0.34 1.67 -0.32 1.34 -1 1 C-0.67 0.67 -0.34 0.34 0 0 Z " fill="#26EAF7" transform="translate(796,606)"/>
<path d="M0 0 C0.99 0.5 0.99 0.5 2 1 C1.01 1.5 1.01 1.5 0 2 C0 1.34 0 0.68 0 0 Z " fill="#1095F1" transform="translate(725,561)"/>
<path d="M0 0 C0.99 0.5 0.99 0.5 2 1 C1.01 1.5 1.01 1.5 0 2 C0 1.34 0 0.68 0 0 Z " fill="#1095F1" transform="translate(519,427)"/>
<path d="M0 0 C0.99 0.5 0.99 0.5 2 1 C1.01 1.5 1.01 1.5 0 2 C0 1.34 0 0.68 0 0 Z " fill="#1095F1" transform="translate(530,411)"/>
<path d="M0 0 C0.33 0.66 0.66 1.32 1 2 C0.34 1.67 -0.32 1.34 -1 1 C-0.67 0.67 -0.34 0.34 0 0 Z " fill="#1095F1" transform="translate(440,356)"/>
<path d="M0 0 C0.99 0.5 0.99 0.5 2 1 C1.01 1.5 1.01 1.5 0 2 C0 1.34 0 0.68 0 0 Z " fill="#1095F1" transform="translate(319,352)"/>
<path d="M0 0 C0.99 0.5 0.99 0.5 2 1 C1.01 1.5 1.01 1.5 0 2 C0 1.34 0 0.68 0 0 Z " fill="#0F5187" transform="translate(471,319)"/>
<path d="M0 0 C0.99 0.5 0.99 0.5 2 1 C1.01 1.5 1.01 1.5 0 2 C0 1.34 0 0.68 0 0 Z " fill="#0F5187" transform="translate(475,316)"/>
<path d="" fill="#1095F1" transform="translate(0,0)"/>
<path d="M0 0 C0.99 0.5 0.99 0.5 2 1 C1.01 1.5 1.01 1.5 0 2 C0 1.34 0 0.68 0 0 Z " fill="#1095F1" transform="translate(571,261)"/>
<path d="M0 0 C0.99 0.5 0.99 0.5 2 1 C1.01 1.5 1.01 1.5 0 2 C0 1.34 0 0.68 0 0 Z " fill="#0F5187" transform="translate(387,256)"/>
<path d="M0 0 C0.33 0.66 0.66 1.32 1 2 C0.34 1.67 -0.32 1.34 -1 1 C-0.67 0.67 -0.34 0.34 0 0 Z " fill="#0F5187" transform="translate(396,248)"/>
<path d="M0 0 C0.99 0.5 0.99 0.5 2 1 C1.01 1.5 1.01 1.5 0 2 C0 1.34 0 0.68 0 0 Z " fill="#0F67AA" transform="translate(399,244)"/>
<path d="M0 0 C3 1 3 1 3 1 Z " fill="#1095F1" transform="translate(417,231)"/>
<path d="M0 0 C3 1 3 1 3 1 Z " fill="#1095F1" transform="translate(459,202)"/>
<path d="M0 0 C0.33 0.66 0.66 1.32 1 2 C0.34 1.67 -0.32 1.34 -1 1 C-0.67 0.67 -0.34 0.34 0 0 Z " fill="#1095F1" transform="translate(524,171)"/>
<path d="M0 0 C0.99 0.5 0.99 0.5 2 1 C1.01 1.5 1.01 1.5 0 2 C0 1.34 0 0.68 0 0 Z " fill="#1095F1" transform="translate(538,164)"/>
<path d="M0 0 C3 1 3 1 3 1 Z " fill="#1095F1" transform="translate(663,146)"/>
<path d="" fill="#23BAF6" transform="translate(0,0)"/>
<path d="M0 0 C2 1 2 1 2 1 Z " fill="#0F5187" transform="translate(816,755)"/>
<path d="" fill="#23BAF6" transform="translate(0,0)"/>
<path d="" fill="#0F5187" transform="translate(0,0)"/>
<path d="" fill="#23BAF6" transform="translate(0,0)"/>
<path d="M0 0 C2 1 2 1 2 1 Z " fill="#0F5187" transform="translate(992,697)"/>
<path d="M0 0 C2 1 2 1 2 1 Z " fill="#1095F1" transform="translate(751,679)"/>
<path d="M0 0 C2 1 2 1 2 1 Z " fill="#1095F1" transform="translate(913,671)"/>
<path d="" fill="#23BAF6" transform="translate(0,0)"/>
<path d="" fill="#23BAF6" transform="translate(0,0)"/>
<path d="" fill="#1095F1" transform="translate(0,0)"/>
<path d="M0 0 C2 1 2 1 2 1 Z " fill="#1095F1" transform="translate(821,617)"/>
<path d="" fill="#23BAF6" transform="translate(0,0)"/>
<path d="" fill="#1095F1" transform="translate(0,0)"/>
<path d="" fill="#1095F1" transform="translate(0,0)"/>
<path d="" fill="#1095F1" transform="translate(0,0)"/>
<path d="M0 0 C2 1 2 1 2 1 Z " fill="#1095F1" transform="translate(738,545)"/>
<path d="" fill="#1095F1" transform="translate(0,0)"/>
<path d="" fill="#0F5187" transform="translate(0,0)"/>
<path d="" fill="#1095F1" transform="translate(0,0)"/>
<path d="" fill="#0F5187" transform="translate(0,0)"/>
<path d="M0 0 C2 1 2 1 2 1 Z " fill="#0F5187" transform="translate(619,440)"/>
<path d="" fill="#1095F1" transform="translate(0,0)"/>
<path d="" fill="#1095F1" transform="translate(0,0)"/>
<path d="" fill="#1095F1" transform="translate(0,0)"/>
<path d="M0 0 C2 1 2 1 2 1 Z " fill="#0F5187" transform="translate(806,384)"/>
<path d="" fill="#0F5187" transform="translate(0,0)"/>
<path d="M0 0 C2 1 2 1 2 1 Z " fill="#1095F1" transform="translate(324,341)"/>
<path d="" fill="#0F5187" transform="translate(0,0)"/>
<path d="M0 0 C2 1 2 1 2 1 Z " fill="#1095F1" transform="translate(504,294)"/>
<path d="M0 0 C2 1 2 1 2 1 Z " fill="#23BAF6" transform="translate(802,282)"/>
<path d="M0 0 C2 1 2 1 2 1 Z " fill="#1095F1" transform="translate(528,281)"/>
<path d="M0 0 C2 1 2 1 2 1 Z " fill="#0F73BC" transform="translate(380,264)"/>
<path d="M0 0 C2 1 2 1 2 1 Z " fill="#23BAF6" transform="translate(747,259)"/>
<path d="" fill="#0F73BC" transform="translate(0,0)"/>
<path d="M0 0 C2 1 2 1 2 1 Z " fill="#1095F1" transform="translate(562,156)"/>
<path d="M0 0 C2 1 2 1 2 1 Z " fill="#1095F1" transform="translate(649,146)"/>
<path d="" fill="#1095F1" transform="translate(0,0)"/>
<path d="" fill="#1095F1" transform="translate(0,0)"/>
<path d="" fill="#1095F1" transform="translate(0,0)"/>
<path d="" fill="#1095F1" transform="translate(0,0)"/>
<path d="" fill="#23BAF6" transform="translate(0,0)"/>
<path d="" fill="#26EAF7" transform="translate(0,0)"/>
<path d="" fill="#26EAF7" transform="translate(0,0)"/>
<path d="" fill="#0F5187" transform="translate(0,0)"/>
<path d="" fill="#23BAF6" transform="translate(0,0)"/>
<path d="" fill="#1095F1" transform="translate(0,0)"/>
<path d="" fill="#0F5187" transform="translate(0,0)"/>
<path d="" fill="#1095F1" transform="translate(0,0)"/>
<path d="" fill="#0F5187" transform="translate(0,0)"/>
<path d="" fill="#1095F1" transform="translate(0,0)"/>
<path d="" fill="#1095F1" transform="translate(0,0)"/>
<path d="" fill="#0F5187" transform="translate(0,0)"/>
<path d="" fill="#1095F1" transform="translate(0,0)"/>
<path d="" fill="#0F5187" transform="translate(0,0)"/>
<path d="" fill="#23BAF6" transform="translate(0,0)"/>
<path d="" fill="#0F5187" transform="translate(0,0)"/>
<path d="" fill="#0F5187" transform="translate(0,0)"/>
<path d="" fill="#1095F1" transform="translate(0,0)"/>
<path d="" fill="#0F5187" transform="translate(0,0)"/>
<path d="" fill="#0F5187" transform="translate(0,0)"/>
<path d="" fill="#0F5187" transform="translate(0,0)"/>
<path d="" fill="#23BAF6" transform="translate(0,0)"/>
<path d="" fill="#0F5187" transform="translate(0,0)"/>
<path d="" fill="#26EAF7" transform="translate(0,0)"/>
<path d="" fill="#0F5187" transform="translate(0,0)"/>
<path d="" fill="#1095F1" transform="translate(0,0)"/>
<path d="" fill="#0F5187" transform="translate(0,0)"/>
<path d="" fill="#1095F1" transform="translate(0,0)"/>
<path d="" fill="#0F5187" transform="translate(0,0)"/>
<path d="" fill="#0F5187" transform="translate(0,0)"/>
<path d="" fill="#0F5187" transform="translate(0,0)"/>
<path d="" fill="#0F5187" transform="translate(0,0)"/>
<path d="" fill="#1095F1" transform="translate(0,0)"/>
<path d="" fill="#0F5187" transform="translate(0,0)"/>
<path d="" fill="#0F5187" transform="translate(0,0)"/>
<path d="" fill="#0F5187" transform="translate(0,0)"/>
<path d="" fill="#0F5187" transform="translate(0,0)"/>
<path d="" fill="#0F5187" transform="translate(0,0)"/>
<path d="" fill="#0F5187" transform="translate(0,0)"/>
<path d="" fill="#1095F1" transform="translate(0,0)"/>
<path d="" fill="#0F5187" transform="translate(0,0)"/>
<path d="" fill="#0F5187" transform="translate(0,0)"/>
<path d="" fill="#0F5187" transform="translate(0,0)"/>
<path d="" fill="#1095F1" transform="translate(0,0)"/>
<path d="" fill="#0F5187" transform="translate(0,0)"/>
<path d="" fill="#0F5187" transform="translate(0,0)"/>
<path d="" fill="#0F5187" transform="translate(0,0)"/>
<path d="" fill="#0F5187" transform="translate(0,0)"/>
<path d="" fill="#0F5187" transform="translate(0,0)"/>
<path d="" fill="#0F5187" transform="translate(0,0)"/>
<path d="" fill="#0F5187" transform="translate(0,0)"/>
<path d="" fill="#0F5187" transform="translate(0,0)"/>
<path d="" fill="#0F5187" transform="translate(0,0)"/>
<path d="" fill="#0F5187" transform="translate(0,0)"/>
<path d="" fill="#0F5187" transform="translate(0,0)"/>
<path d="" fill="#0F5187" transform="translate(0,0)"/>
<path d="" fill="#0F5187" transform="translate(0,0)"/>
<path d="" fill="#1095F1" transform="translate(0,0)"/>
<path d="" fill="#0F5187" transform="translate(0,0)"/>
<path d="" fill="#0F5187" transform="translate(0,0)"/>
<path d="" fill="#0F5187" transform="translate(0,0)"/>
<path d="" fill="#0F5187" transform="translate(0,0)"/>
<path d="" fill="#0F5187" transform="translate(0,0)"/>
<path d="" fill="#0F5187" transform="translate(0,0)"/>
<path d="" fill="#1095F1" transform="translate(0,0)"/>
<path d="" fill="#26EAF7" transform="translate(0,0)"/>
<path d="" fill="#0F5187" transform="translate(0,0)"/>
<path d="" fill="#1095F1" transform="translate(0,0)"/>
<path d="" fill="#1095F1" transform="translate(0,0)"/>
<path d="" fill="#23BAF6" transform="translate(0,0)"/>
<path d="" fill="#1095F1" transform="translate(0,0)"/>
<path d="" fill="#1095F1" transform="translate(0,0)"/>
<path d="" fill="#23BAF6" transform="translate(0,0)"/>
<path d="" fill="#0F5187" transform="translate(0,0)"/>
<path d="" fill="#1095F1" transform="translate(0,0)"/>
<path d="" fill="#0F5187" transform="translate(0,0)"/>
<path d="" fill="#1095F1" transform="translate(0,0)"/>
<path d="" fill="#0F5187" transform="translate(0,0)"/>
<path d="" fill="#1095F1" transform="translate(0,0)"/>
<path d="" fill="#1095F1" transform="translate(0,0)"/>
<path d="" fill="#1095F1" transform="translate(0,0)"/>
<path d="" fill="#0F5187" transform="translate(0,0)"/>
<path d="" fill="#0F5187" transform="translate(0,0)"/>
<path d="" fill="#1095F1" transform="translate(0,0)"/>
<path d="" fill="#0F5187" transform="translate(0,0)"/>
<path d="" fill="#0F5187" transform="translate(0,0)"/>
<path d="" fill="#1095F1" transform="translate(0,0)"/>
<path d="" fill="#1095F1" transform="translate(0,0)"/>
<path d="" fill="#23BAF6" transform="translate(0,0)"/>
<path d="" fill="#1095F1" transform="translate(0,0)"/>
<path d="" fill="#1095F1" transform="translate(0,0)"/>
<path d="" fill="#0F5187" transform="translate(0,0)"/>
<path d="" fill="#23BAF6" transform="translate(0,0)"/>
<path d="" fill="#0F5187" transform="translate(0,0)"/>
<path d="" fill="#0F5187" transform="translate(0,0)"/>
<path d="" fill="#0F5187" transform="translate(0,0)"/>
<path d="" fill="#0F5187" transform="translate(0,0)"/>
<path d="" fill="#0F5187" transform="translate(0,0)"/>
<path d="" fill="#0F5187" transform="translate(0,0)"/>
<path d="" fill="#0F5187" transform="translate(0,0)"/>
<path d="" fill="#1095F1" transform="translate(0,0)"/>
<path d="" fill="#1095F1" transform="translate(0,0)"/>
<path d="" fill="#1095F1" transform="translate(0,0)"/>
<path d="" fill="#1095F1" transform="translate(0,0)"/>
<path d="" fill="#1095F1" transform="translate(0,0)"/>
<path d="" fill="#1095F1" transform="translate(0,0)"/>
<path d="" fill="#1095F1" transform="translate(0,0)"/>
<path d="" fill="#1095F1" transform="translate(0,0)"/>
<path d="" fill="#1095F1" transform="translate(0,0)"/>
<path d="" fill="#1095F1" transform="translate(0,0)"/>
<path d="" fill="#0F5187" transform="translate(0,0)"/>
<path d="" fill="#0F5187" transform="translate(0,0)"/>
<path d="" fill="#1095F1" transform="translate(0,0)"/>
<path d="" fill="#1095F1" transform="translate(0,0)"/>
<path d="" fill="#1095F1" transform="translate(0,0)"/>
<path d="" fill="#0F5187" transform="translate(0,0)"/>
<path d="" fill="#0F5187" transform="translate(0,0)"/>
<path d="" fill="#1095F1" transform="translate(0,0)"/>
<path d="" fill="#1095F1" transform="translate(0,0)"/>
<path d="" fill="#1095F1" transform="translate(0,0)"/>
<path d="" fill="#26EAF7" transform="translate(0,0)"/>
<path d="" fill="#26EAF7" transform="translate(0,0)"/>
<path d="" fill="#23BAF6" transform="translate(0,0)"/>
<path d="" fill="#23BAF6" transform="translate(0,0)"/>
<path d="" fill="#26EAF7" transform="translate(0,0)"/>
<path d="" fill="#26EAF7" transform="translate(0,0)"/>
<path d="" fill="#1095F1" transform="translate(0,0)"/>
<path d="" fill="#1095F1" transform="translate(0,0)"/>
<path d="" fill="#0F5187" transform="translate(0,0)"/>
<path d="" fill="#0F5187" transform="translate(0,0)"/>
<path d="" fill="#0F5187" transform="translate(0,0)"/>
<path d="" fill="#1095F1" transform="translate(0,0)"/>
<path d="" fill="#0F5187" transform="translate(0,0)"/>
<path d="" fill="#0F5187" transform="translate(0,0)"/>
<path d="" fill="#0F5187" transform="translate(0,0)"/>
<path d="" fill="#0F5187" transform="translate(0,0)"/>
<path d="" fill="#1095F1" transform="translate(0,0)"/>
<path d="" fill="#1095F1" transform="translate(0,0)"/>
<path d="" fill="#1095F1" transform="translate(0,0)"/>
<path d="" fill="#1095F1" transform="translate(0,0)"/>
<path d="" fill="#1095F1" transform="translate(0,0)"/>
<path d="" fill="#26EAF7" transform="translate(0,0)"/>
<path d="" fill="#26EAF7" transform="translate(0,0)"/>
<path d="" fill="#1095F1" transform="translate(0,0)"/>
<path d="" fill="#1095F1" transform="translate(0,0)"/>
<path d="" fill="#0F5187" transform="translate(0,0)"/>
<path d="" fill="#0F5187" transform="translate(0,0)"/>
<path d="" fill="#1095F1" transform="translate(0,0)"/>
<path d="" fill="#1095F1" transform="translate(0,0)"/>
<path d="" fill="#1095F1" transform="translate(0,0)"/>
<path d="" fill="#1095F1" transform="translate(0,0)"/>
<path d="" fill="#1095F1" transform="translate(0,0)"/>
<path d="" fill="#0F5187" transform="translate(0,0)"/>
<path d="" fill="#0F5187" transform="translate(0,0)"/>
<path d="" fill="#1095F1" transform="translate(0,0)"/>
<path d="" fill="#0F5187" transform="translate(0,0)"/>
<path d="" fill="#000002" transform="translate(0,0)"/>
<path d="" fill="#26EAF7" transform="translate(0,0)"/>
<path d="" fill="#0F5187" transform="translate(0,0)"/>
<path d="" fill="#0F5187" transform="translate(0,0)"/>
<path d="" fill="#1095F1" transform="translate(0,0)"/>
<path d="" fill="#1095F1" transform="translate(0,0)"/>
<path d="" fill="#0F5187" transform="translate(0,0)"/>
<path d="" fill="#0F5187" transform="translate(0,0)"/>
<path d="" fill="#0F5187" transform="translate(0,0)"/>
<path d="" fill="#1095F1" transform="translate(0,0)"/>
<path d="" fill="#1095F1" transform="translate(0,0)"/>
<path d="" fill="#1095F1" transform="translate(0,0)"/>
<path d="" fill="#0F5187" transform="translate(0,0)"/>
<path d="" fill="#1095F1" transform="translate(0,0)"/>
<path d="" fill="#0F5187" transform="translate(0,0)"/>
<path d="" fill="#1095F1" transform="translate(0,0)"/>
<path d="" fill="#1095F1" transform="translate(0,0)"/>
<path d="" fill="#0F5187" transform="translate(0,0)"/>
<path d="" fill="#0F5187" transform="translate(0,0)"/>
<path d="" fill="#0F5187" transform="translate(0,0)"/>
<path d="" fill="#0F5187" transform="translate(0,0)"/>
<path d="" fill="#0F5187" transform="translate(0,0)"/>
<path d="" fill="#0F5187" transform="translate(0,0)"/>
<path d="" fill="#1095F1" transform="translate(0,0)"/>
<path d="" fill="#1095F1" transform="translate(0,0)"/>
<path d="" fill="#0F5187" transform="translate(0,0)"/>
<path d="" fill="#0F5187" transform="translate(0,0)"/>
<path d="" fill="#0F5187" transform="translate(0,0)"/>
<path d="" fill="#1095F1" transform="translate(0,0)"/>
<path d="" fill="#1095F1" transform="translate(0,0)"/>
<path d="" fill="#0F5187" transform="translate(0,0)"/>
<path d="" fill="#1095F1" transform="translate(0,0)"/>
<path d="" fill="#1095F1" transform="translate(0,0)"/>
<path d="" fill="#1095F1" transform="translate(0,0)"/>
<path d="" fill="#0F5187" transform="translate(0,0)"/>
<path d="" fill="#0F5187" transform="translate(0,0)"/>
<path d="" fill="#1095F1" transform="translate(0,0)"/>
<path d="" fill="#1095F1" transform="translate(0,0)"/>
<path d="" fill="#0F5187" transform="translate(0,0)"/>
<path d="" fill="#1095F1" transform="translate(0,0)"/>
<path d="" fill="#1095F1" transform="translate(0,0)"/>
<path d="" fill="#1095F1" transform="translate(0,0)"/>
<path d="" fill="#1095F1" transform="translate(0,0)"/>
<path d="" fill="#0F5187" transform="translate(0,0)"/>
<path d="" fill="#1095F1" transform="translate(0,0)"/>
<path d="" fill="#0F5187" transform="translate(0,0)"/>
<path d="" fill="#0F5187" transform="translate(0,0)"/>
<path d="" fill="#1095F1" transform="translate(0,0)"/>
<path d="" fill="#0F5187" transform="translate(0,0)"/>
<path d="" fill="#0F5187" transform="translate(0,0)"/>
<path d="" fill="#0F5187" transform="translate(0,0)"/>
<path d="" fill="#1095F1" transform="translate(0,0)"/>
<path d="" fill="#26EAF7" transform="translate(0,0)"/>
<path d="" fill="#1095F1" transform="translate(0,0)"/>
<path d="" fill="#26EAF7" transform="translate(0,0)"/>
<path d="" fill="#26EAF7" transform="translate(0,0)"/>
<path d="" fill="#1095F1" transform="translate(0,0)"/>
<path d="" fill="#1095F1" transform="translate(0,0)"/>
<path d="" fill="#0F5187" transform="translate(0,0)"/>
<path d="" fill="#0F5187" transform="translate(0,0)"/>
<path d="" fill="#0F5187" transform="translate(0,0)"/>
<path d="" fill="#0F5187" transform="translate(0,0)"/>
<path d="" fill="#0F5187" transform="translate(0,0)"/>
<path d="" fill="#0F5187" transform="translate(0,0)"/>
<path d="" fill="#0F5187" transform="translate(0,0)"/>
<path d="" fill="#0F5187" transform="translate(0,0)"/>
<path d="" fill="#1095F1" transform="translate(0,0)"/>
<path d="" fill="#0F5187" transform="translate(0,0)"/>
<path d="" fill="#1095F1" transform="translate(0,0)"/>
<path d="" fill="#1095F1" transform="translate(0,0)"/>
<path d="" fill="#0F5187" transform="translate(0,0)"/>
<path d="" fill="#1095F1" transform="translate(0,0)"/>
<path d="" fill="#26EAF7" transform="translate(0,0)"/>
<path d="" fill="#1095F1" transform="translate(0,0)"/>
<path d="" fill="#1095F1" transform="translate(0,0)"/>
<path d="" fill="#0F5187" transform="translate(0,0)"/>
<path d="" fill="#0F5187" transform="translate(0,0)"/>
<path d="" fill="#0F5187" transform="translate(0,0)"/>
<path d="" fill="#0F5187" transform="translate(0,0)"/>
<path d="" fill="#0F5187" transform="translate(0,0)"/>
<path d="" fill="#1095F1" transform="translate(0,0)"/>
<path d="" fill="#1095F1" transform="translate(0,0)"/>
<path d="" fill="#1095F1" transform="translate(0,0)"/>
<path d="" fill="#1095F1" transform="translate(0,0)"/>
<path d="" fill="#1095F1" transform="translate(0,0)"/>
<path d="" fill="#1095F1" transform="translate(0,0)"/>
<path d="" fill="#23BAF6" transform="translate(0,0)"/>
<path d="" fill="#1095F1" transform="translate(0,0)"/>
<path d="" fill="#0F5187" transform="translate(0,0)"/>
<path d="" fill="#1095F1" transform="translate(0,0)"/>
<path d="" fill="#1095F1" transform="translate(0,0)"/>
<path d="" fill="#0F5187" transform="translate(0,0)"/>
<path d="" fill="#1095F1" transform="translate(0,0)"/>
</svg>
