<svg width="20" height="29" viewBox="0 0 20 29" fill="none" xmlns="http://www.w3.org/2000/svg">
<path d="M10 20.5C11.5908 20.4983 13.116 19.8657 14.2408 18.7408C15.3657 17.616 15.9983 16.0908 16 14.5V6.5C16 4.9087 15.3679 3.38258 14.2426 2.25736C13.1174 1.13214 11.5913 0.5 10 0.5C8.4087 0.5 6.88258 1.13214 5.75736 2.25736C4.63214 3.38258 4 4.9087 4 6.5V14.5C4.00165 16.0908 4.63433 17.616 5.75919 18.7408C6.88405 19.8657 8.40921 20.4983 10 20.5ZM6 6.5C6 5.43913 6.42143 4.42172 7.17157 3.67157C7.92172 2.92143 8.93913 2.5 10 2.5C11.0609 2.5 12.0783 2.92143 12.8284 3.67157C13.5786 4.42172 14 5.43913 14 6.5V14.5C14 15.5609 13.5786 16.5783 12.8284 17.3284C12.0783 18.0786 11.0609 18.5 10 18.5C8.93913 18.5 7.92172 18.0786 7.17157 17.3284C6.42143 16.5783 6 15.5609 6 14.5V6.5ZM11 24.45V27.5C11 27.7652 10.8946 28.0196 10.7071 28.2071C10.5196 28.3946 10.2652 28.5 10 28.5C9.73478 28.5 9.48043 28.3946 9.29289 28.2071C9.10536 28.0196 9 27.7652 9 27.5V24.45C6.53455 24.1991 4.24971 23.043 2.5873 21.2051C0.924902 19.3672 0.00304514 16.9782 0 14.5C0 14.2348 0.105357 13.9804 0.292893 13.7929C0.48043 13.6054 0.734784 13.5 1 13.5C1.26522 13.5 1.51957 13.6054 1.70711 13.7929C1.89464 13.9804 2 14.2348 2 14.5C2 16.6217 2.84285 18.6566 4.34315 20.1569C5.84344 21.6571 7.87827 22.5 10 22.5C12.1217 22.5 14.1566 21.6571 15.6569 20.1569C17.1571 18.6566 18 16.6217 18 14.5C18 14.2348 18.1054 13.9804 18.2929 13.7929C18.4804 13.6054 18.7348 13.5 19 13.5C19.2652 13.5 19.5196 13.6054 19.7071 13.7929C19.8946 13.9804 20 14.2348 20 14.5C19.997 16.9782 19.0751 19.3672 17.4127 21.2051C15.7503 23.043 13.4654 24.1991 11 24.45Z" fill="#343330"/>
</svg>
