<svg width="28" height="28" viewBox="0 0 28 28" fill="none" xmlns="http://www.w3.org/2000/svg">
<path d="M26.1879 21.3743C25.1954 20.3743 22.7916 18.9149 21.6254 18.3268C20.1066 17.5618 19.9816 17.4993 18.7879 18.3861C17.9916 18.978 17.4622 19.5068 16.5304 19.308C15.5985 19.1093 13.5735 17.9886 11.8004 16.2211C10.0272 14.4536 8.84161 12.3699 8.64223 11.4411C8.44286 10.5124 8.98036 9.98927 9.56661 9.19114C10.3929 8.06614 10.3304 7.87864 9.62411 6.35989C9.07348 5.17864 7.57161 2.79739 6.56786 1.80989C5.49411 0.749269 5.49411 0.936769 4.80223 1.22427C4.23896 1.46126 3.69858 1.74934 3.18786 2.08489C2.18786 2.74927 1.63286 3.30114 1.24473 4.13052C0.856608 4.95989 0.682233 6.90427 2.68661 10.5455C4.69098 14.1868 6.09723 16.0486 9.00786 18.9511C11.9185 21.8536 14.1566 23.4143 17.4285 25.2493C21.476 27.5161 23.0285 27.0743 23.8604 26.6868C24.6922 26.2993 25.2466 25.7493 25.9122 24.7493C26.2487 24.2394 26.5374 23.6996 26.7747 23.1368C27.0629 22.4474 27.2504 22.4474 26.1879 21.3743Z" stroke="#023382" stroke-width="2" stroke-miterlimit="10"/>
</svg>
