<svg width="21" height="20" viewBox="0 0 21 20" fill="none" xmlns="http://www.w3.org/2000/svg">
<path d="M19.6528 9.32953L15.777 12.712L16.938 17.748C16.9994 18.0112 16.9819 18.2868 16.8876 18.5401C16.7933 18.7935 16.6264 19.0134 16.4078 19.1724C16.1891 19.3314 15.9285 19.4225 15.6584 19.4342C15.3883 19.4459 15.1208 19.3777 14.8892 19.2381L10.497 16.5741L6.11416 19.2381C5.88262 19.3777 5.61508 19.4459 5.345 19.4342C5.07491 19.4225 4.81426 19.3314 4.59564 19.1724C4.37702 19.0134 4.21012 18.7935 4.11581 18.5401C4.0215 18.2868 4.00397 18.0112 4.06541 17.748L5.22471 12.7172L1.34807 9.32953C1.14303 9.15269 0.994762 8.91925 0.921864 8.65848C0.848966 8.39772 0.854681 8.12123 0.938292 7.8637C1.0219 7.60617 1.17969 7.37906 1.39186 7.21084C1.60403 7.04263 1.86114 6.9408 2.13096 6.91813L7.2408 6.47555L9.23541 1.71805C9.33957 1.46841 9.51526 1.25518 9.74037 1.10519C9.96547 0.955204 10.2299 0.875172 10.5004 0.875172C10.7709 0.875172 11.0354 0.955204 11.2605 1.10519C11.4856 1.25518 11.6612 1.46841 11.7654 1.71805L13.766 6.47555L18.8742 6.91813C19.144 6.9408 19.4011 7.04263 19.6133 7.21084C19.8254 7.37906 19.9832 7.60617 20.0668 7.8637C20.1504 8.12123 20.1561 8.39772 20.0833 8.65848C20.0104 8.91925 19.8621 9.15269 19.6571 9.32953H19.6528Z" fill="#023382"/>
</svg>
