<svg width="21" height="19" viewBox="0 0 21 19" fill="none" xmlns="http://www.w3.org/2000/svg">
<path d="M18.75 3.75H15V3C15 2.40326 14.7629 1.83097 14.341 1.40901C13.919 0.987053 13.3467 0.75 12.75 0.75H8.25C7.65326 0.75 7.08097 0.987053 6.65901 1.40901C6.23705 1.83097 6 2.40326 6 3V3.75H2.25C1.85218 3.75 1.47064 3.90804 1.18934 4.18934C0.908035 4.47064 0.75 4.85218 0.75 5.25V17.25C0.75 17.6478 0.908035 18.0294 1.18934 18.3107C1.47064 18.592 1.85218 18.75 2.25 18.75H18.75C19.1478 18.75 19.5294 18.592 19.8107 18.3107C20.092 18.0294 20.25 17.6478 20.25 17.25V5.25C20.25 4.85218 20.092 4.47064 19.8107 4.18934C19.5294 3.90804 19.1478 3.75 18.75 3.75ZM2.25 9H18.75V13.5H2.25V9ZM7.5 3C7.5 2.80109 7.57902 2.61032 7.71967 2.46967C7.86032 2.32902 8.05109 2.25 8.25 2.25H12.75C12.9489 2.25 13.1397 2.32902 13.2803 2.46967C13.421 2.61032 13.5 2.80109 13.5 3V3.75H7.5V3ZM18.75 5.25V7.5H2.25V5.25H18.75ZM18.75 17.25H2.25V15H18.75V17.25Z" fill="#023382"/>
</svg>
