<svg width="25" height="15" viewBox="0 0 25 15" fill="none" xmlns="http://www.w3.org/2000/svg">
<path d="M11.4921 10.305C12.4973 9.63581 13.2605 8.66089 13.6687 7.52442C14.077 6.38796 14.1087 5.15028 13.7591 3.99441C13.4095 2.83854 12.6973 1.82585 11.7276 1.10609C10.758 0.386332 9.5825 -0.00228119 8.37492 -0.00228119C7.16735 -0.00228119 5.99184 0.386332 5.02221 1.10609C4.05258 1.82585 3.34032 2.83854 2.99076 3.99441C2.6412 5.15028 2.67288 6.38796 3.08114 7.52442C3.4894 8.66089 4.25255 9.63581 5.25774 10.305C3.43945 10.9752 1.88659 12.2153 0.830862 13.8403C0.775377 13.9228 0.736837 14.0155 0.717482 14.1129C0.698127 14.2104 0.698344 14.3108 0.718119 14.4082C0.737895 14.5056 0.776835 14.5981 0.832676 14.6803C0.888516 14.7626 0.960144 14.8329 1.0434 14.8872C1.12665 14.9415 1.21986 14.9787 1.31762 14.9966C1.41538 15.0146 1.51573 15.013 1.61285 14.9918C1.70996 14.9706 1.8019 14.9304 1.88332 14.8733C1.96473 14.8163 2.03401 14.7437 2.08711 14.6597C2.7681 13.6123 3.69995 12.7516 4.79802 12.1558C5.8961 11.56 7.12562 11.2479 8.37492 11.2479C9.62423 11.2479 10.8538 11.56 11.9518 12.1558C13.0499 12.7516 13.9817 13.6123 14.6627 14.6597C14.7727 14.8232 14.9427 14.9368 15.1358 14.976C15.3289 15.0152 15.5297 14.9769 15.6947 14.8692C15.8598 14.7615 15.9758 14.5933 16.0178 14.4007C16.0598 14.2082 16.0243 14.0069 15.919 13.8403C14.8633 12.2153 13.3104 10.9752 11.4921 10.305ZM4.24992 5.625C4.24992 4.80915 4.49185 4.01163 4.94511 3.33327C5.39837 2.65492 6.04261 2.12621 6.79636 1.814C7.5501 1.50179 8.3795 1.4201 9.17967 1.57926C9.97984 1.73843 10.7148 2.13129 11.2917 2.70819C11.8686 3.28508 12.2615 4.02008 12.4207 4.82025C12.5798 5.62043 12.4981 6.44983 12.1859 7.20357C11.8737 7.95732 11.345 8.60155 10.6667 9.05481C9.9883 9.50807 9.19077 9.75 8.37492 9.75C7.28129 9.74876 6.2328 9.31377 5.45948 8.54045C4.68616 7.76713 4.25117 6.71864 4.24992 5.625ZM23.9506 14.8781C23.784 14.9868 23.581 15.0248 23.3864 14.9838C23.1918 14.9429 23.0214 14.8263 22.9127 14.6597C22.2326 13.6117 21.3008 12.7506 20.2025 12.155C19.1042 11.5595 17.8743 11.2483 16.6249 11.25C16.426 11.25 16.2352 11.171 16.0946 11.0303C15.9539 10.8897 15.8749 10.6989 15.8749 10.5C15.8749 10.3011 15.9539 10.1103 16.0946 9.96967C16.2352 9.82902 16.426 9.75 16.6249 9.75C17.2324 9.74943 17.8322 9.61469 18.3816 9.35542C18.931 9.09615 19.4163 8.71874 19.8029 8.25016C20.1895 7.78159 20.4678 7.23341 20.618 6.64479C20.7682 6.05618 20.7865 5.44166 20.6716 4.84514C20.5568 4.24862 20.3116 3.68484 19.9536 3.19406C19.5956 2.70328 19.1337 2.29763 18.6007 2.00609C18.0678 1.71456 17.477 1.54432 16.8707 1.50756C16.2643 1.4708 15.6573 1.56842 15.0931 1.79344C15.001 1.83321 14.902 1.85414 14.8018 1.85498C14.7016 1.85583 14.6022 1.83658 14.5095 1.79837C14.4169 1.76016 14.3328 1.70376 14.2623 1.63252C14.1918 1.56127 14.1363 1.47661 14.0991 1.38355C14.0619 1.29049 14.0437 1.19092 14.0456 1.09071C14.0475 0.990496 14.0695 0.891685 14.1102 0.800112C14.151 0.70854 14.2097 0.626063 14.2828 0.557556C14.356 0.489048 14.4421 0.4359 14.5362 0.401251C15.8275 -0.113764 17.2639 -0.132297 18.5681 0.349226C19.8723 0.830749 20.952 1.77821 21.5989 3.00883C22.2458 4.23945 22.414 5.66603 22.0711 7.01336C21.7283 8.36069 20.8986 9.53331 19.7421 10.305C21.5604 10.9752 23.1133 12.2153 24.169 13.8403C24.2776 14.0069 24.3156 14.2098 24.2747 14.4045C24.2337 14.5991 24.1171 14.7695 23.9506 14.8781Z" fill="#023382"/>
</svg>
