<svg width="27" height="24" viewBox="0 0 27 24" fill="none" xmlns="http://www.w3.org/2000/svg">
<path d="M24.5 4H19.5V3C19.5 2.20435 19.1839 1.44129 18.6213 0.87868C18.0587 0.316071 17.2956 0 16.5 0H10.5C9.70435 0 8.94129 0.316071 8.37868 0.87868C7.81607 1.44129 7.5 2.20435 7.5 3V4H2.5C1.96957 4 1.46086 4.21071 1.08579 4.58579C0.710714 4.96086 0.5 5.46957 0.5 6V22C0.5 22.5304 0.710714 23.0391 1.08579 23.4142C1.46086 23.7893 1.96957 24 2.5 24H24.5C25.0304 24 25.5391 23.7893 25.9142 23.4142C26.2893 23.0391 26.5 22.5304 26.5 22V6C26.5 5.46957 26.2893 4.96086 25.9142 4.58579C25.5391 4.21071 25.0304 4 24.5 4ZM9.5 3C9.5 2.73478 9.60536 2.48043 9.79289 2.29289C9.98043 2.10536 10.2348 2 10.5 2H16.5C16.7652 2 17.0196 2.10536 17.2071 2.29289C17.3946 2.48043 17.5 2.73478 17.5 3V4H9.5V3ZM24.5 6V11.2013C21.1247 13.0385 17.3429 14.0007 13.5 14C9.65725 14.0007 5.87553 13.0389 2.5 11.2025V6H24.5ZM24.5 22H2.5V13.455C5.92491 15.1302 9.68733 16.0007 13.5 16C17.3127 16.0001 21.0751 15.1292 24.5 13.4538V22ZM10.5 11C10.5 10.7348 10.6054 10.4804 10.7929 10.2929C10.9804 10.1054 11.2348 10 11.5 10H15.5C15.7652 10 16.0196 10.1054 16.2071 10.2929C16.3946 10.4804 16.5 10.7348 16.5 11C16.5 11.2652 16.3946 11.5196 16.2071 11.7071C16.0196 11.8946 15.7652 12 15.5 12H11.5C11.2348 12 10.9804 11.8946 10.7929 11.7071C10.6054 11.5196 10.5 11.2652 10.5 11Z" fill="#8D8D8D"/>
</svg>
