<svg width="27" height="27" viewBox="0 0 27 27" fill="none" xmlns="http://www.w3.org/2000/svg">
<path d="M25.5313 5.88375L24.9488 5.5475C25.0171 5.1857 25.0171 4.8143 24.9488 4.4525L25.5313 4.11625C25.761 3.98364 25.9287 3.7652 25.9974 3.50898C26.0661 3.25276 26.0301 2.97974 25.8975 2.75C25.7649 2.52026 25.5465 2.3526 25.2903 2.28392C25.034 2.21523 24.761 2.25114 24.5313 2.38375L23.9475 2.72125C23.6682 2.48157 23.347 2.29554 23 2.1725V1.5C23 1.23478 22.8947 0.98043 22.7071 0.792893C22.5196 0.605357 22.2652 0.5 22 0.5C21.7348 0.5 21.4805 0.605357 21.2929 0.792893C21.1054 0.98043 21 1.23478 21 1.5V2.1725C20.6531 2.29554 20.3319 2.48157 20.0525 2.72125L19.4688 2.38375C19.355 2.31809 19.2294 2.27548 19.0992 2.25835C18.969 2.24122 18.8367 2.24991 18.7098 2.28392C18.5829 2.31792 18.464 2.37659 18.3598 2.45656C18.2556 2.53653 18.1682 2.63624 18.1025 2.75C18.0369 2.86376 17.9943 2.98933 17.9771 3.11956C17.96 3.24979 17.9687 3.38211 18.0027 3.50898C18.0367 3.63585 18.0954 3.75477 18.1753 3.85897C18.2553 3.96316 18.355 4.05059 18.4688 4.11625L19.0513 4.4525C18.9829 4.8143 18.9829 5.1857 19.0513 5.5475L18.4688 5.88375C18.278 5.99377 18.1289 6.16367 18.0446 6.36709C17.9603 6.57052 17.9455 6.79609 18.0025 7.00879C18.0594 7.22149 18.185 7.40944 18.3598 7.54346C18.5345 7.67748 18.7486 7.75009 18.9688 7.75C19.1444 7.75054 19.3169 7.70438 19.4688 7.61625L20.0525 7.27875C20.3319 7.51843 20.6531 7.70446 21 7.8275V8.5C21 8.76522 21.1054 9.01957 21.2929 9.20711C21.4805 9.39464 21.7348 9.5 22 9.5C22.2652 9.5 22.5196 9.39464 22.7071 9.20711C22.8947 9.01957 23 8.76522 23 8.5V7.8275C23.347 7.70446 23.6682 7.51843 23.9475 7.27875L24.5313 7.61625C24.6831 7.70438 24.8557 7.75054 25.0313 7.75C25.2515 7.75009 25.4656 7.67748 25.6403 7.54346C25.815 7.40944 25.9406 7.22149 25.9976 7.00879C26.0546 6.79609 26.0398 6.57052 25.9555 6.36709C25.8711 6.16367 25.722 5.99377 25.5313 5.88375ZM21 5C21 4.80222 21.0587 4.60888 21.1686 4.44443C21.2784 4.27998 21.4346 4.15181 21.6173 4.07612C21.8001 4.00043 22.0011 3.98063 22.1951 4.01921C22.3891 4.0578 22.5673 4.15304 22.7071 4.29289C22.847 4.43275 22.9422 4.61093 22.9808 4.80491C23.0194 4.99889 22.9996 5.19996 22.9239 5.38268C22.8482 5.56541 22.7201 5.72159 22.5556 5.83147C22.3912 5.94135 22.1978 6 22 6C21.7348 6 21.4805 5.89464 21.2929 5.70711C21.1054 5.51957 21 5.26522 21 5ZM24.6688 11.0138C24.4072 11.0575 24.1738 11.2034 24.0197 11.4193C23.8657 11.6352 23.8038 11.9034 23.8475 12.165C23.9491 12.7714 24.0001 13.3852 24 14C24.0024 16.6927 23.0127 19.292 21.22 21.3013C20.1047 19.6851 18.5365 18.4348 16.7125 17.7075C17.6923 16.9358 18.4072 15.878 18.7579 14.6811C19.1086 13.4843 19.0777 12.2079 18.6693 11.0294C18.2609 9.851 17.4955 8.82911 16.4795 8.10586C15.4634 7.38262 14.2472 6.99397 13 6.99397C11.7529 6.99397 10.5367 7.38262 9.52061 8.10586C8.50455 8.82911 7.73912 9.851 7.33077 11.0294C6.92241 12.2079 6.89143 13.4843 7.24212 14.6811C7.59282 15.878 8.30776 16.9358 9.28753 17.7075C7.46356 18.4348 5.89532 19.6851 4.78003 21.3013C3.37343 19.7162 2.45462 17.7586 2.13409 15.6638C1.81355 13.569 2.10494 11.4262 2.9732 9.49308C3.84147 7.55995 5.24965 5.91877 7.02843 4.76688C8.80721 3.615 10.8809 3.00144 13 3C13.6149 2.9999 14.2286 3.05091 14.835 3.1525C15.0954 3.19359 15.3615 3.13019 15.5754 2.97611C15.7893 2.82203 15.9337 2.58972 15.9772 2.32973C16.0207 2.06973 15.9598 1.80307 15.8077 1.58776C15.6556 1.37245 15.4246 1.22591 15.165 1.18C12.4493 0.723144 9.65871 1.14117 7.19608 2.37372C4.73344 3.60627 2.72624 5.58956 1.46426 8.03725C0.202289 10.4849 -0.249149 13.2703 0.175128 15.9913C0.599406 18.7123 1.87744 21.228 3.82472 23.1753C5.77199 25.1226 8.28773 26.4006 11.0087 26.8249C13.7297 27.2492 16.5151 26.7977 18.9628 25.5358C21.4105 24.2738 23.3938 22.2666 24.6263 19.804C25.8589 17.3413 26.2769 14.5507 25.82 11.835C25.7763 11.5734 25.6304 11.34 25.4145 11.186C25.1986 11.0319 24.9304 10.97 24.6688 11.0138ZM9.00003 13C9.00003 12.2089 9.23463 11.4355 9.67416 10.7777C10.1137 10.1199 10.7384 9.60723 11.4693 9.30448C12.2002 9.00173 13.0045 8.92252 13.7804 9.07686C14.5563 9.2312 15.269 9.61216 15.8285 10.1716C16.3879 10.731 16.7688 11.4437 16.9232 12.2196C17.0775 12.9956 16.9983 13.7998 16.6956 14.5307C16.3928 15.2616 15.8801 15.8864 15.2223 16.3259C14.5645 16.7654 13.7912 17 13 17C11.9392 17 10.9218 16.5786 10.1716 15.8284C9.42146 15.0783 9.00003 14.0609 9.00003 13ZM6.26003 22.6875C6.98345 21.5561 7.98004 20.625 9.15794 19.9801C10.3358 19.3351 11.6571 18.9971 13 18.9971C14.3429 18.9971 15.6642 19.3351 16.8421 19.9801C18.02 20.625 19.0166 21.5561 19.74 22.6875C17.813 24.1862 15.4413 24.9999 13 24.9999C10.5588 24.9999 8.18711 24.1862 6.26003 22.6875Z" fill="#8D8D8D"/>
</svg>
