<svg width="24" height="25" viewBox="0 0 24 25" fill="none" xmlns="http://www.w3.org/2000/svg">
<path d="M12 0.569336C8.7435 0.569336 8.334 0.584336 7.0545 0.641336C5.775 0.701336 4.9035 0.902336 4.14 1.19934C3.33914 1.50056 2.61374 1.97308 2.0145 2.58384C1.40411 3.18338 0.931661 3.9087 0.63 4.70934C0.333 5.47134 0.1305 6.34434 0.072 7.61934C0.015 8.90184 0 9.30984 0 12.5708C0 15.8288 0.015 16.2368 0.072 17.5163C0.132 18.7943 0.333 19.6658 0.63 20.4293C0.9375 21.2183 1.347 21.8873 2.0145 22.5548C2.6805 23.2223 3.3495 23.6333 4.1385 23.9393C4.9035 24.2363 5.7735 24.4388 7.0515 24.4973C8.3325 24.5543 8.7405 24.5693 12 24.5693C15.2595 24.5693 15.666 24.5543 16.947 24.4973C18.2235 24.4373 19.098 24.2363 19.8615 23.9393C20.6618 23.638 21.3867 23.1655 21.9855 22.5548C22.653 21.8873 23.0625 21.2183 23.37 20.4293C23.6655 19.6658 23.868 18.7943 23.928 17.5163C23.985 16.2368 24 15.8288 24 12.5693C24 9.30984 23.985 8.90184 23.928 7.62084C23.868 6.34434 23.6655 5.47134 23.37 4.70934C23.0684 3.90867 22.5959 3.18335 21.9855 2.58384C21.3864 1.97285 20.661 1.5003 19.86 1.19934C19.095 0.902336 18.222 0.699836 16.9455 0.641336C15.6645 0.584336 15.258 0.569336 11.997 0.569336H12.0015H12ZM10.9245 2.73234H12.0015C15.2055 2.73234 15.585 2.74284 16.8495 2.80134C18.0195 2.85384 18.6555 3.05034 19.0785 3.21384C19.638 3.43134 20.0385 3.69234 20.4585 4.11234C20.8785 4.53234 21.138 4.93134 21.3555 5.49234C21.5205 5.91384 21.7155 6.54984 21.768 7.71984C21.8265 8.98434 21.8385 9.36384 21.8385 12.5663C21.8385 15.7688 21.8265 16.1498 21.768 17.4143C21.7155 18.5843 21.519 19.2188 21.3555 19.6418C21.1631 20.1629 20.856 20.634 20.457 21.0203C20.037 21.4403 19.638 21.6998 19.077 21.9173C18.657 22.0823 18.021 22.2773 16.8495 22.3313C15.585 22.3883 15.2055 22.4018 12.0015 22.4018C8.7975 22.4018 8.4165 22.3883 7.152 22.3313C5.982 22.2773 5.3475 22.0823 4.9245 21.9173C4.40325 21.7252 3.93169 21.4187 3.5445 21.0203C3.14513 20.6334 2.83758 20.1618 2.6445 19.6403C2.481 19.2188 2.2845 18.5828 2.232 17.4128C2.175 16.1483 2.163 15.7688 2.163 12.5633C2.163 9.35934 2.175 8.98134 2.232 7.71684C2.286 6.54684 2.481 5.91084 2.646 5.48784C2.8635 4.92834 3.1245 4.52784 3.5445 4.10784C3.9645 3.68784 4.3635 3.42834 4.9245 3.21084C5.3475 3.04584 5.982 2.85084 7.152 2.79684C8.259 2.74584 8.688 2.73084 10.9245 2.72934V2.73234ZM18.4065 4.72434C18.2174 4.72434 18.0301 4.76158 17.8554 4.83395C17.6807 4.90632 17.522 5.01239 17.3883 5.1461C17.2545 5.27982 17.1485 5.43856 17.0761 5.61327C17.0037 5.78798 16.9665 5.97523 16.9665 6.16434C16.9665 6.35344 17.0037 6.54069 17.0761 6.7154C17.1485 6.89011 17.2545 7.04885 17.3883 7.18257C17.522 7.31629 17.6807 7.42236 17.8554 7.49472C18.0301 7.56709 18.2174 7.60434 18.4065 7.60434C18.7884 7.60434 19.1547 7.45262 19.4247 7.18257C19.6948 6.91252 19.8465 6.54625 19.8465 6.16434C19.8465 5.78242 19.6948 5.41615 19.4247 5.1461C19.1547 4.87605 18.7884 4.72434 18.4065 4.72434ZM12.0015 6.40734C11.1841 6.39458 10.3723 6.54456 9.61347 6.84855C8.85459 7.15253 8.16377 7.60444 7.58123 8.17797C6.99868 8.7515 6.53605 9.43519 6.22026 10.1892C5.90448 10.9433 5.74185 11.7526 5.74185 12.5701C5.74185 13.3876 5.90448 14.1969 6.22026 14.9509C6.53605 15.705 6.99868 16.3887 7.58123 16.9622C8.16377 17.5357 8.85459 17.9876 9.61347 18.2916C10.3723 18.5956 11.1841 18.7456 12.0015 18.7328C13.6193 18.7076 15.1623 18.0472 16.2975 16.8942C17.4326 15.7412 18.0689 14.1881 18.0689 12.5701C18.0689 10.9521 17.4326 9.39895 16.2975 8.24596C15.1623 7.09297 13.6193 6.43258 12.0015 6.40734ZM12.0015 8.56884C13.0625 8.56884 14.08 8.99032 14.8303 9.74055C15.5805 10.4908 16.002 11.5083 16.002 12.5693C16.002 13.6303 15.5805 14.6479 14.8303 15.3981C14.08 16.1484 13.0625 16.5698 12.0015 16.5698C10.9405 16.5698 9.92296 16.1484 9.17272 15.3981C8.42248 14.6479 8.001 13.6303 8.001 12.5693C8.001 11.5083 8.42248 10.4908 9.17272 9.74055C9.92296 8.99032 10.9405 8.56884 12.0015 8.56884Z" fill="#191919"/>
</svg>
