<svg width="28" height="24" viewBox="0 0 28 24" fill="none" xmlns="http://www.w3.org/2000/svg">
<path d="M28 11C28.0011 9.85159 27.7196 8.72056 27.1803 7.70663C26.6411 6.69269 25.8607 5.827 24.9079 5.18589C23.9551 4.54477 22.8592 4.14792 21.7168 4.03032C20.5744 3.91272 19.4207 4.07799 18.3573 4.51156C17.2938 4.94512 16.3534 5.63367 15.6189 6.51648C14.8844 7.39929 14.3784 8.44926 14.1455 9.5738C13.9126 10.6983 13.9599 11.8629 14.2833 12.9648C14.6067 14.0668 15.1963 15.0722 16 15.8925V23C15.9999 23.1705 16.0434 23.3383 16.1264 23.4873C16.2093 23.6363 16.329 23.7616 16.4741 23.8513C16.6192 23.941 16.7847 23.9921 16.9551 23.9997C17.1255 24.0074 17.295 23.9713 17.4475 23.895L21 22.1175L24.5525 23.895C24.705 23.9713 24.8745 24.0074 25.0449 23.9997C25.2153 23.9921 25.3808 23.941 25.5259 23.8513C25.671 23.7616 25.7907 23.6363 25.8736 23.4873C25.9566 23.3383 26.0001 23.1705 26 23V15.8925C27.2826 14.5871 28.0008 12.83 28 11ZM21 6C21.9889 6 22.9556 6.29325 23.7779 6.84265C24.6001 7.39206 25.241 8.17295 25.6194 9.08658C25.9978 10.0002 26.0969 11.0055 25.9039 11.9755C25.711 12.9454 25.2348 13.8363 24.5355 14.5355C23.8363 15.2348 22.9454 15.711 21.9755 15.9039C21.0055 16.0969 20.0002 15.9978 19.0866 15.6194C18.173 15.241 17.3921 14.6001 16.8427 13.7779C16.2932 12.9556 16 11.9889 16 11C16 9.67392 16.5268 8.40215 17.4645 7.46447C18.4021 6.52678 19.6739 6 21 6ZM21.4475 20.105C21.3086 20.0355 21.1554 19.9993 21 19.9993C20.8446 19.9993 20.6914 20.0355 20.5525 20.105L18 21.3825V17.3237C18.9374 17.769 19.9622 18 21 18C22.0378 18 23.0626 17.769 24 17.3237V21.3825L21.4475 20.105ZM14 19C14 19.2652 13.8946 19.5196 13.7071 19.7071C13.5196 19.8946 13.2652 20 13 20H2C1.46957 20 0.960859 19.7893 0.585786 19.4142C0.210714 19.0391 0 18.5304 0 18V2C0 1.46957 0.210714 0.960859 0.585786 0.585786C0.960859 0.210714 1.46957 0 2 0H24C24.5304 0 25.0391 0.210714 25.4142 0.585786C25.7893 0.960859 26 1.46957 26 2C26 2.26522 25.8946 2.51957 25.7071 2.70711C25.5196 2.89464 25.2652 3 25 3C24.7348 3 24.4804 2.89464 24.2929 2.70711C24.1054 2.51957 24 2.26522 24 2H2V18H13C13.2652 18 13.5196 18.1054 13.7071 18.2929C13.8946 18.4804 14 18.7348 14 19ZM12 12C12 12.2652 11.8946 12.5196 11.7071 12.7071C11.5196 12.8946 11.2652 13 11 13H6C5.73478 13 5.48043 12.8946 5.29289 12.7071C5.10536 12.5196 5 12.2652 5 12C5 11.7348 5.10536 11.4804 5.29289 11.2929C5.48043 11.1054 5.73478 11 6 11H11C11.2652 11 11.5196 11.1054 11.7071 11.2929C11.8946 11.4804 12 11.7348 12 12ZM12 8C12 8.26522 11.8946 8.51957 11.7071 8.70711C11.5196 8.89464 11.2652 9 11 9H6C5.73478 9 5.48043 8.89464 5.29289 8.70711C5.10536 8.51957 5 8.26522 5 8C5 7.73478 5.10536 7.48043 5.29289 7.29289C5.48043 7.10536 5.73478 7 6 7H11C11.2652 7 11.5196 7.10536 11.7071 7.29289C11.8946 7.48043 12 7.73478 12 8Z" fill="#8D8D8D"/>
</svg>
