<svg width="24" height="25" viewBox="0 0 24 25" fill="none" xmlns="http://www.w3.org/2000/svg">
<path d="M15.3906 13.7392C15.526 13.7392 16.0339 13.9592 16.9141 14.3992C17.7943 14.8392 18.2604 15.1042 18.3125 15.1942C18.3333 15.2442 18.3438 15.3192 18.3438 15.4192C18.3438 15.7492 18.2552 16.1292 18.0781 16.5592C17.9115 16.9492 17.5417 17.2767 16.9688 17.5417C16.3958 17.8067 15.8646 17.9392 15.375 17.9392C14.7812 17.9392 13.7917 17.6292 12.4062 17.0092C11.3854 16.5592 10.5 15.9692 9.75 15.2392C9 14.5092 8.22917 13.5842 7.4375 12.4642C6.6875 11.3942 6.31771 10.4242 6.32812 9.55423V9.43423C6.35938 8.52423 6.74479 7.73423 7.48438 7.06423C7.73438 6.84423 8.00521 6.73423 8.29688 6.73423C8.35938 6.73423 8.45312 6.74173 8.57812 6.75673C8.70312 6.77173 8.80208 6.77923 8.875 6.77923C9.07292 6.77923 9.21094 6.81173 9.28906 6.87673C9.36719 6.94173 9.44792 7.07923 9.53125 7.28923C9.61458 7.48923 9.78646 7.92923 10.0469 8.60923C10.3073 9.28923 10.4375 9.66423 10.4375 9.73423C10.4375 9.94423 10.2578 10.2317 9.89844 10.5967C9.53906 10.9617 9.35938 11.1942 9.35938 11.2942C9.35938 11.3642 9.38542 11.4392 9.4375 11.5192C9.79167 12.2492 10.3229 12.9342 11.0312 13.5742C11.6146 14.1042 12.401 14.6092 13.3906 15.0892C13.5156 15.1592 13.6302 15.1942 13.7344 15.1942C13.8906 15.1942 14.1719 14.9517 14.5781 14.4667C14.9844 13.9817 15.2552 13.7392 15.3906 13.7392ZM12.2188 21.6892C13.5417 21.6892 14.8099 21.4392 16.0234 20.9392C17.237 20.4392 18.2812 19.7692 19.1562 18.9292C20.0312 18.0892 20.7292 17.0867 21.25 15.9217C21.7708 14.7567 22.0312 13.5392 22.0312 12.2692C22.0312 10.9992 21.7708 9.78173 21.25 8.61673C20.7292 7.45173 20.0312 6.44923 19.1562 5.60923C18.2812 4.76923 17.237 4.09923 16.0234 3.59923C14.8099 3.09923 13.5417 2.84923 12.2188 2.84923C10.8958 2.84923 9.6276 3.09923 8.41406 3.59923C7.20052 4.09923 6.15625 4.76923 5.28125 5.60923C4.40625 6.44923 3.70833 7.45173 3.1875 8.61673C2.66667 9.78173 2.40625 10.9992 2.40625 12.2692C2.40625 14.2992 3.03125 16.1392 4.28125 17.7892L3.04688 21.2842L6.82812 20.1292C8.47396 21.1692 10.2708 21.6892 12.2188 21.6892ZM12.2188 0.959229C13.8125 0.959229 15.3359 1.25923 16.7891 1.85923C18.2422 2.45923 19.4948 3.26423 20.5469 4.27423C21.599 5.28423 22.4375 6.48673 23.0625 7.88173C23.6875 9.27673 24 10.7392 24 12.2692C24 13.7992 23.6875 15.2617 23.0625 16.6567C22.4375 18.0517 21.599 19.2542 20.5469 20.2642C19.4948 21.2742 18.2422 22.0792 16.7891 22.6792C15.3359 23.2792 13.8125 23.5792 12.2188 23.5792C10.1875 23.5792 8.28646 23.1092 6.51562 22.1692L0 24.1792L2.125 18.1042C1 16.3242 0.4375 14.3792 0.4375 12.2692C0.4375 10.7392 0.75 9.27673 1.375 7.88173C2 6.48673 2.83854 5.28423 3.89062 4.27423C4.94271 3.26423 6.19531 2.45923 7.64844 1.85923C9.10156 1.25923 10.625 0.959229 12.2188 0.959229Z" fill="#191919"/>
</svg>
