<svg width="18" height="16" viewBox="0 0 18 16" fill="none" xmlns="http://www.w3.org/2000/svg">
<path d="M17.7806 8.53063L11.0306 15.2806C10.8899 15.4214 10.699 15.5004 10.5 15.5004C10.301 15.5004 10.1101 15.4214 9.96937 15.2806C9.82864 15.1399 9.74958 14.949 9.74958 14.75C9.74958 14.551 9.82864 14.3601 9.96937 14.2194L15.4397 8.75H0.75C0.551088 8.75 0.360322 8.67099 0.21967 8.53034C0.0790178 8.38968 0 8.19892 0 8C0 7.80109 0.0790178 7.61033 0.21967 7.46967C0.360322 7.32902 0.551088 7.25 0.75 7.25H15.4397L9.96937 1.78063C9.82864 1.6399 9.74958 1.44903 9.74958 1.25C9.74958 1.05098 9.82864 0.86011 9.96937 0.71938C10.1101 0.57865 10.301 0.499588 10.5 0.499588C10.699 0.499588 10.8899 0.57865 11.0306 0.71938L17.7806 7.46938C17.8504 7.53903 17.9057 7.62175 17.9434 7.7128C17.9812 7.80385 18.0006 7.90144 18.0006 8C18.0006 8.09857 17.9812 8.19616 17.9434 8.28721C17.9057 8.37826 17.8504 8.46097 17.7806 8.53063Z" fill="#343330"/>
</svg>
