<svg width="20" height="20" viewBox="0 0 20 20" fill="none" xmlns="http://www.w3.org/2000/svg">
<path d="M16.875 12.25C16.875 12.4725 16.809 12.69 16.6854 12.875C16.5618 13.06 16.3861 13.2042 16.1805 13.2894C15.975 13.3745 15.7488 13.3968 15.5305 13.3534C15.3123 13.31 15.1118 13.2028 14.9545 13.0455C14.7972 12.8882 14.69 12.6877 14.6466 12.4695C14.6032 12.2512 14.6255 12.025 14.7106 11.8195C14.7958 11.6139 14.94 11.4382 15.125 11.3146C15.31 11.191 15.5275 11.125 15.75 11.125C16.0484 11.125 16.3345 11.2435 16.5455 11.4545C16.7565 11.6655 16.875 11.9516 16.875 12.25ZM16.4484 15.9334C16.2837 16.9955 15.7449 17.9637 14.9293 18.6635C14.1136 19.3633 13.0747 19.7486 12 19.75H9.75C8.55691 19.7488 7.41303 19.2743 6.56939 18.4306C5.72575 17.587 5.25124 16.4431 5.25 15.25V11.4522C3.80018 11.2695 2.46686 10.5641 1.50025 9.46816C0.533636 8.37226 0.000183379 6.96128 0 5.5V1.75C0 1.35218 0.158035 0.970644 0.43934 0.68934C0.720644 0.408035 1.10218 0.25 1.5 0.25H3C3.19891 0.25 3.38968 0.329018 3.53033 0.46967C3.67098 0.610322 3.75 0.801088 3.75 1C3.75 1.19891 3.67098 1.38968 3.53033 1.53033C3.38968 1.67098 3.19891 1.75 3 1.75H1.5V5.5C1.49995 6.09603 1.6183 6.68614 1.84819 7.23605C2.07808 7.78596 2.41492 8.28473 2.83916 8.70338C3.2634 9.12204 3.76658 9.45225 4.31949 9.67483C4.8724 9.89742 5.46402 10.0079 6.06 10C8.50781 9.96813 10.5 7.91406 10.5 5.42219V1.75H9C8.80109 1.75 8.61032 1.67098 8.46967 1.53033C8.32902 1.38968 8.25 1.19891 8.25 1C8.25 0.801088 8.32902 0.610322 8.46967 0.46967C8.61032 0.329018 8.80109 0.25 9 0.25H10.5C10.8978 0.25 11.2794 0.408035 11.5607 0.68934C11.842 0.970644 12 1.35218 12 1.75V5.42219C12 8.50094 9.70031 11.0744 6.75 11.4513V15.25C6.75 16.0456 7.06607 16.8087 7.62868 17.3713C8.19129 17.9339 8.95435 18.25 9.75 18.25H12C12.6813 18.2489 13.3419 18.0163 13.8737 17.5905C14.4055 17.1647 14.7769 16.5708 14.9269 15.9062C14.0211 15.7028 13.223 15.1706 12.687 14.4126C12.1509 13.6546 11.9151 12.7248 12.0252 11.803C12.1352 10.8812 12.5832 10.0329 13.2826 9.42243C13.9819 8.81191 14.8829 8.4825 15.8111 8.49794C16.7393 8.51338 17.6288 8.87257 18.3075 9.50602C18.9862 10.1395 19.4057 11.0021 19.485 11.9271C19.5643 12.852 19.2977 13.7735 18.7368 14.5133C18.1759 15.253 17.3605 15.7583 16.4484 15.9316V15.9334ZM18 12.25C18 11.805 17.868 11.37 17.6208 11C17.3736 10.63 17.0222 10.3416 16.611 10.1713C16.1999 10.001 15.7475 9.95642 15.311 10.0432C14.8746 10.13 14.4737 10.3443 14.159 10.659C13.8443 10.9737 13.63 11.3746 13.5432 11.811C13.4564 12.2475 13.501 12.6999 13.6713 13.111C13.8416 13.5222 14.13 13.8736 14.5 14.1208C14.87 14.368 15.305 14.5 15.75 14.5C16.3467 14.5 16.919 14.2629 17.341 13.841C17.7629 13.419 18 12.8467 18 12.25Z" fill="#033A95"/>
</svg>
