<svg width="24" height="18" viewBox="0 0 24 18" fill="none" xmlns="http://www.w3.org/2000/svg">
<path d="M5.05499 0.245625C4.98913 0.171381 4.90918 0.110948 4.81979 0.0678284C4.7304 0.0247087 4.63334 -0.000240067 4.53423 -0.00557171C4.43513 -0.0109034 4.33595 0.00348801 4.24245 0.0367684C4.14895 0.0700488 4.06298 0.121556 3.98953 0.188305C3.91608 0.255054 3.85661 0.335718 3.81457 0.42562C3.77252 0.515522 3.74874 0.612875 3.7446 0.712037C3.74045 0.811199 3.75603 0.910197 3.79043 1.00329C3.82483 1.09639 3.87737 1.18173 3.94499 1.25437L5.74874 3.23906C2.34374 5.32875 0.879366 8.55 0.814679 8.69625C0.772035 8.79217 0.75 8.89597 0.75 9.00094C0.75 9.10591 0.772035 9.20971 0.814679 9.30562C0.847491 9.37969 1.64155 11.1403 3.40687 12.9056C5.75905 15.2569 8.72999 16.5 12 16.5C13.6806 16.5096 15.3442 16.1636 16.8816 15.4847L18.9441 17.7544C19.0099 17.8286 19.0899 17.8891 19.1793 17.9322C19.2686 17.9753 19.3657 18.0002 19.4648 18.0056C19.5639 18.0109 19.6631 17.9965 19.7566 17.9632C19.8501 17.93 19.9361 17.8784 20.0095 17.8117C20.083 17.7449 20.1424 17.6643 20.1845 17.5744C20.2265 17.4845 20.2503 17.3871 20.2544 17.288C20.2586 17.1888 20.243 17.0898 20.2086 16.9967C20.1742 16.9036 20.1217 16.8183 20.0541 16.7456L5.05499 0.245625ZM9.49218 7.35563L13.3987 11.6541C12.8105 11.9635 12.136 12.0689 11.4814 11.9535C10.8268 11.8382 10.229 11.5087 9.78189 11.0168C9.33481 10.5248 9.06377 9.89836 9.01134 9.2357C8.9589 8.57305 9.12803 7.91174 9.49218 7.35563ZM12 15C9.11437 15 6.59343 13.9509 4.50655 11.8828C3.64997 11.0315 2.92145 10.0605 2.34374 9C2.78343 8.17594 4.18687 5.86969 6.7828 4.37063L8.4703 6.22219C7.81699 7.05891 7.48052 8.09966 7.52036 9.16047C7.56021 10.2213 7.97379 11.2339 8.68802 12.0192C9.40225 12.8046 10.3711 13.3122 11.4234 13.4522C12.4757 13.5923 13.5436 13.3559 14.4384 12.7847L15.8194 14.3034C14.6006 14.771 13.3053 15.0072 12 15ZM12.5625 6.05344C12.3671 6.01614 12.1944 5.90274 12.0826 5.73817C11.9708 5.57361 11.9289 5.37137 11.9662 5.17594C12.0035 4.98051 12.1169 4.8079 12.2815 4.69608C12.4461 4.58426 12.6483 4.54239 12.8437 4.57969C13.7996 4.765 14.67 5.25436 15.325 5.97477C15.98 6.69518 16.3846 7.60804 16.4784 8.57719C16.4969 8.77523 16.436 8.97252 16.3091 9.12565C16.1822 9.27878 15.9996 9.37522 15.8016 9.39375C15.7781 9.39513 15.7547 9.39513 15.7312 9.39375C15.5438 9.39455 15.3628 9.32513 15.224 9.19915C15.0852 9.07317 14.9986 8.89978 14.9812 8.71313C14.9181 8.06849 14.6486 7.46145 14.2128 6.98226C13.7771 6.50307 13.1982 6.17731 12.5625 6.05344ZM23.1825 9.30562C23.1431 9.39375 22.1934 11.4966 20.055 13.4119C19.9819 13.4794 19.8961 13.5317 19.8027 13.5658C19.7092 13.5998 19.6099 13.6149 19.5105 13.6102C19.4111 13.6055 19.3136 13.5811 19.2238 13.5384C19.1339 13.4956 19.0535 13.4354 18.9871 13.3613C18.9208 13.2872 18.8698 13.2006 18.8373 13.1066C18.8047 13.0125 18.7912 12.913 18.7975 12.8137C18.8037 12.7144 18.8297 12.6173 18.8739 12.5282C18.918 12.439 18.9795 12.3595 19.0547 12.2944C20.1038 11.3518 20.9851 10.2378 21.6609 9C21.0819 7.93854 20.3518 6.96683 19.4934 6.11531C17.4066 4.04906 14.8856 3 12 3C11.392 2.99926 10.7849 3.04849 10.185 3.14719C10.0874 3.16444 9.98741 3.16219 9.89073 3.14057C9.79404 3.11895 9.70259 3.07839 9.62167 3.02123C9.54074 2.96407 9.47195 2.89144 9.41925 2.80753C9.36656 2.72363 9.33101 2.63012 9.31466 2.5324C9.29832 2.43468 9.30149 2.3347 9.32401 2.23821C9.34652 2.14173 9.38793 2.05066 9.44584 1.97027C9.50375 1.88988 9.57702 1.82176 9.6614 1.76985C9.74579 1.71793 9.83963 1.68325 9.93749 1.66781C10.6192 1.55525 11.309 1.49912 12 1.5C15.27 1.5 18.2409 2.74312 20.5931 5.09531C22.3584 6.86062 23.1525 8.62219 23.1853 8.69625C23.2279 8.79217 23.25 8.89597 23.25 9.00094C23.25 9.10591 23.2279 9.20971 23.1853 9.30562H23.1825Z" fill="#343330"/>
</svg>
