<svg width="17" height="20" viewBox="0 0 17 20" fill="none" xmlns="http://www.w3.org/2000/svg">
<path d="M13.958 10.625C13.967 9.85965 14.17 9.10909 14.5482 8.44361C14.9263 7.77813 15.4671 7.21949 16.12 6.82C15.7051 6.22913 15.1588 5.74247 14.5241 5.39824C13.8894 5.054 13.1836 4.86155 12.462 4.836C10.904 4.678 9.42201 5.753 8.63301 5.753C7.84301 5.753 6.62401 4.859 5.33301 4.883C4.48476 4.90643 3.65717 5.14992 2.93139 5.5896C2.20561 6.02927 1.60657 6.65003 1.19301 7.391C-0.568992 10.451 0.744008 14.984 2.46101 17.467C3.30101 18.681 4.30401 20.048 5.61901 19.999C6.88701 19.949 7.36501 19.179 8.89601 19.179C10.427 19.179 10.858 19.999 12.196 19.974C13.56 19.949 14.425 18.735 15.258 17.517C15.855 16.6408 16.3216 15.6824 16.643 14.672C15.8492 14.3332 15.172 13.7695 14.6949 13.0503C14.2177 12.3312 13.9616 11.488 13.958 10.625ZM11.441 3.193C12.1957 2.30774 12.5695 1.1599 12.481 0C11.3418 0.110851 10.2882 0.653243 9.53601 1.516C9.16066 1.93398 8.87329 2.42323 8.691 2.95461C8.50872 3.486 8.43527 4.04863 8.47501 4.609C9.04495 4.61668 9.60899 4.49293 10.1234 4.24736C10.6377 4.00179 11.0886 3.64101 11.441 3.193Z" fill="#191919"/>
</svg>
