<svg width="28" height="20" viewBox="0 0 28 20" fill="none" xmlns="http://www.w3.org/2000/svg">
<path d="M4.83268 0C3.72761 0 2.66781 0.438987 1.8864 1.22039C1.105 2.00179 0.666016 3.0616 0.666016 4.16667V15.8333C0.666016 16.9384 1.105 17.9982 1.8864 18.7796C2.66781 19.561 3.72761 20 4.83268 20H16.4993C17.6044 20 18.6642 19.561 19.4456 18.7796C20.227 17.9982 20.666 16.9384 20.666 15.8333V14.208L24.64 17.312C25.7347 18.1667 27.3327 17.3867 27.3327 15.9987V4.00133C27.3327 2.61333 25.7347 1.83333 24.64 2.688L20.666 5.792V4.16667C20.666 3.0616 20.227 2.00179 19.4456 1.22039C18.6642 0.438987 17.6044 0 16.4993 0H4.83268ZM20.666 7.90667L25.666 4.00133V15.9987L20.666 12.0933V7.90667ZM18.9993 4.16667V15.8333C18.9993 16.1616 18.9347 16.4867 18.809 16.79C18.6834 17.0934 18.4993 17.369 18.2671 17.6011C18.035 17.8332 17.7594 18.0174 17.4561 18.143C17.1527 18.2687 16.8277 18.3333 16.4993 18.3333H4.83268C4.16964 18.3333 3.53376 18.0699 3.06492 17.6011C2.59607 17.1323 2.33268 16.4964 2.33268 15.8333V4.16667C2.33268 3.50363 2.59607 2.86774 3.06492 2.3989C3.53376 1.93006 4.16964 1.66667 4.83268 1.66667H16.4993C16.8277 1.66667 17.1527 1.73133 17.4561 1.85697C17.7594 1.9826 18.035 2.16675 18.2671 2.3989C18.4993 2.63105 18.6834 2.90664 18.809 3.20996C18.9347 3.51327 18.9993 3.83836 18.9993 4.16667Z" fill="#023382"/>
</svg>
